<?xml version="1.0" encoding="UTF-8"?>
<svg width="25px" height="25px" viewBox="0 0 25 25" version="1.1" xmlns="http://www.w3.org/2000/svg" xmlns:xlink="http://www.w3.org/1999/xlink">
    <title>star_nor</title>
    <defs>
        <path d="M12.9432485,2.80400087 L15.0872974,8.91121593 L15.0872974,8.91121593 L21.0091148,8.91121593 C21.5613995,8.91121593 22.0091148,9.35893118 22.0091148,9.91121593 C22.0091148,10.2169663 21.8692398,10.505916 21.6294217,10.6955751 L16.7690748,14.5393586 L16.7690748,14.5393586 L18.5753925,20.5424763 C18.7345253,21.0713385 18.4348005,21.6290686 17.9059383,21.7882015 C17.6056185,21.8785667 17.2803003,21.8228063 17.0272166,21.6375863 L12.019189,17.972449 L12.019189,17.972449 L7.23958901,21.7067563 C6.80438598,22.046781 6.17593977,21.9696236 5.83591511,21.5344206 C5.64027388,21.2840163 5.57528987,20.9555331 5.66085044,20.6494985 L7.36441839,14.5561439 L7.36441839,14.5561439 L2.37919017,10.7023827 C1.94224082,10.3646051 1.86184623,9.73656484 2.19962383,9.29961549 C2.38899402,9.05464606 2.68116005,8.91121593 2.99079062,8.91121593 L8.91493704,8.91121593 L8.91493704,8.91121593 L11.0560248,2.80438949 C11.2387535,2.28320941 11.8093843,2.00884034 12.3305644,2.19156901 C12.6172061,2.29206722 12.8426323,2.51740056 12.9432485,2.80400087 Z" id="path-1"></path>
    </defs>
    <g id="页面-1" stroke="none" stroke-width="1" fill="none" fill-rule="evenodd">
        <g id="rating1" transform="translate(-196.000000, -138.000000)">
            <g id="编组-3" transform="translate(112.457028, 138.491072)">
                <g id="star_nor" transform="translate(84.000000, 0.000000)">
                    <rect id="矩形" x="0" y="0" width="24" height="24"></rect>
                    <mask id="mask-2" fill="white">
                        <use xlink:href="#path-1"></use>
                    </mask>
                    <use id="Stroke-161-Copy-2" fill-opacity="0.1" fill="#000000" fill-rule="nonzero" xlink:href="#path-1"></use>
                </g>
            </g>
        </g>
    </g>
</svg>