<?xml version="1.0" encoding="UTF-8"?>
<svg width="24px" height="24px" viewBox="0 0 24 24" version="1.1" xmlns="http://www.w3.org/2000/svg" xmlns:xlink="http://www.w3.org/1999/xlink">
    <title>ic_more备份 5</title>
    <defs>
        <path d="M8.87091769,5.15837127 L8.90297888,5.18863193 L15.8697254,12.1483489 C16.5389051,12.8175286 16.5528463,13.8938212 15.9115492,14.5799638 L15.8697254,14.6232226 L8.90297888,21.5710791 C8.77410586,21.6999521 8.61000142,21.772121 8.4416692,21.7875858 L8.39567889,21.7903976 L8.34961869,21.7903976 C8.16542451,21.784774 7.98290745,21.7116679 7.8423187,21.5710791 C7.55988596,21.2886464 7.54979907,20.8369996 7.81205805,20.5424801 L7.8423187,20.510419 L14.4555119,13.9161159 C14.7379446,13.6336831 14.7480315,13.1820363 14.4857725,12.8875169 L14.4555119,12.8554557 L7.8423187,6.2492921 C7.54942549,5.95639888 7.54942549,5.48152514 7.8423187,5.18863193 C7.98353508,5.04741555 8.16705496,4.97428564 8.35208568,4.9692422 L8.39835123,4.9692422 C8.56793387,4.97517875 8.7359296,5.03816924 8.87091769,5.15837127 Z" id="path-1"></path>
    </defs>
    <g id="ic_more备份-5" stroke="none" stroke-width="1" fill="none" fill-rule="evenodd">
        <mask id="mask-2" fill="white">
            <use xlink:href="#path-1" transform="translate(12.002469, 13.379820) rotate(90.000000) translate(-12.002469, -13.379820) "></use>
        </mask>
        <use id="mark" fill="#376668" fill-rule="nonzero" transform="translate(12.002469, 13.379820) rotate(90.000000) translate(-12.002469, -13.379820) " xlink:href="#path-1"></use>
    </g>
</svg>