<?xml version="1.0" encoding="UTF-8"?>
<svg width="24px" height="24px" viewBox="0 0 24 24" version="1.1" xmlns="http://www.w3.org/2000/svg" xmlns:xlink="http://www.w3.org/1999/xlink">
    <title>ic_last</title>
    <g id="ic_last" stroke="none" stroke-width="1" fill="none" fill-rule="evenodd">
        <path d="M6.72222222,5.05555556 C6.11111111,5.05555556 5.61111111,5.46316425 5.61111111,5.96135266 L5.61111111,18.0386473 C5.61111111,18.5368357 6.11111111,18.9444444 6.72222222,18.9444444 C7.33333333,18.9444444 7.83333333,18.5368357 7.83333333,18.0386473 L7.83294539,12.7342986 C7.8884773,12.7973322 7.95089238,12.8538139 8.01882716,12.9024758 L16.9669753,18.7373188 C17.1432099,18.866244 17.3574074,18.9444444 17.591358,18.9444444 C18.1858025,18.9444444 18.6666667,18.4535024 18.6660494,17.8405797 L18.6666667,6.15157005 C18.6666667,5.54649758 18.1858025,5.05555556 17.591358,5.05555556 C17.354321,5.05555556 17.1799383,5.13707729 16.9611111,5.26177536 L8.02037037,11.0990338 C7.95167866,11.1478176 7.88866148,11.20449 7.83268221,11.2677799 L7.83333333,5.96135266 C7.83333333,5.46316425 7.33333333,5.05555556 6.72222222,5.05555556 Z" id="路径" fill="#376668"></path>
    </g>
</svg>