<?xml version="1.0" encoding="UTF-8"?>
<svg width="24px" height="24px" viewBox="0 0 24 24" version="1.1" xmlns="http://www.w3.org/2000/svg" xmlns:xlink="http://www.w3.org/1999/xlink">
    <title>ic_next</title>
    <g id="ic_next" stroke="none" stroke-width="1" fill="none" fill-rule="evenodd">
        <path d="M17.5555556,5.05555556 C18.1666667,5.05555556 18.6666667,5.46316425 18.6666667,5.96135266 L18.6666667,18.0386473 C18.6666667,18.5036232 18.2311111,18.889694 17.6761811,18.9391036 L17.5555556,18.9444444 C16.9444444,18.9444444 16.4444444,18.5368357 16.4444444,18.0386473 L16.445065,12.7330231 C16.3890933,12.7963817 16.3260866,12.853097 16.2574074,12.901872 L7.31080247,18.7373188 C7.1345679,18.866244 6.92037037,18.9444444 6.68641975,18.9444444 C6.09197531,18.9444444 5.61111111,18.4535024 5.61111111,17.848128 L5.61111111,6.15157005 C5.61111111,5.54649758 6.09197531,5.05555556 6.68641975,5.05555556 C6.92345679,5.05555556 7.09783951,5.13707729 7.31666667,5.26177536 L16.2589506,11.0972222 C16.3260991,11.1478176 16.3891163,11.20449 16.4450956,11.2677799 L16.4444444,5.96135266 C16.4444444,5.46316425 16.9444444,5.05555556 17.5555556,5.05555556 Z" id="形状结合" fill="#376668"></path>
    </g>
</svg>