<?xml version="1.0" encoding="UTF-8"?>
<svg width="64px" height="64px" viewBox="0 0 64 64" version="1.1" xmlns="http://www.w3.org/2000/svg" xmlns:xlink="http://www.w3.org/1999/xlink">
    <title>ic_Pause_big</title>
    <g id="ic_Pause_big" stroke="none" stroke-width="1" fill="none" fill-rule="evenodd">
        <path d="M32,0 C49.673112,0 64,14.326888 64,32 C64,49.673112 49.673112,64 32,64 C14.326888,64 0,49.673112 0,32 C0,14.326888 14.326888,0 32,0 Z M26.054902,19.1933502 C24.6254591,19.1933502 23.4666667,20.3521426 23.4666667,21.7815854 L23.4666667,40.3517479 C23.4666667,40.8439889 23.6070354,41.3260232 23.8713075,41.741308 C24.6387404,42.9472739 26.2384961,43.3027752 27.4444621,42.5353423 L42.035304,33.2502611 C42.3549013,33.046881 42.6259582,32.7758241 42.8293383,32.4562268 C43.5967712,31.2502609 43.2412699,29.6505051 42.035304,28.8830722 L27.4444621,19.597991 C27.0291773,19.3337189 26.547143,19.1933502 26.054902,19.1933502 Z" id="播放暂停" fill="#376668"></path>
    </g>
</svg>