<?xml version="1.0" encoding="UTF-8"?>
<svg xmlns="http://www.w3.org/2000/svg" xmlns:xlink="http://www.w3.org/1999/xlink" width="24" height="24" viewBox="0 0 281 320" version="1.1">
    <title>ic_normal_white_grid_documents</title>
    <g id="_页面-1" stroke="none" stroke-width="1" fill="none" fill-rule="evenodd">
        <path d="M16.4285714,0 L196.612403,0 L196.612403,0 L196.468677,65.674268 C196.446576,75.773165 204.615433,83.9778551 214.71433,83.9999562 C214.727669,83.9999854 214.741008,84 214.754347,84 L280.428571,84 L280.428571,84 L280.428571,304 C280.428571,312.836556 273.265127,320 264.428571,320 L16.4285714,320 C7.59201543,320 0.428571429,312.836556 0.428571429,304 L0.428571429,16 C0.428571429,7.163444 7.59201543,-1.53107837e-16 16.4285714,0 Z" id="_矩形备份-80" fill="#61A4FF"/>
        <path d="M196.428571,0 L280.428571,84 L214.714286,84 C204.615365,84 196.428571,75.8132069 196.428571,65.7142857 L196.428571,0 L196.428571,0 Z" id="_矩形备份-81" fill="#A2C9FF"/>
        <g id="_编组-249" transform="translate(65.428571, 146.000000)" fill="#FFFFFF">
            <rect id="_矩形" x="0" y="0" width="150" height="16" rx="8"/>
            <rect id="_矩形备份" x="0" y="48" width="150" height="16" rx="8"/>
            <rect id="_矩形备份-2" x="0" y="96" width="91" height="16" rx="8"/>
        </g>
    </g>
</svg>