<?xml version="1.0" encoding="UTF-8"?>
<svg xmlns="http://www.w3.org/2000/svg" xmlns:xlink="http://www.w3.org/1999/xlink" width="24" height="24" version="1.1" viewBox="0 0 24 24">
  <defs>
    <path id="_uxs-a" d="M6.37867966,0 C6.77650439,0 7.15803526,0.158035261 7.43933983,0.439339828 L10.7071068,3.70710678 C10.8946432,3.89464316 11.1489971,4 11.4142136,4 L18,4 C18.149679,4 18.2974379,4.00822125 18.4428497,4.02423682 C18.2349828,3.16929644 17.4757047,2.5288976 16.5622948,2.50095171 L16.5,2.5 L10.957,2.49986632 L9.45675,0.999866324 L16.5,1 C18.4329966,1 20,2.56700338 20,4.5 L20.0001204,4.53519846 C21.1956568,5.22683444 22,6.51948501 22,8 L22,14 C22,16.209139 20.209139,18 18,18 L4,18 C1.790861,18 0,16.209139 0,14 L0,4 C0,1.790861 1.790861,0 4,0 L6.37867966,0 Z M6.37867966,1.5 L4,1.5 C2.64269002,1.5 1.53801707,2.5816677 1.50096045,3.93002379 L1.5,14 C1.5,15.35731 2.5816677,16.4619829 3.93002379,16.4990396 L4,16.5 L18,16.5 C19.35731,16.5 20.4619829,15.4183323 20.4990396,14.0699762 L20.5,14 L20.5,8 C20.5,6.64269002 19.4183323,5.53801707 18.0699762,5.50096045 L11.4142136,5.5 C10.7787991,5.5 10.1683251,5.25809996 9.70591163,4.82529783 L9.64644661,4.76776695 L6.37867966,1.5 Z"/>
  </defs>
  <g fill="none" fill-rule="evenodd" stroke="none" stroke-width="1" opacity=".9" transform="translate(1 3)">
    <mask id="_uxs-b" fill="#fff">
      <use xlink:href="#_uxs-a"/>
    </mask>
    <rect width="24" height="24" x="-1" y="-3" fill="#000" mask="url(#_uxs-b)"/>
    <path fill="#000" d="M11.6,14.4 C11.6,14.7313708 11.3313708,15 11,15 C10.6686292,15 10.4,14.7313708 10.4,14.4 L10.4,11.6 L7.6,11.6 C7.26862915,11.6 7,11.3313708 7,11 C7,10.6686292 7.26862915,10.4 7.6,10.4 L10.4,10.4 L10.4,7.6 C10.4,7.26862915 10.6686292,7 11,7 C11.3313708,7 11.6,7.26862915 11.6,7.6 L11.6,14.4 Z M12.399,10.4 L14.4,10.4 C14.7313708,10.4 15,10.6686292 15,11 C15,11.3313708 14.7313708,11.6 14.4,11.6 L12.399,11.6 L12.399,10.4 Z"/>
  </g>
</svg>