<?xml version="1.0" encoding="UTF-8"?>
<svg xmlns="http://www.w3.org/2000/svg" xmlns:xlink="http://www.w3.org/1999/xlink" width="24" height="24" viewBox="0 0 281 320" version="1.1">
    <title>ic_normal_white_grid_txt</title>
    <g id="_页面-1" stroke="none" stroke-width="1" fill="none" fill-rule="evenodd">
        <path d="M16.4285714,0 L196.612403,0 L196.612403,0 L196.468677,65.674268 C196.446576,75.773165 204.615433,83.9778551 214.71433,83.9999562 C214.727669,83.9999854 214.741008,84 214.754347,84 L280.428571,84 L280.428571,84 L280.428571,304 C280.428571,312.836556 273.265127,320 264.428571,320 L16.4285714,320 C7.59201543,320 0.428571429,312.836556 0.428571429,304 L0.428571429,16 C0.428571429,7.163444 7.59201543,-1.53107837e-16 16.4285714,0 Z" id="_矩形备份-90" fill="#61A4FF"/>
        <path d="M196.428571,0 L280.428571,84 L214.714286,84 C204.615365,84 196.428571,75.8132069 196.428571,65.7142857 L196.428571,0 L196.428571,0 Z" id="_矩形备份-91" fill="#A2C9FF"/>
        <g id="_编组-35" transform="translate(67.428571, 179.000000)" stroke="#FFFFFF" stroke-linecap="round" stroke-width="10.4251493">
            <line x1="57.9290816" y1="1.30314366" x2="89.3063904" y2="51.3519061" id="_路径-13"/>
            <line x1="89.3063904" y1="1.30314366" x2="57.9290816" y2="51.3519061" id="_路径-14"/>
            <line x1="1.77874672e-12" y1="1.30314366" x2="34.9883288" y2="1.30314366" id="_路径-11"/>
            <line x1="17.4941644" y1="51.3519061" x2="17.4941644" y2="1.30314366" id="_路径-12"/>
            <line x1="111.32903" y1="1.30314366" x2="146.317359" y2="1.30314366" id="_路径-11备份"/>
            <line x1="128.823195" y1="51.3519061" x2="128.823195" y2="1.30314366" id="_路径-12备份"/>
        </g>
    </g>
</svg>