<?xml version="1.0" encoding="UTF-8"?>
<svg xmlns="http://www.w3.org/2000/svg" xmlns:xlink="http://www.w3.org/1999/xlink" width="24" height="24" viewBox="0 0 281 320" version="1.1">
    <title>ic_normal_white_grid_pdf</title>
    <g id="_页面-1" stroke="none" stroke-width="1" fill="none" fill-rule="evenodd">
        <path d="M16.4285714,0 L196.612403,0 L196.612403,0 L196.468677,65.674268 C196.446576,75.773165 204.615433,83.9778551 214.71433,83.9999562 C214.727669,83.9999854 214.741008,84 214.754347,84 L280.428571,84 L280.428571,84 L280.428571,304 C280.428571,312.836556 273.265127,320 264.428571,320 L16.4285714,320 C7.59201543,320 0.428571429,312.836556 0.428571429,304 L0.428571429,16 C0.428571429,7.163444 7.59201543,-1.53107837e-16 16.4285714,0 Z" id="_矩形备份-25" fill="#FF5C59"/>
        <path d="M196.428571,0 L280.428571,84 L214.714286,84 C204.615365,84 196.428571,75.8132069 196.428571,65.7142857 L196.428571,0 L196.428571,0 Z" id="_矩形备份-47" fill="#FFA6B2"/>
        <g id="_编组" stroke-linecap="round" stroke-linejoin="round" transform="translate(69.428571, 140.000000)" stroke="#FFFFFF" stroke-width="12">
            <polygon id="_多边形" points="71.5195446 38.5652539 103.102686 93.2688593 39.9364033 93.2688593"/>
            <path d="M72.444342,33.6637571 C80.2437497,24.5227464 84.1434535,17.6436465 84.1434535,13.0264577 C84.1434535,5.83214376 78.491537,0 71.5195446,0 C64.5475522,0 58.8956357,5.83214376 58.8956357,13.0264577 C58.8956357,17.6417904 62.7922048,24.5172159 70.585343,33.6527341" id="_路径"/>
            <path d="M122.939978,120.628463 C130.739385,111.487452 134.639089,104.608352 134.639089,99.9911636 C134.639089,92.7968496 128.987173,86.9647059 122.01518,86.9647059 C115.043188,86.9647059 109.391271,92.7968496 109.391271,99.9911636 C109.391271,104.606496 113.28784,111.481922 121.080979,120.61744" id="_路径备份" transform="translate(122.015180, 103.796584) rotate(-240.000000) translate(-122.015180, -103.796584) "/>
            <path d="M21.9487063,120.628463 C29.748114,111.487452 33.6478178,104.608352 33.6478178,99.9911636 C33.6478178,92.7968496 27.9959013,86.9647059 21.0239089,86.9647059 C14.0519165,86.9647059 8.4,92.7968496 8.4,99.9911636 C8.4,104.606496 12.2965691,111.481922 20.0897073,120.61744" id="_路径备份-2" transform="translate(21.023909, 103.796584) rotate(-120.000000) translate(-21.023909, -103.796584) "/>
        </g>
    </g>
</svg>