<?xml version="1.0" encoding="UTF-8"?>
<svg xmlns="http://www.w3.org/2000/svg" xmlns:xlink="http://www.w3.org/1999/xlink" width="24" height="24" viewBox="0 0 281 320" version="1.1">
    <title>ic_normal_white_grid_unknown</title>
    <defs>
        <path d="M58.8449848,0 C91.3441725,0 117.68997,26.3457971 117.68997,58.8449848 C117.68997,91.3441725 91.3441725,117.68997 58.8449848,117.68997 C26.3457971,117.68997 0,91.3441725 0,58.8449848 C0,26.3457971 26.3457971,0 58.8449848,0 Z M58.8449848,82.9179331 C55.8906991,82.9179331 53.4954407,85.3131915 53.4954407,88.2674772 C53.4954407,91.2217629 55.8906991,93.6170213 58.8449848,93.6170213 C61.7992705,93.6170213 64.1945289,91.2217629 64.1945289,88.2674772 C64.1945289,85.3131915 61.7992705,82.9179331 58.8449848,82.9179331 Z M62.5517905,27.1026105 C50.8056169,24.8519455 40.1215805,33.641481 40.1215805,45.2835528 C40.1215805,47.4994065 41.9178849,49.2957109 44.1337386,49.2957109 C46.3495923,49.2957109 48.1458967,47.4994065 48.1458967,45.2835528 C48.1458967,38.6877541 54.2340547,33.6791525 61.0406848,34.9833596 C65.1762121,35.7769037 68.535944,39.093682 69.3323573,43.1437441 C70.3233476,48.1807248 67.6925761,52.9620136 63.1212117,54.9227023 C58.0432035,57.100247 54.8335926,62.2185093 54.8335926,67.787744 L54.8335926,67.787744 L54.8335926,70.881459 C54.8335926,73.0973127 56.629897,74.893617 58.8457507,74.893617 C61.0616044,74.893617 62.8579087,73.0973127 62.8579087,70.881459 L62.8579087,70.881459 L62.8579087,67.787744 C62.8579087,65.358691 64.2235248,63.1809874 66.2839591,62.2974347 C74.2814615,58.8672525 78.9387009,50.402965 77.2058146,41.5950934 C75.7756573,34.3222042 69.8886241,28.5104358 62.5517905,27.1026105 Z" id="_path-1"/>
    </defs>
    <g id="_页面-1" stroke="none" stroke-width="1" fill="none" fill-rule="evenodd">
        <path d="M16.4285714,0 L196.612403,0 L196.612403,0 L196.468677,65.674268 C196.446576,75.773165 204.615433,83.9778551 214.71433,83.9999562 C214.727669,83.9999854 214.741008,84 214.754347,84 L280.428571,84 L280.428571,84 L280.428571,304 C280.428571,312.836556 273.265127,320 264.428571,320 L16.4285714,320 C7.59201543,320 0.428571429,312.836556 0.428571429,304 L0.428571429,16 C0.428571429,7.163444 7.59201543,-1.53107837e-16 16.4285714,0 Z" id="_矩形备份-86" fill="#B4C4D0"/>
        <path d="M196.428571,0 L280.428571,84 L214.714286,84 C204.615365,84 196.428571,75.8132069 196.428571,65.7142857 L196.428571,0 L196.428571,0 Z" id="_矩形备份-87" fill="#D2DDE6"/>
        <g id="_ic/help/ic_help" transform="translate(81.428571, 142.000000)">
            <g id="_Group" transform="translate(0.069909, 0.069909)">
                <mask id="_mask-2" fill="white">
                    <use xlink:href="#_path-1"/>
                </mask>
                <use id="_Combined-Shape" fill="#000000" fill-rule="nonzero" xlink:href="#_path-1"/>
                <rect id="_color/#000000" fill="#FFFFFF" mask="url(#_mask-2)" x="-5.34954407" y="-5.34954407" width="128.389058" height="128.389058"/>
            </g>
        </g>
    </g>
</svg>