<?xml version="1.0" encoding="UTF-8"?>
<svg width="216px" height="216px" viewBox="0 0 216 216" version="1.1" xmlns="http://www.w3.org/2000/svg" xmlns:xlink="http://www.w3.org/1999/xlink">
    <title>编组 2@3x</title>
    <defs>
        <linearGradient x1="50%" y1="0%" x2="50%" y2="100%" id="linearGradient-1">
            <stop stop-color="#00B2FF" offset="0%"></stop>
            <stop stop-color="#0086FF" offset="100%"></stop>
        </linearGradient>
    </defs>
    <g id="页面-1" stroke="none" stroke-width="1" fill="none" fill-rule="evenodd">
        <g id="编组-2">
            <g id="编组-12备份" fill="url(#linearGradient-1)">
                <path d="M60.6155078,0.0130608762 L157.705132,0.0130608762 L157.705132,0.0130608762 C165.879128,-0.0376799037 174.029434,0.89718228 181.979647,2.79741358 C199.217338,7.01612979 209.561639,17.9341673 213.501924,35.1127798 C214.994414,41.9530792 215.830206,48.9172444 215.999626,55.9104665 L215.9993,160.848362 C215.834456,167.976519 214.913017,175.069778 213.248801,182.008478 C209.030081,199.25459 198.061408,209.548258 180.88278,213.488539 C173.918266,214.987395 166.83139,215.827182 159.715927,215.998607 L55.6224595,215.999466 C48.4109469,215.844652 41.2327623,214.932941 34.20632,213.277603 C16.8926928,209.058887 6.49776644,198.090225 2.56591931,180.827238 C0.557808546,172.052308 0.0262498139,163.252066 0.0262498139,154.375887 L0.0262498139,107.927822 L0.0262498139,107.927822 C0.0262498139,91.0529568 -0.0328122674,74.1780919 0.0262498139,57.303227 C-0.00770044761,49.1374952 0.995953384,41.0005352 3.01310364,33.087796 C7.4343223,16.3394926 18.3439325,6.40019722 35.0753764,2.5442906 C43.464739,0.731696239 52.0335586,-0.117541793 60.6155078,0.0130608762 Z" id="形状结合备份-6"></path>
            </g>
            <g id="编组" transform="translate(37.000000, 50.000000)" fill="#FFFFFF" fill-rule="nonzero">
                <path d="M116.181818,0 C130.440806,0 142,11.5411042 142,25.7777778 L142,90.2222222 C142,104.458896 130.440806,116 116.181818,116 L25.8181818,116 C11.5591937,116 0,104.458896 0,90.2222222 L0,25.7777778 C0,11.5411042 11.5591937,0 25.8181818,0 L116.181818,0 Z M20.9406928,15.6982067 C19.0392189,14.0311365 16.1418332,14.1036178 14.3269603,15.9156505 C12.4364678,17.8031846 12.4364678,20.8634821 14.3269603,22.7510161 L14.3269603,22.7510161 L53.8848018,62.2469514 L54.3055952,62.6571964 C63.786744,71.6825809 78.8017421,71.545833 88.115198,62.2469514 L88.115198,62.2469514 L127.67304,22.7510161 L127.890824,22.5190329 C129.560508,20.6205347 129.487913,17.7276832 127.67304,15.9156505 C125.782547,14.0281165 122.717453,14.0281165 120.82696,15.9156505 L120.82696,15.9156505 L81.2691192,55.4115863 L80.9314916,55.7381489 C75.2383966,61.0720112 66.2911535,60.9631568 60.7308808,55.4115863 L60.7308808,55.4115863 L21.1730397,15.9156505 L20.9406928,15.6982067 Z" id="path-1"></path>
            </g>
        </g>
    </g>
</svg>