<?xml version="1.0" encoding="UTF-8"?>
<svg width="18px" height="18px" viewBox="0 0 18 18" version="1.1" xmlns="http://www.w3.org/2000/svg" xmlns:xlink="http://www.w3.org/1999/xlink">
    <title>编组 2</title>
    <g id="页面-1" stroke="none" stroke-width="1" fill="none" fill-rule="evenodd">
        <g id="画板备份-51" transform="translate(-172.000000, -157.000000)">
            <g id="编组-13备份-3" transform="translate(120.500000, 148.000000)">
                <g id="编组-2" transform="translate(51.500000, 9.000000)">
                    <rect id="矩形" x="0" y="0" width="18" height="18"></rect>
                    <g id="编组" transform="translate(1.000000, 1.000000)" fill="#000000" fill-opacity="0.6" fill-rule="nonzero">
                        <g id="path-1">
                            <path d="M3.55816935,16 C2.37633316,16 1.41471375,15.063014 1.38448391,13.8957841 L1.38448391,8.29573483 C1.39028506,8.29163743 1.39596922,8.28736668 1.40156207,8.28292244 L1.42729289,8.26061957 L2.5697549,7.18207265 L2.5697974,13.8391285 C2.5697974,14.3673152 2.98932308,14.7981268 3.51529582,14.8204353 L3.55816935,14.8213428 L5.53488293,14.8212213 L5.53491325,11.4818141 C5.53491325,9.90692441 6.7781753,8.62060513 8.34255488,8.53925555 L8.5000291,8.53517111 C10.1376174,8.53517111 11.465145,9.85442812 11.465145,11.4818141 L11.465145,11.4818141 L11.4651146,14.8212213 L13.4418889,14.8213428 C13.9733868,14.8213428 14.4068993,14.4044308 14.4293476,13.8817349 L14.4302608,13.8391285 L14.4302183,7.18207265 L15.5416853,8.23068443 L15.5674161,8.2529873 C15.5829782,8.26535353 15.5992474,8.2763761 15.6160694,8.28605884 L15.6163071,13.8391285 C15.6163071,15.0136018 14.673447,15.9692302 13.4988997,15.9992717 L13.4418889,16 L3.55816935,16 Z M8.5000291,9.7138283 C7.51747613,9.7138283 6.72095959,10.5053825 6.72095959,11.4818141 L6.72095959,11.4818141 L6.72095959,14.8213428 L10.2790986,14.8213428 L10.2790986,11.4818141 C10.2790986,10.5460671 9.54757559,9.78011213 8.62183511,9.71790708 L8.62183511,9.71790708 L8.5000291,9.7138283 Z M6.5743436,0.70588615 C7.7211928,-0.268909011 9.43593669,-0.234094895 10.542222,0.810328488 L10.542222,0.810328488 L16.81542,6.73273835 L16.8700319,6.79171694 C17.0528409,7.01812874 17.0436965,7.34959441 16.8369171,7.56590095 C16.6113395,7.80187173 16.2359813,7.81143638 15.9985312,7.58726411 L15.9985312,7.58726411 L9.72533318,1.66485429 L9.63361748,1.58397462 C8.94572958,1.01781695 7.93147185,1.04477684 7.27466683,1.66485429 L7.27466683,1.66485429 L1.00146878,7.58726411 L0.939399656,7.63844188 C0.702499123,7.80826996 0.369862401,7.78220749 0.163082931,7.56590095 C-0.0624946785,7.32993016 -0.0528701101,6.95691054 0.184579997,6.73273835 L0.184579997,6.73273835 L6.45777805,0.810328488 L6.5743436,0.70588615 Z"></path>
                        </g>
                    </g>
                </g>
            </g>
        </g>
    </g>
</svg>