<?xml version="1.0" encoding="UTF-8"?>
<svg width="18px" height="18px" viewBox="0 0 18 18" version="1.1" xmlns="http://www.w3.org/2000/svg" xmlns:xlink="http://www.w3.org/1999/xlink">
    <title>编组 2</title>
    <g id="页面-1" stroke="none" stroke-width="1" fill="none" fill-rule="evenodd">
        <g id="画板备份-49" transform="translate(-172.000000, -366.000000)">
            <g id="编组-13备份-3" transform="translate(146.000000, 357.000000)">
                <g id="编组-2" transform="translate(26.000000, 9.000000)">
                    <rect id="矩形" x="0" y="0" width="18" height="18"></rect>
                    <path d="M4.09317446,9.61576172 L5.19864944,9.61538462 C6.17420075,9.61538462 6.62653799,9.73635192 7.05127404,9.96350326 C7.47601009,10.1906546 7.80934539,10.5239899 8.03649674,10.948726 L8.07913165,11.0314107 C8.27875323,11.4340059 8.38461538,11.8887381 8.38461538,12.8013506 L8.38461538,13.8140341 C8.38461538,14.7895854 8.26364808,15.2419226 8.03649674,15.6666586 C7.80934539,16.0913947 7.47601009,16.42473 7.05127404,16.6518814 L6.96858932,16.6945163 C6.56599411,16.8941378 6.11126196,17 5.19864944,17 L4.18596594,17 C3.21041463,17 2.75807739,16.8790327 2.33334134,16.6518814 C1.9086053,16.42473 1.57526996,16.0913947 1.34811864,15.6666586 L1.30548375,15.5839739 C1.11274564,15.1952613 1.00741232,14.7579454 1.00037713,13.9068255 L1,12.8013506 C1,11.8257992 1.12096731,11.373462 1.34811864,10.948726 C1.57526996,10.5239899 1.9086053,10.1906546 2.33334134,9.96350326 L2.41602607,9.92086835 C2.80473868,9.72813022 3.24205458,9.62279696 4.09317446,9.61576172 Z M12.7085591,9.61576172 L13.8140341,9.61538462 C14.7895854,9.61538462 15.2419226,9.73635192 15.6666586,9.96350326 C16.0913947,10.1906546 16.42473,10.5239899 16.6518814,10.948726 L16.6945163,11.0314107 C16.8941378,11.4340059 17,11.8887381 17,12.8013506 L17,13.8140341 C17,14.7895854 16.8790327,15.2419226 16.6518814,15.6666586 C16.42473,16.0913947 16.0913947,16.42473 15.6666586,16.6518814 L15.5839739,16.6945163 C15.1813787,16.8941378 14.7266466,17 13.8140341,17 L12.8013506,17 C11.8257992,17 11.373462,16.8790327 10.948726,16.6518814 C10.5239899,16.42473 10.1906546,16.0913947 9.96350326,15.6666586 L9.92086835,15.5839739 C9.72813022,15.1952613 9.62279696,14.7579454 9.61576172,13.9068255 L9.61538462,12.8013506 C9.61538462,11.8257992 9.73635192,11.373462 9.96350326,10.948726 C10.1906546,10.5239899 10.5239899,10.1906546 10.948726,9.96350326 L11.0314107,9.92086835 C11.4201233,9.72813022 11.8574392,9.62279696 12.7085591,9.61576172 Z M5.19906932,10.8461538 L4.10334741,10.8464889 L3.96538974,10.8485534 C3.45897035,10.8598296 3.20465917,10.9098827 3.00572965,11.0024601 L2.98008022,11.0147769 L2.91377071,11.0488118 C2.70351893,11.1612557 2.54587106,11.3189035 2.43342719,11.5291554 C2.30406504,11.7710415 2.24403115,12.0242919 2.23275718,12.5871559 L2.23076916,12.8009307 L2.23110432,13.8966526 L2.23316876,14.0346102 C2.24444493,14.5410297 2.29449813,14.7953408 2.38707548,14.9942704 L2.39939225,15.0199198 L2.43342719,15.0862293 C2.54587106,15.2964811 2.70351893,15.4541289 2.91377071,15.5665728 C3.15565689,15.6959349 3.40890724,15.7559688 3.97207134,15.7672427 L4.18596594,15.7692307 L5.19864944,15.7692307 L5.338409,15.7683876 C5.89736483,15.7613556 6.17007488,15.7102702 6.37967215,15.6125573 L6.40453516,15.6006078 L6.47084468,15.5665728 C6.68109645,15.4541289 6.83874432,15.2964811 6.95118819,15.0862293 C7.08055034,14.8443431 7.14058424,14.5910928 7.15185815,14.0279287 L7.15384608,13.8140341 L7.15384608,12.8013506 L7.15300297,12.661591 C7.14597091,12.1026352 7.09488557,11.8299251 6.99717265,11.6203279 L6.98522313,11.5954649 L6.95118819,11.5291554 C6.83874432,11.3189035 6.68109645,11.1612557 6.47084468,11.0488118 C6.22895849,10.9194497 5.97570814,10.8594158 5.41254405,10.8481419 L5.19906932,10.8461538 Z M13.8144539,10.8461538 L12.7187321,10.8464889 L12.5807744,10.8485534 C12.074355,10.8598296 11.8200438,10.9098827 11.6211143,11.0024601 L11.5954649,11.0147769 L11.5291554,11.0488118 C11.3189035,11.1612557 11.1612557,11.3189035 11.0488118,11.5291554 C10.9194497,11.7710415 10.8594158,12.0242919 10.8481418,12.5871559 L10.8461538,12.8009307 L10.8464889,13.8966526 L10.8485534,14.0346102 C10.8598296,14.5410297 10.9098827,14.7953408 11.0024601,14.9942704 L11.0147769,15.0199198 L11.0488118,15.0862293 C11.1612557,15.2964811 11.3189035,15.4541289 11.5291554,15.5665728 C11.7710415,15.6959349 12.0242919,15.7559688 12.5874559,15.7672427 L12.8013506,15.7692307 L13.8140341,15.7692307 L13.9537936,15.7683876 C14.5127495,15.7613556 14.7854595,15.7102702 14.9950567,15.6125573 L15.0199198,15.6006078 L15.0862293,15.5665728 C15.2964811,15.4541289 15.4541289,15.2964811 15.5665728,15.0862293 C15.6959349,14.8443431 15.7559688,14.5910928 15.7672427,14.0279287 L15.7692307,13.8140341 L15.7692307,12.8013506 L15.7683876,12.661591 C15.7613556,12.1026352 15.7102702,11.8299251 15.6125573,11.6203279 L15.6006078,11.5954649 L15.5665728,11.5291554 C15.4541289,11.3189035 15.2964811,11.1612557 15.0862293,11.0488118 C14.8443431,10.9194497 14.5910928,10.8594158 14.0279287,10.8481419 L13.8144539,10.8461538 Z M4.09317446,1.00037713 L5.19864944,1 C6.17420075,1 6.62653799,1.12096731 7.05127404,1.34811864 C7.47601009,1.57526996 7.80934539,1.9086053 8.03649674,2.33334134 L8.07913165,2.41602607 C8.27875323,2.81862128 8.38461538,3.27335343 8.38461538,4.18596594 L8.38461538,5.19864944 C8.38461538,6.17420075 8.26364808,6.62653799 8.03649674,7.05127404 C7.80934539,7.47601009 7.47601009,7.80934539 7.05127404,8.03649674 L6.96858932,8.07913165 C6.56599411,8.27875323 6.11126196,8.38461538 5.19864944,8.38461538 L4.18596594,8.38461538 C3.21041463,8.38461538 2.75807739,8.26364808 2.33334134,8.03649674 C1.9086053,7.80934539 1.57526996,7.47601009 1.34811864,7.05127404 L1.30548375,6.96858932 C1.11274564,6.5798767 1.00741232,6.1425608 1.00037713,5.29144093 L1,4.18596594 C1,3.21041463 1.12096731,2.75807739 1.34811864,2.33334134 C1.57526996,1.9086053 1.9086053,1.57526996 2.33334134,1.34811864 L2.41602607,1.30548375 C2.80473868,1.11274564 3.24205458,1.00741232 4.09317446,1.00037713 Z M12.7085591,1.00037713 L13.8140341,1 C14.7895854,1 15.2419226,1.12096731 15.6666586,1.34811864 C16.0913947,1.57526996 16.42473,1.9086053 16.6518814,2.33334134 L16.6945163,2.41602607 C16.8941378,2.81862128 17,3.27335343 17,4.18596594 L17,5.19864944 C17,6.17420075 16.8790327,6.62653799 16.6518814,7.05127404 C16.42473,7.47601009 16.0913947,7.80934539 15.6666586,8.03649674 L15.5839739,8.07913165 C15.1813787,8.27875323 14.7266466,8.38461538 13.8140341,8.38461538 L12.8013506,8.38461538 C11.8257992,8.38461538 11.373462,8.26364808 10.948726,8.03649674 C10.5239899,7.80934539 10.1906546,7.47601009 9.96350326,7.05127404 L9.92086835,6.96858932 C9.72813022,6.5798767 9.62279696,6.1425608 9.61576172,5.29144093 L9.61538462,4.18596594 C9.61538462,3.21041463 9.73635192,2.75807739 9.96350326,2.33334134 C10.1906546,1.9086053 10.5239899,1.57526996 10.948726,1.34811864 L11.0314107,1.30548375 C11.4201233,1.11274564 11.8574392,1.00741232 12.7085591,1.00037713 Z M5.19906932,2.23076916 L4.10334741,2.23110432 L3.96538974,2.23316876 C3.45897035,2.24444493 3.20465917,2.29449813 3.00572965,2.38707548 L2.98008022,2.39939225 L2.91377071,2.43342719 C2.70351893,2.54587106 2.54587106,2.70351893 2.43342719,2.91377071 C2.30406504,3.15565689 2.24403115,3.40890724 2.23275718,3.97177133 L2.23076916,4.18554607 L2.23110432,5.28126798 L2.23316876,5.41922564 C2.24444493,5.92564504 2.29449813,6.17995622 2.38707548,6.37888574 L2.39939225,6.40453516 L2.43342719,6.47084468 C2.54587106,6.68109645 2.70351893,6.83874432 2.91377071,6.95118819 C3.15565689,7.08055034 3.40890724,7.14058424 3.97207134,7.15185815 L4.18596594,7.15384608 L5.19864944,7.15384608 L5.338409,7.15300297 C5.89736483,7.14597091 6.17007488,7.09488557 6.37967215,6.99717265 L6.40453516,6.98522313 L6.47084468,6.95118819 C6.68109645,6.83874432 6.83874432,6.68109645 6.95118819,6.47084468 C7.08055034,6.22895849 7.14058424,5.97570814 7.15185815,5.41254405 L7.15384608,5.19864944 L7.15384608,4.18596594 L7.15300297,4.04620638 C7.14597091,3.48725055 7.09488557,3.2145405 6.99717265,3.00494324 L6.98522313,2.98008022 L6.95118819,2.91377071 C6.83874432,2.70351893 6.68109645,2.54587106 6.47084468,2.43342719 C6.22895849,2.30406504 5.97570814,2.24403115 5.41254405,2.23275723 L5.19906932,2.23076916 Z M13.8144539,2.23076916 L12.7187321,2.23110432 L12.5807744,2.23316876 C12.074355,2.24444493 11.8200438,2.29449813 11.6211143,2.38707548 L11.5954649,2.39939225 L11.5291554,2.43342719 C11.3189035,2.54587106 11.1612557,2.70351893 11.0488118,2.91377071 C10.9194497,3.15565689 10.8594158,3.40890724 10.8481418,3.97177133 L10.8461538,4.18554607 L10.8464889,5.28126798 L10.8485534,5.41922564 C10.8598296,5.92564504 10.9098827,6.17995622 11.0024601,6.37888574 L11.0147769,6.40453516 L11.0488118,6.47084468 C11.1612557,6.68109645 11.3189035,6.83874432 11.5291554,6.95118819 C11.7710415,7.08055034 12.0242919,7.14058424 12.5874559,7.15185815 L12.8013506,7.15384608 L13.8140341,7.15384608 L13.9537936,7.15300297 C14.5127495,7.14597091 14.7854595,7.09488557 14.9950567,6.99717265 L15.0199198,6.98522313 L15.0862293,6.95118819 C15.2964811,6.83874432 15.4541289,6.68109645 15.5665728,6.47084468 C15.6959349,6.22895849 15.7559688,5.97570814 15.7672427,5.41254405 L15.7692307,5.19864944 L15.7692307,4.18596594 L15.7683876,4.04620638 C15.7613556,3.48725055 15.7102702,3.2145405 15.6125573,3.00494324 L15.6006078,2.98008022 L15.5665728,2.91377071 C15.4541289,2.70351893 15.2964811,2.54587106 15.0862293,2.43342719 C14.8443431,2.30406504 14.5910928,2.24403115 14.0279287,2.23275723 L13.8144539,2.23076916 Z" id="path-1" fill-opacity="0.6" fill="#000000" fill-rule="nonzero"></path>
                </g>
            </g>
        </g>
    </g>
</svg>