<?xml version="1.0" encoding="UTF-8"?>
<svg width="18px" height="18px" viewBox="0 0 18 18" version="1.1" xmlns="http://www.w3.org/2000/svg" xmlns:xlink="http://www.w3.org/1999/xlink">
    <title>编组 2</title>
    <g id="页面-1" stroke="none" stroke-width="1" fill="none" fill-rule="evenodd">
        <g id="画板备份-52" transform="translate(-171.000000, -157.000000)">
            <g id="编组-13备份-3" transform="translate(121.500000, 148.000000)">
                <g id="编组-2" transform="translate(49.500000, 9.000000)">
                    <rect id="矩形" x="0" y="0" width="18" height="18"></rect>
                    <g id="编组" transform="translate(3.000000, 1.000000)" fill="#000000" fill-opacity="0.6" fill-rule="nonzero">
                        <g id="path-1">
                            <path d="M6.5,0 C10.087614,0 13,2.89170394 13,6.4639463 C13,7.85513586 12.5836134,9.2144958 11.810766,10.5883726 C11.3296099,11.443715 10.7514531,12.2490246 9.98601219,13.1685468 L9.98601219,13.1685468 L9.79866427,13.3915091 L9.60384725,13.6193618 C9.53763263,13.6961838 9.47012686,13.7739049 9.40128385,13.8526093 C9.24777732,14.0281048 9.07540695,14.2125134 8.88410984,14.4059568 L8.88410984,14.4059568 L8.73708722,14.5527352 C8.63670502,14.6517194 8.53158723,14.7529699 8.42172591,14.8565018 L8.42172591,14.8565018 L8.25337535,15.0135128 L8.25337535,15.0135128 L8.16653001,15.0933053 L7.98749556,15.255471 C7.92662935,15.3101007 7.86457486,15.3653056 7.80133106,15.4210875 L7.80133106,15.4210875 L7.60803076,15.5901662 C6.99478906,16.1222426 6.09311897,16.138771 5.45252886,15.6249082 L5.45252886,15.6249082 L5.40255665,15.582754 L5.17003662,15.3775295 L5.02658635,15.2497269 L4.82327854,15.0667274 L4.63413973,14.8940881 L4.45908877,14.7317132 L4.29804451,14.5795065 L4.19842308,14.4836373 L4.10496673,14.3922162 L4.01765143,14.3052149 L3.93645312,14.2226051 L3.86134775,14.1443582 C3.84933659,14.1316791 3.83757831,14.1191805 3.8260724,14.106862 L3.8260724,14.106862 L3.76006136,14.0351063 L3.59709372,13.8510734 L3.41705542,13.6444468 C3.38741441,13.610142 3.35795636,13.5759028 3.32868164,13.5417277 L3.32868164,13.5417277 L3.15523659,13.3374376 L2.98621048,13.1346241 L2.98621048,13.1346241 L2.90336039,13.033751 L2.74099787,12.8330314 L2.5831012,12.6336268 C0.896811711,10.4803002 0,8.54708846 0,6.4639463 C0,2.91785895 2.78123467,0.0576743003 6.31269361,0.00081137978 L6.31269361,0.00081137978 L6.41563176,0 L6.5,0 Z M6.5,1.06671695 L6.41982169,1.06671695 L6.32527016,1.0674608 C3.37356108,1.11500283 1.05405405,3.50035292 1.05405405,6.4639463 C1.05405405,8.53818386 2.14267925,10.5476247 4.20669737,12.9378114 L4.20669737,12.9378114 L4.38344081,13.1407153 L4.54116464,13.3188676 C4.55000258,13.3286321 4.55909029,13.3385853 4.56842747,13.3487269 L4.56842747,13.3487269 L4.62744148,13.4118326 L4.69242701,13.4794395 L4.7633685,13.5515295 L4.88091413,13.6680301 L5.01177316,13.7945149 L5.15589311,13.9309226 L5.25931429,14.0273433 L5.42541902,14.1801522 L5.60464461,14.3427199 L5.79693857,14.5149849 L6.08538327,14.770222 L6.1162641,14.7963115 C6.35266819,14.9858857 6.69222123,14.9796614 6.9219741,14.7803173 L6.9219741,14.7803173 L7.10644775,14.6189753 L7.28379509,14.461252 C7.34172245,14.4092819 7.39846113,14.3579169 7.45401013,14.3071588 L7.45401013,14.3071588 L7.61708705,14.1567072 L7.77301994,14.0099085 L7.9218029,13.8667743 L8.06343003,13.7273157 C8.27050085,13.5208904 8.45340073,13.3269094 8.61204022,13.1455458 C8.64194943,13.1113523 8.67165379,13.0772699 8.70115339,13.0432967 L8.70115339,13.0432967 L8.87569533,12.8407512 C8.90437656,12.8072065 8.93285338,12.7737668 8.96112585,12.7404301 L8.96112585,12.7404301 L9.12831042,12.5416301 L9.29059876,12.3452039 C9.39716054,12.2150226 9.50046289,12.0863583 9.60051518,11.9590799 L9.60051518,11.9590799 L9.74815723,11.7691852 C11.224427,9.8488228 11.9459459,8.23550141 11.9459459,6.4639463 C11.9459459,3.48544955 9.50993104,1.06671695 6.5,1.06671695 L6.5,1.06671695 Z M6.5,4.87821377 C7.37320698,4.87821377 8.08108108,5.59460325 8.08108108,6.47831448 C8.08108108,7.36202571 7.37320698,8.07841519 6.5,8.07841519 C5.62679302,8.07841519 4.91891892,7.36202571 4.91891892,6.47831448 C4.91891892,5.59460325 5.62679302,4.87821377 6.5,4.87821377 Z"></path>
                        </g>
                    </g>
                </g>
            </g>
        </g>
    </g>
</svg>