<?xml version="1.0" encoding="UTF-8"?>
<svg width="57px" height="25px" viewBox="0 0 57 25" version="1.1" xmlns="http://www.w3.org/2000/svg" xmlns:xlink="http://www.w3.org/1999/xlink">
    <title>编组 41</title>
    <g id="页面-1" stroke="none" stroke-width="1" fill="none" fill-rule="evenodd" stroke-opacity="0.6">
        <g id="画板备份-53" transform="translate(-152.000000, -356.000000)" stroke="#000000" stroke-width="1.5">
            <g id="编组-13备份-3" transform="translate(146.000000, 356.000000)">
                <g id="编组-41" transform="translate(5.999849, 0.000000)">
                    <path d="M18.378,7.95 L0.749996223,23.3490194 L0.749984728,18.3250396 C0.766212364,15.7822511 1.75142963,13.9823027 3.28104788,12.6764689 C5.40874924,10.8600521 8.52704956,9.96727544 11.5438003,9.32937265 L11.5438003,9.32937265 L12.1028743,9.21383816 C12.9192132,9.04882381 13.7250978,8.9009542 14.5007109,8.75860154 C15.8318825,8.51428406 17.0758559,8.28236318 18.1409494,8.01265034 L18.378,7.95 Z" id="路径"></path>
                    <path d="M46.878,7.95 L29.2499962,23.3490194 L29.2499847,18.3250396 C29.2662124,15.7822511 30.2514296,13.9823027 31.7810479,12.6764689 C33.9087492,10.8600521 37.0270496,9.96727544 40.0438003,9.32937265 L40.0438003,9.32937265 L40.6028743,9.21383816 C41.4192132,9.04882381 42.2250978,8.9009542 43.0007109,8.75860154 C44.3318825,8.51428406 45.5758559,8.28236318 46.6409494,8.01265034 L46.878,7.95 Z" id="路径" transform="translate(42.750076, 12.500000) scale(-1, 1) translate(-42.750076, -12.500000) "></path>
                </g>
            </g>
        </g>
    </g>
</svg>