<?xml version="1.0" encoding="UTF-8"?>
<svg width="24px" height="24px" viewBox="0 0 24 24" version="1.1" xmlns="http://www.w3.org/2000/svg" xmlns:xlink="http://www.w3.org/1999/xlink">
    <title>btn_good_on</title>
    <defs>
        <path d="M16.5613257,2.48910901 C17.0958249,2.936343 17.3140045,3.65809578 17.1167619,4.32652899 L15.9587153,8.25102036 L15.7792898,8.85907361 C15.7011366,9.12392584 15.8524862,9.40198661 16.1173384,9.48013972 C16.1589321,9.49241327 16.2019265,9.49921779 16.2452376,9.5003971 L20.7039054,9.49994571 C22.0846173,9.49996845 23.2038869,10.619275 23.2038642,11.9999869 C23.2038605,12.2278343 23.1727087,12.4546117 23.1112743,12.6740205 L21.3180145,19.0785197 C20.8343603,20.8058562 19.259929,22 17.4661584,22 L8.5,22 C8.22385763,22 8,21.7761424 8,21.5 L8,10.5447755 C8,10.1928378 8.12374841,9.85210556 8.34959479,9.58219159 L9.253,8.5012064 L14.0961717,2.70823381 C14.7163955,1.96699068 15.8200826,1.86888517 16.5613257,2.48910901 Z M6.5,10 C6.77614237,10 7,10.2238576 7,10.5 L7,21.5 C7,21.7761424 6.77614237,22 6.5,22 L4,22 C2.34314575,22 1,20.6568542 1,19 L1,13 C1,11.3431458 2.34314575,10 4,10 L6.5,10 Z M4.25,16.5 C3.83578644,16.5 3.5,16.8357864 3.5,17.25 L3.5,18.75 C3.5,19.1642136 3.83578644,19.5 4.25,19.5 C4.66421356,19.5 5,19.1642136 5,18.75 L5,17.25 C5,16.8357864 4.66421356,16.5 4.25,16.5 Z" id="path-1"></path>
    </defs>
    <g id="btn_good_on" stroke="none" stroke-width="1" fill="none" fill-rule="evenodd">
        <mask id="mask-2" fill="white">
            <use xlink:href="#path-1"></use>
        </mask>
        <use id="形状结合" fill="#E84026" xlink:href="#path-1"></use>
    </g>
</svg>