<?xml version="1.0" encoding="UTF-8"?>
<svg width="24px" height="24px" viewBox="0 0 24 24" version="1.1" xmlns="http://www.w3.org/2000/svg" xmlns:xlink="http://www.w3.org/1999/xlink">
    <title>btn_Favorites_normal</title>
    <defs>
        <path d="M12.7775436,1.63492692 C13.1226657,1.80525484 13.4020138,2.084603 13.5723417,2.42972506 L15.5909872,6.51994748 C15.7366492,6.81509095 16.0182148,7.01966033 16.3439249,7.06698879 L20.8577534,7.72288645 C21.8142069,7.86186728 22.4768994,8.74989227 22.3379186,9.70634578 C22.2825757,10.0872106 22.1032231,10.4392098 21.8276268,10.7078499 L18.5613898,13.891644 C18.3257038,14.1213812 18.2181553,14.4523814 18.2737932,14.7767754 L19.0448472,19.2723649 C19.2082289,20.2249537 18.5684502,21.1296265 17.6158614,21.2930083 C17.2365356,21.3580678 16.8463415,21.2962671 16.5056856,21.1171737 L13.4135001,19.4922374 C13.8890143,19.1811107 14.3594108,18.8635936 14.8246852,18.5396878 L17.2036973,19.7894766 C17.2523624,19.8150614 17.3081045,19.82389 17.3622939,19.8145958 C17.4886577,19.7929227 17.5764902,19.679939 17.5697055,19.5549525 L17.5664347,19.5259325 L16.822127,15.1896117 C16.233717,15.6534073 15.651428,16.0961739 15.0752601,16.5179114 L14.195356,17.1492968 L13.3237321,17.7504514 C12.7197717,18.1588606 12.1071016,18.5564752 11.485722,18.9432952 L10.5471205,19.5154293 L7.5004216,21.1171737 C7.2752958,21.2355294 7.03613819,21.2999613 6.79772797,21.3150637 L6.65488977,21.3182423 C6.03733755,21.3066835 5.44481929,20.9678678 5.13709464,20.3825407 C4.95800127,20.0418849 4.89620058,19.6516907 4.96126006,19.2723649 L5.73231401,14.7767754 C5.78795195,14.4523814 5.68040346,14.1213812 5.44471738,13.891644 L2.17848044,10.7078499 C1.48638418,10.0332227 1.47222264,8.92527453 2.14684976,8.23317827 C2.41548982,7.95758191 2.76748904,7.77822934 3.14835384,7.72288645 L7.66218227,7.06698879 C7.98789244,7.01966033 8.26945802,6.81509095 8.41512003,6.51994748 L10.4337655,2.42972506 C10.8615045,1.56303116 11.9108497,1.20718791 12.7775436,1.63492692 Z M11.9591458,2.95808449 L11.9295308,2.96527007 C11.9186646,2.96861565 11.9080292,2.97269676 11.897705,2.97748605 L11.9295308,2.96527007 C11.9108155,2.97103233 11.8927846,2.97897647 11.8758497,2.9889629 L11.897705,2.97748605 C11.8806657,2.98539044 11.8644742,2.99522387 11.8494929,3.00686353 L11.8758497,2.9889629 C11.8564802,3.00038505 11.8385444,3.01447891 11.8226585,3.03103562 L11.8494929,3.00686353 C11.8349373,3.01817235 11.821524,3.03118618 11.8095853,3.04579235 L11.7788696,3.09357363 L9.76022415,7.18379605 C9.65777458,7.39138155 9.5284333,7.58104483 9.37730841,7.74907464 C9.36689578,7.76065179 9.35639741,7.77210731 9.34579765,7.78345927 C9.32154277,7.8094362 9.29672731,7.83489994 9.27139962,7.8598056 C9.25218069,7.8787174 9.23203893,7.89788572 9.21159254,7.9167049 C9.19083435,7.93581237 9.1696972,7.9546158 9.14825426,7.97304979 C9.12322683,7.9945665 9.09772876,8.01562276 9.07182858,8.03616184 C9.05048782,8.05308223 9.02904998,8.06952117 9.00735242,8.08560821 C8.98070846,8.10536464 8.95357168,8.12465932 8.92605691,8.14340738 C8.90492178,8.15781133 8.88336909,8.17201666 8.861597,8.18588799 C8.83077263,8.20552392 8.79964623,8.22441091 8.76810558,8.24261854 C8.74318259,8.25700696 8.71793447,8.27100654 8.69243707,8.28457189 C8.66690923,8.29815315 8.64115119,8.31128953 8.61515443,8.32398347 C8.58903843,8.33673475 8.5627448,8.34901131 8.53622226,8.36083563 C8.50335128,8.37549408 8.46990009,8.3895481 8.43611347,8.40288263 C8.41431502,8.41148634 8.3923271,8.41980861 8.37020461,8.4278259 C8.33780879,8.43956293 8.30534491,8.45057618 8.27261388,8.46093143 C8.24147434,8.47078718 8.20981124,8.48012444 8.17791744,8.48884419 C8.15164244,8.49602683 8.12529134,8.50277116 8.09879321,8.50909269 C8.08290893,8.51288347 8.06677784,8.51656457 8.05059453,8.52008864 L7.99067741,8.53237085 C7.97925198,8.53456774 7.96780208,8.53668672 7.95632837,8.5387273 L7.87787975,8.55139931 L3.36405132,9.20729697 C3.30964206,9.2152031 3.25935646,9.24082489 3.22097931,9.2801958 L3.17890006,9.33787805 C3.17582815,9.34368602 3.17300154,9.3495886 3.17042005,9.35557062 C3.16449622,9.36931413 3.15989,9.3833711 3.15655628,9.39766093 L3.17042005,9.35557062 C3.16039885,9.37879248 3.15407137,9.40321145 3.15142628,9.42794046 L3.15655628,9.39766093 C3.15105904,9.42122457 3.14902189,9.44542138 3.15043452,9.46944495 L3.15142628,9.42794046 C3.14920796,9.44867962 3.14957964,9.46963685 3.15253462,9.4902889 L3.15043452,9.46944495 C3.15177872,9.49230479 3.15624659,9.51500776 3.16382923,9.53685903 L3.15253462,9.4902889 C3.1560908,9.51514267 3.16338839,9.53955445 3.17441573,9.56261222 L3.16382923,9.53685903 C3.17116187,9.55798986 3.18140729,9.57832422 3.19455744,9.59723378 L3.22549797,9.63372032 L6.49173491,12.8175145 C6.66864201,12.9899563 6.81667163,13.185219 6.93345225,13.3960039 C6.9453283,13.4174491 6.95666735,13.4386412 6.96769281,13.4599807 C6.98476849,13.4930124 7.00132004,13.5268904 7.01708883,13.5611038 C7.02632136,13.5811337 7.03531842,13.6013551 7.0440433,13.6216867 C7.05986772,13.6585657 7.07476697,13.6957275 7.08876354,13.7332162 C7.0954323,13.7510694 7.10202451,13.7693658 7.10840225,13.7877355 C7.12028839,13.8219746 7.13140707,13.8563938 7.14177572,13.8910418 C7.15287113,13.9281173 7.16311244,13.9654736 7.17248413,14.0030615 C7.17796581,14.0250458 7.18315883,14.0471494 7.18805129,14.0693263 C7.19476714,14.0997675 7.20091922,14.1303611 7.20649928,14.1610769 C7.21303576,14.1970365 7.21882288,14.2334175 7.22380648,14.2699424 C7.22506929,14.2791953 7.22629025,14.2885353 7.22745863,14.2978842 C7.23350998,14.3463257 7.23814084,14.3948735 7.24134826,14.4436002 C7.24232171,14.4583669 7.24317605,14.4733923 7.24389477,14.4884329 C7.24594229,14.5312853 7.24688899,14.5742497 7.24672221,14.617297 C7.24660006,14.6501739 7.24581127,14.6834943 7.24435124,14.7168455 C7.24302405,14.7470889 7.2411662,14.7770913 7.23876161,14.8071049 C7.23781128,14.8189758 7.23676123,14.8309985 7.23562319,14.8430222 L7.23116275,14.8861574 C7.22880526,14.9071733 7.22617796,14.9281889 7.22327934,14.9491994 L7.21072649,15.030343 L6.43967255,19.5259325 C6.43037834,19.5801219 6.439207,19.6358639 6.46479177,19.684529 C6.47959651,19.7126893 6.49901555,19.7368556 6.52163151,19.7565872 C6.53066279,19.7644774 6.5403436,19.7717488 6.55045515,19.7782636 L6.52163151,19.7565872 C6.53713342,19.7701121 6.55413733,19.7815534 6.57218679,19.7907694 L6.55045515,19.7782636 C6.56710435,19.7889905 6.58492135,19.7976658 6.60348569,19.8041589 L6.57218679,19.7907694 C6.59336524,19.801583 6.61598318,19.8093327 6.63930324,19.8137894 L6.60348569,19.8041589 C6.64312221,19.8180221 6.68616551,19.8219373 6.7285231,19.8146321 L6.69635002,19.818041 C6.71659512,19.8172224 6.73691947,19.813924 6.75687892,19.8080077 L6.80240991,19.7894766 L7.099,19.6328248 L9.805,18.2098248 L10.6857887,17.6743663 C11.8872014,16.926714 13.0550101,16.1377745 14.1892882,15.3075173 C15.4071484,14.4160804 16.6554139,13.426464 17.8943402,12.3749785 L18.512841,11.844248 L20.7806092,9.63372032 C20.8199802,9.59534317 20.845602,9.54505756 20.8535081,9.4906483 L20.8540354,9.42209317 C20.8529596,9.41387917 20.8514789,9.40576962 20.8496114,9.39778877 C20.8467961,9.38572088 20.8430359,9.37379532 20.838433,9.36225854 L20.8496114,9.39778877 C20.8443233,9.3751889 20.8359338,9.35362108 20.8248541,9.33363618 L20.838433,9.36225854 C20.8310465,9.34374458 20.82149,9.3262318 20.8100323,9.31008052 L20.8248541,9.33363618 C20.8138925,9.31386434 20.8002978,9.29564184 20.7844679,9.27950211 L20.8100323,9.31008052 C20.7986234,9.29399801 20.7853296,9.27926542 20.7704162,9.26623846 L20.7844679,9.27950211 C20.771272,9.26604789 20.7565229,9.254041 20.7404512,9.24379044 L20.7704162,9.26623846 C20.7531723,9.25117575 20.7337631,9.23839341 20.7125991,9.22844136 L20.7404512,9.24379044 C20.7231627,9.23276376 20.7043437,9.22376945 20.6842813,9.21719216 L20.6420559,9.20729697 L16.1282275,8.55139931 C16.0242447,8.53628973 15.9220617,8.51476975 15.822156,8.48718644 C15.8041655,8.48221869 15.7863313,8.47707911 15.768573,8.47174673 C15.7427792,8.46400398 15.7169359,8.45578397 15.6912639,8.44715676 C15.6551722,8.43502433 15.6196273,8.42216767 15.5844409,8.4085327 C15.5644506,8.40078994 15.5442118,8.39264392 15.5240975,8.38424068 C15.4902091,8.37007802 15.4569534,8.35531648 15.4240667,8.33985247 C15.3932502,8.32536777 15.3624135,8.31008688 15.3319263,8.29418824 C15.3095091,8.28249662 15.2873855,8.27052969 15.2654562,8.25823707 C15.234202,8.24071867 15.2032705,8.22249429 15.1727562,8.20362031 C15.1514954,8.19047184 15.1302994,8.17691705 15.1093158,8.16304793 C15.0811365,8.14441718 15.0536264,8.12542572 15.0265083,8.10589129 C15.0039806,8.08966876 14.9814273,8.07284299 14.9591617,8.05563969 C14.9376716,8.03903453 14.9165082,8.02212616 14.8956203,8.00487455 C14.8659479,7.98036443 14.8369551,7.9552738 14.8085387,7.9295148 C14.7918677,7.9144102 14.7749603,7.89865958 14.7582675,7.88267054 C14.7325411,7.85802801 14.7073573,7.83285363 14.6827016,7.80712907 C14.6663058,7.79001878 14.6503228,7.77286306 14.634574,7.75547361 C14.6079416,7.72606654 14.5819842,7.69599769 14.5567238,7.66528078 C14.5445629,7.65049305 14.5325647,7.63555652 14.520731,7.62047206 C14.4925821,7.58459162 14.465341,7.54784068 14.4390743,7.51028147 C14.4305576,7.49809936 14.4223634,7.48615879 14.4142676,7.4741386 C14.3896373,7.43757254 14.3658596,7.40017205 14.343035,7.36205794 C14.3382863,7.35412737 14.3336394,7.34626964 14.3290331,7.33838204 L14.3060346,7.29814983 C14.2979469,7.28369237 14.2899937,7.26913839 14.2821768,7.25448926 L14.2458831,7.18379605 L12.2272376,3.09357363 C12.2029051,3.04427048 12.1629982,3.0043636 12.113695,2.98003104 L12.076,2.96682475 L12.0537618,2.95934967 C12.0424329,2.95699545 12.0310424,2.95545502 12.0196677,2.9547021 C11.9990062,2.95337037 11.9788315,2.95455654 11.9591458,2.95808449 Z" id="path-1"></path>
    </defs>
    <g id="btn_Favorites_normal" stroke="none" stroke-width="1" fill="none" fill-rule="evenodd">
        <mask id="mask-2" fill="white">
            <use xlink:href="#path-1"></use>
        </mask>
        <use id="形状结合" fill="#000000" fill-rule="nonzero" xlink:href="#path-1"></use>
    </g>
</svg>