<?xml version="1.0" encoding="UTF-8"?>
<svg width="24px" height="24px" viewBox="0 0 24 24" version="1.1" xmlns="http://www.w3.org/2000/svg" xmlns:xlink="http://www.w3.org/1999/xlink">
    <title>ic_audio_on</title>
    <defs>
        <path d="M19.8066718,3.69604585 C21.9904422,5.88431857 23.2400393,8.84306184 23.2400393,11.9970846 C23.2400393,15.1430803 21.9968253,18.0949361 19.8228866,20.2818435 C19.4335254,20.6735274 18.8003632,20.6754104 18.4086793,20.2860492 C18.0169953,19.896688 18.0151124,19.2635258 18.4044736,18.8718419 C20.2095939,17.0559531 21.2400393,14.6092896 21.2400393,11.9970846 C21.2400393,9.37822165 20.2042973,6.9258355 18.3910026,5.1088023 C18.0008807,4.71787605 18.0015327,4.0847114 18.392459,3.69458948 C18.7833852,3.30446756 19.4165499,3.3051196 19.8066718,3.69604585 Z M16.6671369,6.2237733 C18.1850833,7.74484934 19.0539928,9.80221637 19.0539928,11.9946022 C19.0539928,14.1814072 18.1895209,16.2339872 16.6784067,17.754116 C16.2890455,18.1458 15.6558833,18.1476829 15.2641994,17.7583217 C14.8725155,17.3689605 14.8706325,16.7357984 15.2599937,16.3441144 C16.4022895,15.1950043 17.0539928,13.6476164 17.0539928,11.9946022 C17.0539928,10.3373762 16.3989385,8.78636627 15.2514677,7.63652974 C14.8613458,7.24560349 14.8619979,6.61243885 15.2529241,6.22231693 C15.6438504,5.83219501 16.277015,5.83284705 16.6671369,6.2237733 Z M13.819861,8.93688482 C14.6153972,9.75282559 15.069589,10.8464437 15.069589,12.0091328 C15.069589,13.1862903 14.6039864,14.2923307 13.7908349,15.1108741 C13.4016032,15.5026868 12.7684416,15.504779 12.376629,15.1155473 C11.9848164,14.7263156 11.9827241,14.0931541 12.3719558,13.7013415 C12.8165705,13.2537787 13.069589,12.6527323 13.069589,12.0091328 C13.069589,11.373415 12.822794,10.7791739 12.3878554,10.3330796 C12.0023069,9.93764217 12.0103234,9.30452794 12.4057608,8.9189794 C12.8011983,8.53343085 13.4343125,8.54144739 13.819861,8.93688482 Z M8.09643434,5.55827676 L4.197,8.499 L1.74987545,8.50000001 C0.783501688,8.5 0,9.28350169 0,10.25 L0,13.75 L0.00580119953,13.8935272 C0.0788076603,14.7928897 0.831826603,15.5 1.75,15.5 L4.197,15.499 L8.09643396,18.441723 C8.35671681,18.6381476 8.67391797,18.7444058 9,18.7444058 C9.82842712,18.7444058 10.5,18.0728329 10.5,17.2444058 L10.5,6.75559422 C10.5,6.42951219 10.3937418,6.11231103 10.1973175,5.85202856 C9.69829192,5.19076839 8.75769451,5.05925123 8.09643434,5.55827676 Z" id="path-1"></path>
    </defs>
    <g id="ic_audio_on" stroke="none" stroke-width="1" fill="none" fill-rule="evenodd">
        <mask id="mask-2" fill="white">
            <use xlink:href="#path-1"></use>
        </mask>
        <use id="合并形状" fill="#0A59F7" xlink:href="#path-1"></use>
    </g>
</svg>