<?xml version="1.0" encoding="UTF-8"?>
<svg width="120px" height="120px" viewBox="0 0 120 120" version="1.1" xmlns="http://www.w3.org/2000/svg" xmlns:xlink="http://www.w3.org/1999/xlink">
    <title>png_browse_no</title>
    <g id="png_browse_no" stroke="none" stroke-width="1" fill="none" fill-rule="evenodd">
        <path d="M90.3465492,83.5537805 L93.9577852,87.1666687 C93.5752789,88.1121995 93.7673511,89.2358476 94.5340019,90.0024983 L97.7320192,93.1992185 C97.0925969,94.9935879 95.3798882,96.2765099 93.3676785,96.2761873 L65.6449553,96.2761873 C62.1217148,96.2761873 57.8184236,96.8629086 55.2475072,99.4975714 C54.8015592,99.9545768 54.3857234,100.145345 54,100.069876 L54,97.4473684 C58.6161342,94.6444596 63.6352799,92.1892102 69.0574373,90.0816201 C71.3903537,89.1748165 73.7353604,88.3566714 76.0924573,87.6271849 C76.9129798,87.7403246 77.7506224,87.7982143 78.6017857,87.7982143 C83.0612466,87.7982143 87.1495631,86.2091561 90.3313885,83.5663864 L90.3465492,83.5537805 Z M93.3684211,32.8424394 C95.8553173,32.8424394 97.8844247,34.8024663 97.995234,37.2620109 L98,37.4740183 L98.0009682,85.6594747 C97.2888361,85.2253028 96.414287,85.1619431 95.6547511,85.4693957 L92.0874287,81.9019188 L92.127422,81.8585621 C95.1350732,78.5875086 96.9714286,74.2224919 96.9714286,69.4285714 C96.9714286,61.7302938 92.2359682,55.1380423 85.5190779,52.4058473 L85.519,32.8420787 L93.3684211,32.8424394 Z" id="形状结合" fill="#A1A7B3" opacity="0.400000006"></path>
        <path d="M22.481,32.8420787 L22.48,64.1650787 L19.3504012,64.1657178 C19.1390144,64.1657178 18.9312638,64.2148086 18.7432192,64.3082229 L18.6061317,64.3865198 C17.9743322,64.7975684 17.7953783,65.6429639 18.206427,66.2747634 L19.2335225,67.8534533 C19.5279251,68.3059628 19.5279251,68.8894827 19.2335225,69.3419922 L18.206427,70.9206821 C18.0623294,71.1421662 17.985625,71.400718 17.985625,71.6649515 C17.985625,72.4186966 18.5966561,73.0297277 19.3504012,73.0297277 L22.48,73.0290787 L22.4801604,81.4987829 C22.481563,83.5589051 23.8416672,85.3607239 25.8014047,85.937041 L26.0136366,85.9940558 C30.363766,87.0596801 34.6734081,88.4222016 38.9425627,90.0816201 C44.3647201,92.1892102 49.3838658,94.6444596 54,97.4473684 L54,100.069876 C53.6142766,100.145345 53.1984408,99.9545768 52.7524928,99.4975714 C50.1815764,96.8629086 45.8782852,96.2761873 42.3550447,96.2761873 L14.6323215,96.2761873 C12.0743711,96.2765973 10.0004102,94.2033013 10,91.6417759 L10,37.4740183 L10.004766,37.2620109 C10.1155753,34.8024663 12.1446827,32.8424394 14.6315789,32.8424394 L22.481,32.8420787 Z" id="形状结合" fill="#A1A7B3" opacity="0.100000001"></path>
        <path d="M85.461038,21.3881813 C85.4999808,21.557682 85.5197055,21.7310302 85.5198396,21.904947 L85.5200739,52.4062524 C83.3847547,51.5375329 81.0491622,51.0589286 78.6017857,51.0589286 C68.4565121,51.0589286 60.2321429,59.2832978 60.2321429,69.4285714 C60.2321429,78.7226817 67.1343933,86.404685 76.0925806,87.6282678 C73.7353604,88.3566714 71.3903537,89.1748165 69.0574373,90.0816201 C63.6352799,92.1892102 58.6161342,94.6444596 54,97.4473684 L53.0713997,96.8914221 C48.7128552,94.3186382 44.0032429,92.0487042 38.9425627,90.0816201 C34.6734081,88.4222016 30.363766,87.0596801 26.0136366,85.9940558 C23.9405505,85.4890957 22.4816131,83.6324809 22.4801604,81.4987829 L22.4794658,73.0290387 L30.6649515,73.0297277 C31.3743586,73.0297277 31.9573478,72.4884683 32.0234801,71.7963886 L32.0297277,71.6649515 L32.0297277,65.5304939 C32.0297277,64.7767489 31.4186966,64.1657178 30.6649515,64.1657178 L22.4794658,64.1650387 L22.4801604,21.904947 C22.4802945,21.7310302 22.5000192,21.557682 22.538962,21.3881813 C22.8253453,20.1416813 24.0679927,19.363353 25.3143583,19.6503213 C35.6517476,22.0375864 42.7700632,23.8582476 46.6693051,25.1123047 C50.9152961,26.4778817 53.358861,29.4781558 54,34.1131271 C54.641139,29.4781558 57.0847039,26.4778817 61.3306949,25.1123047 C65.2299368,23.8582476 72.3482524,22.0375864 82.6856417,19.6503213 C83.9320073,19.363353 85.1746547,20.1416813 85.461038,21.3881813 Z M52.5720618,56.1418303 C51.8752815,55.8603128 51.0822144,56.1969498 50.8006969,56.8937301 C50.5191794,57.5905104 50.8558164,58.3835774 51.5525967,58.6650949 L58.141121,61.3270315 C58.8379013,61.6085491 59.6309684,61.2719121 59.9124859,60.5751318 C60.1940034,59.8783515 59.8573664,59.0852844 59.1605861,58.8037669 Z M58.1935483,47.8097732 C57.5933724,47.3575082 56.7402003,47.4774137 56.2879353,48.0775897 C55.8356702,48.6777657 55.9555758,49.5309377 56.5557517,49.9832027 L62.2308176,54.2596716 C62.8309936,54.7119367 63.6841656,54.5920312 64.1364307,53.9918552 C64.5886957,53.3916792 64.4687902,52.5385072 63.8686142,52.0862421 Z M64.7051188,41.2111086 C64.2424481,40.6189171 63.3873134,40.5139198 62.795122,40.9765904 C62.2029305,41.4392611 62.0979332,42.2943958 62.5606038,42.8865873 L66.935465,48.4861542 C67.3981356,49.0783456 68.2532704,49.183343 68.8454618,48.7206723 C69.4376533,48.2580016 69.5426506,47.4028669 69.07998,46.8106755 Z" id="形状结合" fill="#A1A7B3" opacity="0.200000003"></path>
        <path d="M85.461038,21.3881813 C85.4999808,21.557682 85.5197055,21.7310302 85.5198396,21.904947 L85.5190779,52.4058473 C83.3840285,51.5373841 81.0487817,51.0589286 78.6017857,51.0589286 C68.4565121,51.0589286 60.2321429,59.2832978 60.2321429,69.4285714 C60.2321429,78.7226817 67.1343933,86.404685 76.0925806,87.6282678 C73.7353604,88.3566714 71.3903537,89.1748165 69.0574373,90.0816201 C63.6352799,92.1892102 58.6161342,94.6444596 54,97.4473684 L53.9992545,59.6530387 L58.141121,61.3270315 C58.7943525,61.5909542 59.5322111,61.311577 59.853855,60.7014947 L59.9124859,60.5751318 C60.1940034,59.8783515 59.8573664,59.0852844 59.1605861,58.8037669 L53.9992545,56.7180387 L54,34.1131271 C54.641139,29.4781558 57.0847039,26.4778817 61.3306949,25.1123047 C65.2299368,23.8582476 72.3482524,22.0375864 82.6856417,19.6503213 C83.9320073,19.363353 85.1746547,20.1416813 85.461038,21.3881813 Z M58.1935483,47.8097732 C57.5933724,47.3575082 56.7402003,47.4774137 56.2879353,48.0775897 C55.8356702,48.6777657 55.9555758,49.5309377 56.5557517,49.9832027 L62.2308176,54.2596716 C62.8309936,54.7119367 63.6841656,54.5920312 64.1364307,53.9918552 C64.5886957,53.3916792 64.4687902,52.5385072 63.8686142,52.0862421 Z M64.7051188,41.2111086 C64.2424481,40.6189171 63.3873134,40.5139198 62.795122,40.9765904 C62.2029305,41.4392611 62.0979332,42.2943958 62.5606038,42.8865873 L66.935465,48.4861542 C67.3981356,49.0783456 68.2532704,49.183343 68.8454618,48.7206723 C69.4376533,48.2580016 69.5426506,47.4028669 69.07998,46.8106755 Z" id="形状结合" fill="#A1A7B3" opacity="0.100000001"></path>
        <path d="M21.3647761,61 L27.4992337,61 C28.2529788,61 28.8640098,61.6110311 28.8640098,62.3647761 L28.8640098,73.6793265 C28.8640098,74.4330715 28.2529788,75.0441026 27.4992337,75.0441026 C27.2350002,75.0441026 26.9764484,74.9673982 26.7549643,74.8233006 L25.1762744,73.7962052 C24.7237649,73.5018025 24.140245,73.5018025 23.6877355,73.7962052 L22.1090456,74.8233006 C21.4772461,75.2343493 20.6318506,75.0553954 20.220802,74.4235959 C20.0767044,74.2021118 20,73.94356 20,73.6793265 L20,62.3647761 C20,61.6110311 20.6110311,61 21.3647761,61 Z" id="矩形" fill="#A1A7B3" opacity="0.300000012" transform="translate(24.432005, 68.597723) rotate(-270.000000) translate(-24.432005, -68.597723) "></path>
        <path d="M92.0874287,81.9019188 L95.6547511,85.4693957 C96.6003891,85.0866108 97.7243064,85.2786134 98.4910966,86.0454036 L107.732305,95.286612 C108.755235,96.3095415 108.755235,97.9680381 107.732305,98.9909676 L107.479566,99.2437067 C106.456636,100.266636 104.79814,100.266636 103.77521,99.2437067 L94.5340019,90.0024983 C93.7673511,89.2358476 93.5752789,88.1121995 93.9577852,87.1666687 L90.3465492,83.5537805 C90.9621655,83.0413484 91.5437547,82.4894318 92.0874287,81.9019188 Z" id="形状结合" fill="#A1A7B3" opacity="0.800000012"></path>
        <path d="M78.6017857,51.0589286 C88.7470593,51.0589286 96.9714286,59.2832978 96.9714286,69.4285714 C96.9714286,79.573845 88.7470593,87.7982143 78.6017857,87.7982143 C68.4565121,87.7982143 60.2321429,79.573845 60.2321429,69.4285714 C60.2321429,59.2832978 68.4565121,51.0589286 78.6017857,51.0589286 Z M78.6017857,55.1410714 C70.7110174,55.1410714 64.3142857,61.5378031 64.3142857,69.4285714 C64.3142857,77.3193398 70.7110174,83.7160714 78.6017857,83.7160714 C86.4925541,83.7160714 92.8892857,77.3193398 92.8892857,69.4285714 C92.8892857,61.5378031 86.4925541,55.1410714 78.6017857,55.1410714 Z" id="形状结合" fill="#A1A7B3" opacity="0.600000024"></path>
        <circle id="椭圆形" fill="#A1A7B3" opacity="0.400000006" cx="78.6017857" cy="69.4285714" r="14.2875"></circle>
        <rect id="矩形" fill="#A1A7B3" opacity="0.300000012" transform="translate(87.271157, 70.215470) rotate(-255.000000) translate(-87.271157, -70.215470) " x="83.1890141" y="69.535113" width="8.16428571" height="1.36071429" rx="0.680357143"></rect>
        <rect id="矩形备份" fill="#A1A7B3" opacity="0.300000012" transform="translate(85.230086, 65.452970) rotate(-255.000000) translate(-85.230086, -65.452970) " x="83.1890141" y="64.772613" width="4.08214286" height="1.36071429" rx="0.680357143"></rect>
        <path d="M50.2731589,47.2198109 C50.9990539,47.0253079 51.7451838,47.4560862 51.9396868,48.1819812 L53.7788426,55.0458041 C53.9733456,55.7716991 53.5425673,56.517829 52.8166723,56.712332 C52.0907774,56.9068349 51.3446474,56.4760566 51.1501445,55.7501617 L49.3109886,48.8863387 C49.1164857,48.1604438 49.547264,47.4143139 50.2731589,47.2198109 Z M60.6163442,46.2964286 C61.3678459,46.2964286 61.9770585,46.9056411 61.9770585,47.6571429 L61.9770585,54.7630952 C61.9770585,55.514597 61.3678459,56.1238095 60.6163442,56.1238095 C59.8648424,56.1238095 59.2556299,55.514597 59.2556299,54.7630952 L59.2556299,47.6571429 C59.2556299,46.9056411 59.8648424,46.2964286 60.6163442,46.2964286 Z M70.2035771,47.2198109 C70.929472,47.4143139 71.3602503,48.1604438 71.1657474,48.8863387 L69.3265916,55.7501617 C69.1320886,56.4760566 68.3859587,56.9068349 67.6600637,56.712332 C66.9341688,56.517829 66.5033904,55.7716991 66.6978934,55.0458041 L68.5370492,48.1819812 C68.7315522,47.4560862 69.4776821,47.0253079 70.2035771,47.2198109 Z" id="形状结合" fill="#A1A7B3" opacity="0.600000024" transform="translate(60.238368, 51.527732) rotate(-53.000000) translate(-60.238368, -51.527732) "></path>
    </g>
</svg>