<?xml version="1.0" encoding="UTF-8"?>
<svg width="120px" height="120px" viewBox="0 0 120 120" version="1.1" xmlns="http://www.w3.org/2000/svg" xmlns:xlink="http://www.w3.org/1999/xlink">
    <title>png_Favorites_no</title>
    <g id="png_Favorites_no" stroke="none" stroke-width="1" fill="none" fill-rule="evenodd">
        <path d="M21.2487343,93.7266122 L21.25,95.5199801 C21.25,96.6499958 22.1263596,97.5753569 23.2364543,97.653687 L23.3892193,97.6590578 L97.7221684,97.6590578 C98.852184,97.6590578 99.7775452,96.7828278 99.8558752,95.6727443 L99.8612461,95.5199801 L99.8614577,94.3459962 C101.567938,95.10202 102.5,95.9195025 102.5,96.772631 C102.5,97.7777892 101.206148,98.7334652 98.8762739,99.5974409 L98.3203371,99.7951729 L98.3203371,99.7951729 L97.7283227,99.989534 C97.4234134,100.085853 97.105239,100.180864 96.7741957,100.274503 L96.0950676,100.459932 C95.8630502,100.521119 95.6254307,100.581677 95.3823263,100.641587 L94.6366759,100.819352 L94.6366759,100.819352 L93.8588206,100.993112 L93.8588206,100.993112 L93.0494644,101.162752 L93.0494644,101.162752 L92.2093116,101.328156 L92.2093116,101.328156 L91.3390662,101.489209 C91.1915567,101.515682 91.0428227,101.541969 90.8928788,101.568068 L89.9788149,101.722378 L89.9788149,101.722378 L89.0364187,101.87205 C88.8770308,101.896602 88.7164917,101.920956 88.5548161,101.94511 L87.5712419,102.087606 L87.5712419,102.087606 L86.5610958,102.225175 L86.5610958,102.225175 L85.525082,102.357701 L85.525082,102.357701 L84.4639046,102.485069 L84.4639046,102.485069 L83.3782677,102.607164 L83.3782677,102.607164 L81.7054912,102.780166 L81.7054912,102.780166 L80.5617863,102.888574 L80.5617863,102.888574 L79.3960863,102.991304 L79.3960863,102.991304 L78.2090955,103.088242 L78.2090955,103.088242 L77.001518,103.179272 L77.001518,103.179272 L75.7740579,103.26428 L75.7740579,103.26428 L74.5274193,103.34315 L74.5274193,103.34315 L73.2623065,103.415766 L73.2623065,103.415766 L71.9794234,103.482014 L71.9794234,103.482014 L70.02332,103.569192 L70.02332,103.569192 L68.6990921,103.619014 L68.6990921,103.619014 L67.3595585,103.662064 L67.3595585,103.662064 L66.0054233,103.698226 L66.0054233,103.698226 L64.6373906,103.727385 L64.6373906,103.727385 L63.2561647,103.749426 L63.2561647,103.749426 L61.8624496,103.764234 L61.8624496,103.764234 L60.4569494,103.771693 L60.4569494,103.771693 L59.0430506,103.771693 L59.0430506,103.771693 L57.6375504,103.764234 L57.6375504,103.764234 L56.2438353,103.749426 L56.2438353,103.749426 L54.8626094,103.727385 L54.8626094,103.727385 L53.4945767,103.698226 L53.4945767,103.698226 L52.1404415,103.662064 L52.1404415,103.662064 L50.8009079,103.619014 L50.8009079,103.619014 L49.47668,103.569192 L49.47668,103.569192 L47.5205766,103.482014 L47.5205766,103.482014 L45.6028718,103.380247 L45.6028718,103.380247 L44.3469081,103.304489 L44.3469081,103.304489 L43.1097707,103.222536 L43.1097707,103.222536 L41.8921639,103.134503 L41.8921639,103.134503 L40.6947917,103.040504 L40.6947917,103.040504 L39.5183583,102.940655 L39.5183583,102.940655 L38.3635679,102.835072 L38.3635679,102.835072 L36.673503,102.666198 L36.673503,102.666198 L35.0360954,102.485069 L35.0360954,102.485069 L33.974918,102.357701 L33.974918,102.357701 L32.9389042,102.225175 L32.9389042,102.225175 L31.9287581,102.087606 L31.9287581,102.087606 L30.9451839,101.94511 C30.7835083,101.920956 30.6229692,101.896602 30.4635813,101.87205 L29.5211851,101.722378 L29.5211851,101.722378 L28.6071212,101.568068 L28.6071212,101.568068 L27.7220936,101.409234 C27.5770478,101.382391 27.4332412,101.355364 27.2906884,101.328156 L26.4505356,101.162752 L26.4505356,101.162752 L25.6411794,100.993112 L25.6411794,100.993112 L24.8633241,100.819352 L24.8633241,100.819352 L24.1176737,100.641587 C23.9961215,100.611632 23.8759405,100.581515 23.7571454,100.551239 L23.0611227,100.367682 C22.6083511,100.244059 22.178223,100.117959 21.7716773,99.989534 L21.1796629,99.7951729 L21.1796629,99.7951729 L20.6237261,99.5974409 C18.2938523,98.7334652 17,97.7777892 17,96.772631 C17,95.6808851 18.526367,94.6475138 21.2487343,93.7266122 Z" id="路径" fill="#A1A7B3" opacity="0.15"></path>
        <path d="M86.0156348,54.4016893 L99.6025248,70.1967595 C99.748568,70.3665462 99.8370976,70.5772335 99.8569481,70.7987185 L99.8612461,70.9205869 L99.8612461,95.5199801 C99.8612461,96.7013601 98.9035484,97.6590578 97.7221684,97.6590578 L23.3892193,97.6590578 C22.2078393,97.6590578 21.2497481,96.7013601 21.2497481,95.5199801 L21.2497481,70.9205869 C21.2465973,70.6992823 21.3095551,70.4756356 21.4433655,70.2836764 L21.5050634,70.2034475 L34.5065338,54.8356923 C36.3445143,67.3950549 47.1617148,77.0382067 60.231194,77.0382067 C73.4508199,77.0382067 84.3661198,67.1722146 86.0156348,54.4016893 Z M85.2133407,58.5571705 C82.0607677,69.3667438 72.0776909,77.2644753 60.25,77.2644753 C48.7171994,77.2644753 38.938179,69.75565 35.5351215,59.3601822 L35.4176686,58.9920923 L27.2883876,69.435092 L27.2373038,69.5064896 C26.9581464,69.9321648 27.0199255,70.4963569 27.379366,70.8517462 L27.4754024,70.9360424 L27.5477884,70.9877048 C27.6864387,71.0782038 27.8441094,71.1351965 28.0082489,71.1543736 L28.1323702,71.1615987 L37.7592404,71.1615987 L37.7596974,78.5804799 C37.7596974,79.4172907 38.4003794,80.1044622 39.2179809,80.1782319 L39.3640057,80.1847882 L83.7498674,80.1847882 C84.5866782,80.1847882 85.2738497,79.5441061 85.3476193,78.7265047 L85.3541756,78.5804799 L85.3537186,71.1615987 L92.9789247,71.1615987 L93.0587456,71.1586651 C93.6121571,71.1178359 94.0484635,70.6559003 94.0484635,70.0920599 C94.0484635,69.899301 93.9963934,69.71106 93.899003,69.5467408 L93.8175682,69.42829 L85.2133407,58.5571705 Z" id="形状" fill="#A1A7B3" opacity="0.400000006"></path>
        <path d="M85.2133407,58.5571705 L93.8175682,69.42829 C93.967104,69.6172218 94.0484635,69.8511113 94.0484635,70.0920599 C94.0484635,70.6559003 93.6121571,71.1178359 93.0587456,71.1586651 L92.9789247,71.1615987 L85.3537186,71.1615987 L85.3541756,78.5804799 C85.3541756,79.4665149 84.6359024,80.1847882 83.7498674,80.1847882 L39.3640057,80.1847882 C38.4779707,80.1847882 37.7596974,79.4665149 37.7596974,78.5804799 L37.7592404,71.1615987 L28.1323702,71.1615987 C27.9241335,71.1615987 27.7211013,71.1008285 27.5477884,70.9877048 L27.4754024,70.9360424 C27.0325896,70.5913508 26.9348832,69.9676377 27.2373038,69.5064896 L27.2883876,69.435092 L35.4176686,58.9920923 C38.7083271,69.5779325 48.5815194,77.2644753 60.25,77.2644753 C72.0776909,77.2644753 82.0607677,69.3667438 85.2133407,58.5571705 Z" id="路径" fill="#A1A7B3" opacity="0.600000024"></path>
        <path d="M70.1929308,56.6867429 L70.2074151,56.7852666 L71.609652,65.0538773 C71.8953508,66.7641396 70.1545474,68.0750641 68.6269537,67.3328891 L68.5532136,67.2953681 L63.1376392,64.4171982 C63.8600709,63.7992217 64.6079997,63.0424096 65.3814258,62.146762 C66.6146738,60.7186284 68.2787773,58.5136327 70.3732458,55.5299321 C70.3782395,55.5190842 70.3833251,55.5082759 70.388502,55.4975084 C70.2125816,55.8637842 70.1423288,56.2762427 70.1929308,56.6867429 Z M62.0689332,35.435639 L62.1116876,35.5187763 L65.7816046,43.0374561 C66.0744013,43.6397153 66.6292176,44.0604322 67.2745499,44.1864868 L67.3673375,44.2024779 L75.5835696,45.411776 C77.2802216,45.6594008 77.9758489,47.7372721 76.8111063,48.9773507 L76.7502746,49.0396705 L70.8154162,54.900754 C67.1341971,58.1011363 62.9306388,61.1151886 58.2047412,63.9429108 L58.2106873,63.9386918 L51.898911,67.2898336 C50.3787776,68.0959445 48.6040052,66.8276426 48.829968,65.1307767 L48.8424726,65.0483427 L50.2447096,56.7797321 C50.351651,56.1182221 50.1555296,55.4516922 49.7060278,54.9665993 L49.6367084,54.8952194 L43.6881563,49.0396705 C42.4601035,47.8314792 43.1069857,45.7375986 44.7694577,45.4286988 L44.8548613,45.4145433 L53.0710934,44.2107797 C53.7231754,44.1132663 54.2932813,43.7120431 54.6134372,43.1338054 L54.659565,43.0457579 L58.3349595,35.5187763 C59.0934938,33.96688 61.2601102,33.9391675 62.0689332,35.435639 Z" id="形状结合" fill-opacity="0.8" fill="#A1A7B3" fill-rule="nonzero"></path>
        <path d="M70.8154162,54.900754 C70.6286734,55.0842582 70.4799871,55.2980588 70.3732458,55.5299321 C68.2787773,58.5136327 66.6146738,60.7186284 65.3814258,62.146762 C64.6072908,63.0432306 63.8586998,63.8006089 63.1356528,64.4188971 L61.2051633,63.3907464 C60.6197568,63.0805352 59.9280664,63.0650246 59.3367278,63.3442147 L59.2442226,63.3907464 L58.2047412,63.9429108 C62.9306388,61.1151886 67.1341971,58.1011363 70.8154162,54.900754 Z" id="形状结合" fill-opacity="0.6" fill="#A1A7B3" fill-rule="nonzero"></path>
        <path d="M60.25,25.2644753 C74.6094035,25.2644753 86.25,36.9050718 86.25,51.2644753 C86.25,65.6238788 74.6094035,77.2644753 60.25,77.2644753 C45.8905965,77.2644753 34.25,65.6238788 34.25,51.2644753 C34.25,36.9050718 45.8905965,25.2644753 60.25,25.2644753 Z M62.0689332,35.435639 C61.2601102,33.9391675 59.0934938,33.96688 58.3349595,35.5187763 L54.659565,43.0457579 L54.6134372,43.1338054 C54.2932813,43.7120431 53.7231754,44.1132663 53.0710934,44.2107797 L44.8548613,45.4145433 L44.7694577,45.4286988 C43.1069857,45.7375986 42.4601035,47.8314792 43.6881563,49.0396705 L49.6367084,54.8952194 L49.7060278,54.9665993 C50.1555296,55.4516922 50.351651,56.1182221 50.2447096,56.7797321 L48.8424726,65.0483427 L48.829968,65.1307767 C48.6040052,66.8276426 50.3787776,68.0959445 51.898911,67.2898336 L59.2442226,63.3907464 L59.3367278,63.3442147 C59.9280664,63.0650246 60.6197568,63.0805352 61.2051633,63.3907464 L68.5532136,67.2953681 L68.6269537,67.3328891 C70.1545474,68.0750641 71.8953508,66.7641396 71.609652,65.0538773 L70.2074151,56.7852666 L70.1929308,56.6867429 C70.111913,56.0295 70.3407006,55.3672371 70.8154162,54.900754 L76.7502746,49.0396705 L76.8111063,48.9773507 C77.9758489,47.7372721 77.2802216,45.6594008 75.5835696,45.411776 L67.3673375,44.2024779 L67.2745499,44.1864868 C66.6292176,44.0604322 66.0744013,43.6397153 65.7816046,43.0374561 L62.1116876,35.5187763 Z" id="形状结合" fill-opacity="0.3" fill="#A1A7B3"></path>
        <path d="M92.8064204,31.6306553 L86.4560706,34.8663201 C85.7844788,35.2085132 85.5174485,36.0303482 85.8596416,36.7019399 C86.2018346,37.3735316 87.0236696,37.640562 87.6952614,37.2983689 L94.0456112,34.0627041 C94.7172029,33.720511 94.9842333,32.898676 94.6420402,32.2270843 C94.2998471,31.5554925 93.4780121,31.2884622 92.8064204,31.6306553 Z M81.2661783,17.3716847 C80.6340345,16.9611657 79.7887894,17.1408281 79.3782704,17.7729719 L75.4965386,23.7503147 C75.0860196,24.3824585 75.265682,25.2277037 75.8978258,25.6382226 C76.5299696,26.0487416 77.3752147,25.8690792 77.7857337,25.2369354 L81.6674655,19.2595926 C82.0779845,18.6274488 81.8983221,17.7822037 81.2661783,17.3716847 Z M88.388694,23.8979472 C87.8843401,23.3378055 87.021396,23.2925805 86.4612542,23.7969344 L81.1647391,28.5659381 C80.6045973,29.0702919 80.5593723,29.9332361 81.0637262,30.4933778 C81.5680801,31.0535196 82.4310243,31.0987446 82.991166,30.5943907 L88.2876812,25.825387 C88.8478229,25.3210331 88.8930479,24.4580889 88.388694,23.8979472 Z" id="形状" fill="#A1A7B3" opacity="0.2"></path>
        <path d="M27.6798671,31.6306553 L34.0302169,34.8663201 C34.7018086,35.2085132 34.968839,36.0303482 34.6266459,36.7019399 C34.2844528,37.3735316 33.4626178,37.640562 32.7910261,37.2983689 L26.4406763,34.0627041 C25.7690846,33.720511 25.5020542,32.898676 25.8442473,32.2270843 C26.1864404,31.5554925 27.0082753,31.2884622 27.6798671,31.6306553 Z M39.2201091,17.3716847 C39.8522529,16.9611657 40.6974981,17.1408281 41.1080171,17.7729719 L44.9897489,23.7503147 C45.4002678,24.3824585 45.2206054,25.2277037 44.5884617,25.6382226 C43.9563179,26.0487416 43.1110727,25.8690792 42.7005537,25.2369354 L38.8188219,19.2595926 C38.408303,18.6274488 38.5879654,17.7822037 39.2201091,17.3716847 Z M32.0975934,23.8979472 C32.6019473,23.3378055 33.4648915,23.2925805 34.0250332,23.7969344 L39.3215484,28.5659381 C39.8816901,29.0702919 39.9269151,29.9332361 39.4225612,30.4933778 C38.9182074,31.0535196 38.0552632,31.0987446 37.4951215,30.5943907 L32.1986063,25.825387 C31.6384646,25.3210331 31.5932396,24.4580889 32.0975934,23.8979472 Z" id="形状" fill="#A1A7B3" opacity="0.2"></path>
    </g>
</svg>