<?xml version="1.0" encoding="UTF-8"?>
<svg width="24px" height="24px" viewBox="0 0 24 24" version="1.1" xmlns="http://www.w3.org/2000/svg" xmlns:xlink="http://www.w3.org/1999/xlink">
    <title>ic_  personalizationxxxhdpi</title>
    <defs>
        <rect id="path-1" x="0" y="0" width="24" height="24"></rect>
    </defs>
    <g id="ic_--personalization" stroke="none" stroke-width="1" fill="none" fill-rule="evenodd">
        <mask id="mask-2" fill="white">
            <use xlink:href="#path-1"></use>
        </mask>
        <g id="蒙版"></g>
        <path d="M11.2692086,1.315111 C11.5836116,1.25604634 11.920547,1.31692236 12.2054932,1.51173892 L15.434858,6.08413252 L20.3701181,7.53293951 C20.7013197,7.63016785 20.9617569,7.85243756 21.1150866,8.13320057 C21.2684163,8.41396358 21.3146385,8.75321989 21.2174102,9.08442146 L17.8667341,13.5686773 L18.013916,18.7100946 C18.0237932,19.0551312 17.8928817,19.3715068 17.6732417,19.6040925 C17.4536017,19.8366783 17.1452332,19.9854742 16.8001966,19.9953514 L11.5,18.1943804 L6.65570332,19.923144 C6.33060624,20.03916 5.98926129,20.0124212 5.7001866,19.8754041 C5.41111191,19.7383869 5.17430749,19.4910916 5.05829148,19.1659945 L5.13326594,13.5686773 L1.99214403,9.49569472 C1.78134571,9.22235994 1.70129446,8.88945884 1.74227649,8.57219186 C1.78325852,8.25492488 1.94527382,7.95329202 2.21860859,7.7424937 L7.56514195,6.08413252 L10.4681185,1.83812722 C10.6629351,1.55318102 10.9548056,1.37417567 11.2692086,1.315111 Z" id="星形" stroke="#FFFFFF" stroke-width="1.5" mask="url(#mask-2)" transform="translate(11.500000, 11.500000) rotate(-45.000000) translate(-11.500000, -11.500000) "></path>
        <g id="编组-27" mask="url(#mask-2)" stroke="#FFFFFF" stroke-linecap="round" stroke-width="1.5">
            <g transform="translate(11.852738, 11.590848) rotate(-45.000000) translate(-11.852738, -11.590848) translate(8.352738, 9.413546)">
                <line x1="0.5" y1="-4.54747351e-13" x2="0.5" y2="1" id="路径-5"></line>
                <line x1="6.5" y1="4.54747351e-13" x2="6.5" y2="1" id="路径-5备份-2"></line>
                <path d="M1.95301622,3.4478887 C2.24219235,4.05236608 2.71508006,4.35460477 3.37167933,4.35460477 C4.0282786,4.35460477 4.5191109,4.05236608 4.84417622,3.4478887" id="路径-6"></path>
            </g>
        </g>
        <line x1="18.5647361" y1="18.2450969" x2="22.8305123" y2="22.5108731" id="路径-19" stroke="#FFFFFF" stroke-width="1.5" stroke-linecap="round" mask="url(#mask-2)"></line>
    </g>
</svg>