<?xml version="1.0" encoding="UTF-8"?>
<svg width="24px" height="24px" viewBox="0 0 24 24" version="1.1" xmlns="http://www.w3.org/2000/svg" xmlns:xlink="http://www.w3.org/1999/xlink">
    <title>ic_more备份 8</title>
    <g id="ic_more备份-8" stroke="none" stroke-width="1" fill="none" fill-rule="evenodd">
        <path d="M21.5118024,3.25 C21.6134543,4.11748868 21.3452336,4.7150242 20.7071402,5.04260656 C19.75,5.53398009 19.2179784,5.06981151 19.2088154,7.60275727 C19.2078756,7.86254658 19.2070804,8.1517974 19.2064297,8.47050972 L19.2055622,8.97067435 L19.2052098,9.23732876 L19.204,9.59 L19.2099888,18.350426 C19.0599437,20.0459745 17.8107508,21.3434102 16.268538,21.6494381 C14.6235717,21.9758559 12.75,21.0822922 12.75,19.1862941 C12.75,17.2902961 14.4241299,16.4813359 15.3281109,16.1346787 C15.8484403,15.9351436 17.7085,15.3368011 17.7085,14.4310518 L17.713,12.5 L17.719,10.254 L17.721,9.5903197 L17.723,9.59 L17.7441387,5.29242777 C17.7475987,4.59409322 18.2325189,3.99052941 18.9137094,3.83670265 L21.5118024,3.25 Z M17.7251037,16.6973009 C17.5360981,16.8133505 17.3325738,16.9222036 17.1143311,17.0268105 C16.8704902,17.1436869 16.6206262,17.2492388 16.346979,17.3549087 C16.3119193,17.3684472 16.2649258,17.386238 16.2139945,17.405371 L16.0573836,17.4638862 C15.9557626,17.5017004 15.8703755,17.5332423 15.865192,17.53523 C14.8010225,17.943316 14.25,18.443585 14.25,19.1862941 C14.25,19.8943722 15.0129711,20.3693386 15.9765792,20.1781258 C16.981502,19.9787146 17.7251037,19.0906458 17.7251037,18.0063898 L17.7251037,16.6973009 Z" id="形状结合" fill="#376668" fill-rule="nonzero"></path>
        <path d="M3,9.5 L14.25,9.5 C14.6642136,9.5 15,9.83578644 15,10.25 C15,10.6642136 14.6642136,11 14.25,11 L3,11 C2.58578644,11 2.25,10.6642136 2.25,10.25 C2.25,9.83578644 2.58578644,9.5 3,9.5 Z" id="矩形备份" fill="#376668"></path>
        <path d="M3,3 L14.25,3 C14.6642136,3 15,3.33578644 15,3.75 C15,4.16421356 14.6642136,4.5 14.25,4.5 L3,4.5 C2.58578644,4.5 2.25,4.16421356 2.25,3.75 C2.25,3.33578644 2.58578644,3 3,3 Z" id="矩形备份-2" fill="#376668"></path>
        <path d="M3,15.5 L10,15.5 C10.4142136,15.5 10.75,15.8357864 10.75,16.25 C10.75,16.6642136 10.4142136,17 10,17 L3,17 C2.58578644,17 2.25,16.6642136 2.25,16.25 C2.25,15.8357864 2.58578644,15.5 3,15.5 Z" id="矩形备份-3" fill="#376668"></path>
    </g>
</svg>