<?xml version="1.0" encoding="UTF-8"?>
<svg width="24px" height="24px" viewBox="0 0 24 24" version="1.1" xmlns="http://www.w3.org/2000/svg" xmlns:xlink="http://www.w3.org/1999/xlink">
    <title>Public/ic_public_history</title>
    <defs>
        <path d="M1.6585231,15.7576235 C1.6585231,15.7576235 1.6585231,15.7576235 1.6585231,15.7576235 C1.2324059,14.58516 1,13.3197207 1,12 L3.85188895,12 C4.12803133,12 4.35188895,12.2238576 4.35188895,12.5 C4.35188895,12.5930667 4.32591424,12.6842863 4.27688806,12.7633928 L2.37525372,15.831787 C2.25875315,16.0197728 2.0119174,16.0777198 1.82393313,15.9612167 C1.74750189,15.9138485 1.68923756,15.8421345 1.6585231,15.7576235 Z M1.17630502,13.9714637 C1.05930655,13.3251822 1,12.6661847 1,12 C1,5.92486775 5.92486775,1 12,1 C12.7825368,1 13.55498,1.08183322 14.3082773,1.24274766 C19.3440943,2.31846601 23,6.78563595 23,12 C23,18.0751322 18.0751322,23 12,23 C10.9082565,23 9.83703238,22.8407032 8.81152695,22.530585 C7.29798993,22.0728837 5.90520565,21.2926603 4.72336629,20.2494437 C4.41282767,19.9753294 4.38329989,19.5013746 4.65741417,19.190836 C4.93152845,18.8802974 5.40548327,18.8507696 5.7160219,19.1248839 C6.73707421,20.0261728 7.93963138,20.6998329 9.24571587,21.0947995 C10.1308045,21.3624549 11.0557546,21.5 12,21.5 C17.2467051,21.5 21.5,17.2467051 21.5,12 C21.5,7.496884 18.3421377,3.63827588 13.9949266,2.70965302 C13.3444703,2.57070679 12.677052,2.5 12,2.5 C6.75329488,2.5 2.5,6.75329488 2.5,12 C2.5,12.5764741 2.55125879,13.1460473 2.65231335,13.7042571 C2.72610043,14.1118455 2.45550096,14.5020775 2.04791251,14.5758645 C1.64032406,14.6496516 1.2500921,14.3790522 1.17630502,13.9714637 Z M12,5 C12.4142136,5 12.75,5.33578644 12.75,5.75 L12.75,12 C12.75,12.4142136 12.4142136,12.75 12,12.75 C11.5857864,12.75 11.25,12.4142136 11.25,12 L11.25,5.75 C11.25,5.33578644 11.5857864,5 12,5 Z M13.6355698,12.6237513 L17.6675144,16.6568542 C17.9604076,16.9497475 17.9604076,17.4246212 17.6675144,17.7175144 C17.3746212,18.0104076 16.8997475,18.0104076 16.6068542,17.7175144 L12.5511741,13.6614355 C13.0498871,13.4960746 13.4490911,13.1124411 13.6355698,12.6237513 Z M12.5409903,11.5303301 L12.7496841,11.7386602 L12.75,12 C12.75,12.4142136 12.4142136,12.75 12,12.75 C11.6348942,12.75 11.3307218,12.4891133 11.2637303,12.1435875 C11.2411709,11.9246857 11.3128894,11.6977708 11.4803301,11.5303301 C11.7732233,11.2374369 12.248097,11.2374369 12.5409903,11.5303301 Z" id="path-1"></path>
    </defs>
    <g id="Public/ic_public_history" stroke="none" stroke-width="1" fill="none" fill-rule="evenodd">
        <mask id="mask-2" fill="white">
            <use xlink:href="#path-1"></use>
        </mask>
        <g id="形状结合" fill-rule="nonzero"></g>
        <g id="编组" mask="url(#mask-2)" fill="#000000" fill-opacity="0.9">
            <g id="color/#000000">
                <rect x="0" y="0" width="24" height="24"></rect>
            </g>
        </g>
    </g>
</svg>