<?xml version="1.0" encoding="UTF-8"?>
<svg width="24px" height="24px" viewBox="0 0 24 24" version="1.1" xmlns="http://www.w3.org/2000/svg" xmlns:xlink="http://www.w3.org/1999/xlink">
    <title>ic_eye_closexxxhdpi</title>
    <defs>
        <path d="M3.24433269,2.18592862 L3.28033009,2.21966991 L21.7803301,20.7196699 C22.0732233,21.0125631 22.0732233,21.4874369 21.7803301,21.7803301 C21.4991526,22.0615076 21.0502619,22.0727547 20.7556673,21.8140714 L20.7196699,21.7803301 L16.8721008,17.932592 C15.3324474,18.6243412 13.6700217,19 12,19 C7.6616265,19 3.34195001,16.4588234 1.1237988,12.4261126 C0.958720986,12.1259928 0.958734525,11.7622639 1.12383468,11.4621564 C2.22017457,9.46930648 3.82685023,7.86720015 5.69590623,6.75670025 L2.21966991,3.28033009 C1.9267767,2.98743687 1.9267767,2.51256313 2.21966991,2.21966991 C2.5008474,1.93849242 2.94973814,1.92724532 3.24433269,2.18592862 Z M2.6270143,11.855814 L2.57475,11.94425 L2.62906687,12.0363214 C4.20829156,14.682087 6.85453152,16.5732705 9.73508149,17.238259 C7.96961792,16.3923274 6.75,14.5885922 6.75,12.5 C6.75,11.9635357 6.83046337,11.4458645 6.9799799,10.9583969 C7.05366048,10.7181766 7.27572261,10.7770121 7.3241015,10.9659401 C7.58677335,11.9917192 8.51733369,12.75 9.625,12.75 C10.201929,12.75 10.7308116,12.5442893 11.1423007,12.2022152 L6.79486267,7.85576427 C5.10284139,8.78587388 3.64173689,10.1577737 2.6270143,11.855814 Z M14.2654924,17.2373858 L14.5117917,17.1777816 C14.9230064,17.0721181 15.3287239,16.9413925 15.7265286,16.7869819 L15.4217087,16.4818804 C15.0731107,16.7817122 14.6847015,17.036551 14.2654924,17.2373858 Z M11.9855652,5 C16.3241739,5 20.6294483,7.43580293 22.8461207,11.4681793 C23.0110287,11.7681655 23.0110272,12.1316601 22.8461169,12.4316451 C21.9169357,14.1218985 20.622921,15.5497164 19.1132976,16.6379205 L18.0366544,15.561523 C19.3555913,14.6523638 20.4980275,13.4559114 21.3406926,12.0424401 L21.395,11.95 L21.3427165,11.8611806 C19.3982331,8.6048523 15.8133859,6.54561308 12.1090841,6.50074831 L11.9855652,6.5 C11.0839296,6.5 10.1885641,6.61938777 9.32124627,6.84647433 L8.11784946,5.64302867 C9.3660598,5.22201139 10.6741502,5 11.9855652,5 Z M12,7.25 L12.2164046,7.25437905 C15.0155511,7.36786837 17.25,9.67299244 17.25,12.5 C17.25,12.639781 17.2456993,12.7637607 17.2371876,12.8731375 C17.1991898,13.4128088 17.0793591,13.9312499 16.8898895,14.4147476 L10.0849199,7.6102408 C10.1876906,7.56995961 10.2920404,7.53282481 10.3978507,7.49895493 C10.4034478,7.49733403 10.4100403,7.49502721 10.4168532,7.49287563 L10.523457,7.46048776 C10.5414874,7.4552137 10.5595579,7.45003377 10.5776681,7.44494854 L10.4168532,7.49287563 C10.5266282,7.45820774 10.6379617,7.42704833 10.7507223,7.39952944 L10.8001557,7.38773526 C10.8415571,7.37805619 10.8831468,7.36886707 10.9249186,7.36017433 L10.7507223,7.39952944 C10.8643833,7.37179081 10.9794942,7.34775107 11.0959203,7.32754546 C11.1654222,7.31549531 11.234869,7.3048751 11.3047495,7.29562937 C11.3270733,7.29267296 11.3495242,7.28984962 11.3720187,7.28716849 C11.4447555,7.27849891 11.5180446,7.27130708 11.5917602,7.26563766 C11.6262556,7.2629848 11.660759,7.2606707 11.6953521,7.2586915 C11.7961526,7.25292396 11.8977348,7.25 12,7.25 Z" id="path-1"></path>
    </defs>
    <g id="ic_eye_close" stroke="none" stroke-width="1" fill="none" fill-rule="evenodd">
        <mask id="mask-2" fill="white">
            <use xlink:href="#path-1"></use>
        </mask>
        <use id="形状结合" fill="#FFFFFF" fill-rule="nonzero" xlink:href="#path-1"></use>
    </g>
</svg>