<?xml version="1.0" encoding="UTF-8"?>
<svg width="24px" height="24px" viewBox="0 0 24 24" version="1.1" xmlns="http://www.w3.org/2000/svg" xmlns:xlink="http://www.w3.org/1999/xlink">
    <title>ic_Contacts</title>
    <defs>
        <path d="M11,2.5 C13.8994949,2.5 16.25,4.85050506 16.25,7.75 C16.25,9.51473805 15.3792831,11.0761093 14.0440228,12.0279401 C17.516287,13.2752612 20,16.5975795 20,20.5 C20,20.9142136 19.6642136,21.25 19.25,21.25 C18.8357864,21.25 18.5,20.9142136 18.5,20.5 C18.5,16.3578644 15.1421356,13 11,13 C6.85786438,13 3.5,16.3578644 3.5,20.5 C3.5,20.8796958 3.21784612,21.193491 2.85177056,21.2431534 L2.75,21.25 C2.33578644,21.25 2,20.9142136 2,20.5 C2,16.5975795 4.48371302,13.2752612 7.95660209,12.0275821 C6.62071692,11.0761093 5.75,9.51473805 5.75,7.75 C5.75,4.85050506 8.10050506,2.5 11,2.5 Z M16.8455126,11.990365 L16.9001786,11.9998698 C20.1151694,13.1058156 21.5244976,15.7436283 21.9852941,16.7777778 C22.1978509,17.2548115 22.3699793,17.8850275 22.5016794,18.6684258 C22.6803621,19.731297 21.9852991,20.7391431 20.939535,20.957517 C20.9790064,20.8115098 21,20.6582066 21,20.5 L20.9991975,20.3725581 C20.9583277,17.1285533 19.3592048,14.1922682 16.8371835,12.3780488 C16.8267847,12.3705684 16.8087299,12.357267 16.7830192,12.3381447 L16.7386575,12.3051674 C16.6613354,12.2473649 16.6455116,12.1378247 16.7033141,12.0605026 C16.7374229,12.0148754 16.790703,11.989685 16.8455126,11.990365 Z M11,4 C8.92893219,4 7.25,5.67893219 7.25,7.75 C7.25,9.82106781 8.92893219,11.5 11,11.5 C13.0710678,11.5 14.75,9.82106781 14.75,7.75 C14.75,5.67893219 13.0710678,4 11,4 Z M14.3933827,2.26605683 C16.8326968,2.46603293 18.75,4.50911139 18.75,7 C18.75,8.63466202 17.9242699,10.0764644 16.6671636,10.9310533 L16.6534314,10.9403132 L16.6390036,10.9498595 C16.582224,10.9872983 16.505845,10.9716194 16.4684062,10.9148398 C16.4515547,10.8892829 16.445116,10.8588907 16.4493121,10.8295803 L16.4636103,10.7871659 C16.9705014,9.8763586 17.25,8.83638014 17.25,7.75 C17.25,5.54150753 16.1045197,3.60055631 14.3752757,2.48882859 C14.3740147,2.48801791 14.3670156,2.48382955 14.3542783,2.4762635 L14.3308634,2.4623901 C14.2806258,2.43263244 14.2640236,2.36778346 14.2937812,2.31754587 C14.3143973,2.28274139 14.3530659,2.26275164 14.3933827,2.26605683 Z" id="path-1"></path>
    </defs>
    <g id="ic_Contacts" stroke="none" stroke-width="1" fill="none" fill-rule="evenodd">
        <mask id="mask-2" fill="white">
            <use xlink:href="#path-1"></use>
        </mask>
        <use id="蒙版" fill="#007DFF" fill-rule="nonzero" xlink:href="#path-1"></use>
    </g>
</svg>