<?xml version="1.0" encoding="UTF-8"?>
<svg width="24px" height="24px" viewBox="0 0 24 24" version="1.1" xmlns="http://www.w3.org/2000/svg" xmlns:xlink="http://www.w3.org/1999/xlink">
    <title>Public/ic_public_emoji</title>
    <defs>
        <path d="M12,1 C18.0751322,1 23,5.92486775 23,12 C23,18.0751322 18.0751322,23 12,23 C5.92486775,23 1,18.0751322 1,12 C1,5.92486775 5.92486775,1 12,1 Z M12,2.5 C6.75329488,2.5 2.5,6.75329488 2.5,12 C2.5,17.2467051 6.75329488,21.5 12,21.5 C17.2467051,21.5 21.5,17.2467051 21.5,12 C21.5,6.75329488 17.2467051,2.5 12,2.5 Z M17.375998,13.8508265 C17.7345266,14.0582636 17.8570105,14.5170694 17.6495735,14.875598 C16.491715,16.8768095 14.3553047,18.1360571 12.0002,18.1360571 C9.64518533,18.1360571 7.50876034,16.8768925 6.35085437,14.8759408 C6.14339079,14.5174275 6.26584073,14.0586127 6.62435396,13.8511491 C6.9828672,13.6436855 7.44168206,13.7661355 7.64914563,14.1246487 C8.54157382,15.6668342 10.1860548,16.6360571 12.0002,16.6360571 C13.8143986,16.6360571 15.4588331,15.6667909 16.3512265,14.124402 C16.5586636,13.7658734 17.0174694,13.6433895 17.375998,13.8508265 Z M7.25,8 C7.9403125,8 8.5,8.5596875 8.5,9.25 C8.5,9.9403125 7.9403125,10.5 7.25,10.5 C6.5596875,10.5 6,9.9403125 6,9.25 C6,8.5596875 6.5596875,8 7.25,8 Z M16.75,8 C17.4403125,8 18,8.5596875 18,9.25 C18,9.9403125 17.4403125,10.5 16.75,10.5 C16.0596875,10.5 15.5,9.9403125 15.5,9.25 C15.5,8.5596875 16.0596875,8 16.75,8 Z" id="path-1"></path>
    </defs>
    <g id="Public/ic_public_emoji" stroke="none" stroke-width="1" fill="none" fill-rule="evenodd">
        <mask id="mask-2" fill="white">
            <use xlink:href="#path-1"></use>
        </mask>
        <g id="合并形状" fill-rule="nonzero"></g>
        <g id="编组" mask="url(#mask-2)" fill="#000000" fill-opacity="0.9">
            <g id="color/#000000">
                <rect x="0" y="0" width="24" height="24"></rect>
            </g>
        </g>
    </g>
</svg>