<?xml version="1.0" encoding="UTF-8"?>
<svg width="20px" height="20px" viewBox="0 0 20 20" version="1.1" xmlns="http://www.w3.org/2000/svg" xmlns:xlink="http://www.w3.org/1999/xlink">
    <title>ic_check_onxxxhdpi</title>
    <g id="ic_check_on" stroke="none" stroke-width="1" fill="none" fill-rule="evenodd">
        <path d="M10,0 C15.5228475,-1.01453063e-15 20,4.4771525 20,10 C20,15.5228475 15.5228475,20 10,20 C4.4771525,20 6.76353751e-16,15.5228475 0,10 C-6.76353751e-16,4.4771525 4.4771525,1.01453063e-15 10,0 Z" id="Rectangle-2375-Copy" fill="#0A59F7"></path>
        <path d="M12.3959787,2.87585883 C12.9482635,2.87585883 13.3959787,3.33080574 13.3959787,3.87422128 L13.3949787,13.1078588 L13.3959787,13.1258588 C13.3959787,13.5597968 13.125654,13.9291792 12.7357194,14.0675602 L12.6264819,14.0994914 C12.5895326,14.1081141 12.5517688,14.1147059 12.5133113,14.1191421 L12.3959787,14.1258588 L12.3779787,14.1248588 L7.39890806,14.1258588 C6.84500549,14.1258588 6.39597873,13.681994 6.39597873,13.1258588 C6.39597873,12.5735741 6.83386008,12.1258588 7.39890806,12.1258588 L11.3949787,12.1248588 L11.3959787,3.87422128 C11.3959787,3.36222524 11.7786989,2.94024606 12.2786462,2.88257555 L12.3959787,2.87585883 Z" id="Rectangle-62" fill="#FFFFFF" transform="translate(9.895979, 8.500859) rotate(43.000000) translate(-9.895979, -8.500859) "></path>
    </g>
</svg>