<?xml version="1.0" encoding="UTF-8"?>
<svg width="16px" height="16px" viewBox="0 0 16 16" version="1.1" xmlns="http://www.w3.org/2000/svg" xmlns:xlink="http://www.w3.org/1999/xlink">
    <title>ic_Favorites_on</title>
    <defs>
        <path d="M12.6450413,8.99500384 L12.3722242,9.261096 C12.2151001,9.4142541 12.1434011,9.6349209 12.1804931,9.85118362 L12.694529,12.8482433 C12.8034502,13.4833024 12.3769311,14.0864177 11.7418719,14.1953389 C11.488988,14.2387119 11.2288586,14.1975114 11.0017547,14.0781158 L8.91358531,12.9807913 C9.91972118,12.1391753 10.8929705,11.0344671 11.8333333,9.66666667 C11.9299218,9.57251616 12.2344208,9.33348493 12.6450413,8.99500384 Z M8.51632666,1.08995128 C8.74640804,1.20350323 8.93264014,1.38973534 9.04619209,1.61981671 L10.3919557,4.34663165 C10.4890637,4.54339397 10.6767741,4.67977355 10.8939142,4.71132586 L13.9031332,5.14859097 C14.5407689,5.24124485 14.9825639,5.83326151 14.88991,6.47089719 C14.8530147,6.72480706 14.7334464,6.9594732 14.5497154,7.13856657 L13.1029643,8.5482165 L13.0378699,8.61225172 C12.185679,9.35341614 11.3515795,10.0324272 10.5355715,10.6492848 L10.0481376,11.0119409 C9.07761192,11.7223364 8.07135867,12.3884515 7.02937791,13.0102862 L7.03996426,13.0032165 L4.99824533,14.0781158 C4.42792664,14.3779501 3.72252829,14.1586792 3.42269402,13.5883605 C3.30329844,13.3612566 3.26209798,13.1011272 3.30547097,12.8482433 L3.81950693,9.85118362 C3.85659889,9.6349209 3.7848999,9.4142541 3.62777584,9.261096 L1.45028455,7.13856657 C0.988887044,6.68881516 0.97944602,5.95018302 1.42919743,5.48878551 C1.60829081,5.3050546 1.84295695,5.18548623 2.09686682,5.14859097 L5.10608578,4.71132586 C5.32322588,4.67977355 5.51093627,4.54339397 5.60804428,4.34663165 L6.95380791,1.61981671 C7.23896725,1.04202077 7.93853073,0.804791941 8.51632666,1.08995128 Z" id="path-1"></path>
    </defs>
    <g id="ic_Favorites_on" stroke="none" stroke-width="1" fill="none" fill-rule="evenodd">
        <mask id="mask-2" fill="white">
            <use xlink:href="#path-1"></use>
        </mask>
        <use id="形状结合" fill="#F9A01E" fill-rule="nonzero" xlink:href="#path-1"></use>
    </g>
</svg>