<?xml version="1.0" encoding="UTF-8"?>
<svg width="16px" height="16px" viewBox="0 0 16 16" version="1.1" xmlns="http://www.w3.org/2000/svg" xmlns:xlink="http://www.w3.org/1999/xlink">
    <title>ic_good</title>
    <defs>
        <path d="M10.6033957,1.635592 C11.0965256,2.00170356 11.3166468,2.63144724 11.1589734,3.22504122 L10.3388969,6.31238796 C10.3365339,6.32128421 10.3418301,6.33041169 10.3507263,6.33277475 L13.3630792,6.33333333 C14.4676487,6.33333333 15.3630792,7.22876383 15.3630792,8.33333333 C15.3630792,8.51562228 15.3381578,8.69705549 15.2890072,8.87259318 L14.2120097,12.7190131 C13.8895735,13.8705708 12.8399526,14.6666667 11.6441056,14.6666667 L2.66666667,14.6666667 C1.56209717,14.6666667 0.666666667,13.7712362 0.666666667,12.6666667 L0.666666667,8.66666667 C0.666666667,7.56209717 1.56209717,6.66666667 2.66666667,6.66666667 L5,6.66666667 L8.50488043,1.94580731 C8.99870584,1.28065472 9.93824314,1.1417666 10.6033957,1.635592 Z M4.49966667,7.66586335 L2.66666667,7.66666667 C2.12693384,7.66666667 1.68707137,8.09426248 1.66735641,8.62917696 L1.66666667,12.6666667 C1.66666667,13.2063995 2.09426248,13.646262 2.62917696,13.6659769 L4.49966667,13.6658634 L4.49966667,7.66586335 Z M9.3274296,2.51710503 L9.30779063,2.54190731 L5.50304505,7.66666667 L5.49966667,7.66586335 L5.49966667,13.6658634 L11.6441056,13.6666667 C12.3756078,13.6666667 13.0195662,13.1900543 13.2355688,12.4950186 L13.2490456,12.4493832 L14.3260432,8.60296326 C14.3506185,8.51519441 14.3630792,8.42447781 14.3630792,8.33333333 C14.3630792,7.79360051 13.9354834,7.35373804 13.4005689,7.33402308 L13.3630792,7.33333333 L10.355005,7.33333333 L10.2648124,7.32880541 C10.2343,7.32666246 10.2123759,7.32380029 10.182336,7.3180382 L10.0940037,7.29925988 C9.5636659,7.1583889 9.2430631,6.62343147 9.3633047,6.0926825 L9.37241182,6.05566534 L10.1924883,2.96831861 C10.2450461,2.77045395 10.1716724,2.56053939 10.0072957,2.43850221 C9.7941058,2.28022483 9.4963545,2.31694053 9.3274296,2.51710503 Z M3.16666667,11 C3.44280904,11 3.66666667,11.2238576 3.66666667,11.5 L3.66666667,12.5 C3.66666667,12.7761424 3.44280904,13 3.16666667,13 C2.89052429,13 2.66666667,12.7761424 2.66666667,12.5 L2.66666667,11.5 C2.66666667,11.2238576 2.89052429,11 3.16666667,11 Z" id="path-1"></path>
    </defs>
    <g id="ic_good" stroke="none" stroke-width="1" fill="none" fill-rule="evenodd">
        <mask id="mask-2" fill="white">
            <use xlink:href="#path-1"></use>
        </mask>
        <use id="形状结合" fill-opacity="0.6" fill="#182431" fill-rule="nonzero" xlink:href="#path-1"></use>
    </g>
</svg>