<?xml version="1.0" encoding="UTF-8"?>
<svg width="24px" height="24px" viewBox="0 0 24 24" version="1.1" xmlns="http://www.w3.org/2000/svg" xmlns:xlink="http://www.w3.org/1999/xlink">
    <title>ic_wifi_on</title>
    <defs>
        <path d="M12.0006868,11.75 C14.1153489,11.75 16.0906493,12.5991668 17.4758057,14.0606505 C17.8557222,14.4615019 17.8387512,15.0944394 17.4378998,15.474356 C17.0370484,15.8542725 16.4041109,15.8373015 16.0241943,15.4364501 C15.0167672,14.37351 13.5663814,13.75 12.0006868,13.75 C10.4343776,13.75 8.98347933,14.3740033 7.97603048,15.4376625 C7.59624495,15.8386381 6.96331303,15.855816 6.56233747,15.4760305 C6.16136192,15.0962449 6.144184,14.463313 6.52396952,14.0623375 C7.90917586,12.5998439 9.88518621,11.75 12.0006868,11.75 Z M12.0002692,7.25 C15.2685386,7.25 18.318619,8.65678629 20.4943022,11.0815569 C20.8631417,11.4926237 20.8289097,12.1248626 20.4178429,12.4937021 C20.0067762,12.8625415 19.3745372,12.8283095 19.0056978,12.4172428 C17.203513,10.4087313 14.6912454,9.25 12.0002692,9.25 C9.30904291,9.25 6.79656204,10.4089485 4.99435171,12.4177878 C4.6255427,12.8288819 3.99330631,12.8631607 3.58221221,12.4943517 C3.17111811,12.1255427 3.13683928,11.4933063 3.50564829,11.0822122 C5.6813597,8.65704879 8.73169642,7.25 12.0002692,7.25 Z M11.9995363,2.75 C16.3001105,2.75 20.3214916,4.51017363 23.2244081,7.56062864 C23.6051374,7.96070819 23.5894509,8.59367883 23.1893714,8.97440812 C22.7892918,9.35513741 22.1563212,9.33945092 21.7755919,8.93937136 C19.2465254,6.28176711 15.7469734,4.75 11.9995363,4.75 C8.25253773,4.75 4.75335915,6.28140612 2.22434435,8.9384639 C1.84357805,9.33850824 1.21060597,9.35413618 0.810561632,8.97336988 C0.410517294,8.59260359 0.394889354,7.9596315 0.77565565,7.55958716 C3.6785132,4.50975912 7.69946582,2.75 11.9995363,2.75 Z M12,16.25 C13.2426407,16.25 14.25,17.2573593 14.25,18.5 C14.25,19.7426407 13.2426407,20.75 12,20.75 C10.7573593,20.75 9.75,19.7426407 9.75,18.5 C9.75,17.2573593 10.7573593,16.25 12,16.25 Z" id="path-1"></path>
    </defs>
    <g id="ic_wifi_on" stroke="none" stroke-width="1" fill="none" fill-rule="evenodd">
        <mask id="mask-2" fill="white">
            <use xlink:href="#path-1"></use>
        </mask>
        <use id="合并形状" fill="#182431" fill-rule="nonzero" xlink:href="#path-1"></use>
    </g>
</svg>