<?xml version="1.0" encoding="UTF-8"?>
<svg width="24px" height="24px" viewBox="0 0 24 24" version="1.1" xmlns="http://www.w3.org/2000/svg" xmlns:xlink="http://www.w3.org/1999/xlink">
    <title>ic_leku</title>
    <defs>
        <path d="M20.4655632,3.98094804 C20.4803936,4.07517784 20.4903061,4.17008347 20.4952705,4.26527934 L20.4990023,4.40824262 L20.5,15.249908 L20.498902,15.2620554 C20.4931586,16.2880671 20.4856874,16.7633475 20.2674612,17.5724186 C20.049235,18.3814897 19.6218054,19.1432745 18.7702139,19.6340818 C17.2204638,20.5272666 15.3424257,20.1763717 14.5754983,18.8503361 C13.8085709,17.5243005 14.4431741,15.7252669 15.9929242,14.8320821 C16.6295315,14.465179 17.4389386,14.1407327 17.998814,13.6282537 C18.334865,13.3206511 18.498814,12.8782537 18.498814,11.8782537 L18.498186,6.76409685 L8.49918603,8.52809685 L8.49985976,16.6106261 C8.50000945,16.6320193 8.50014574,16.6534337 8.50026898,16.6748653 L8.50102054,17.1481598 L8.50008805,17.3838017 C8.49434461,18.4098134 8.48687341,18.8850938 8.26864723,19.6941649 C8.05042106,20.503236 7.62299148,21.2650208 6.77139997,21.7558281 C5.22164988,22.6490129 3.34361172,22.2981181 2.57668432,20.9720825 C1.80975692,19.6460469 2.4443601,17.8470132 3.99411018,16.9538284 C4.63071753,16.5869253 5.44012462,16.2624791 6,15.75 C6.33605107,15.4423974 6.5,15 6.5,14 L6.5,5.74611652 C6.5,4.45125417 7.4013868,3.34060819 8.6500759,3.06228843 L8.82245235,3.02955564 L17.3214547,1.69193481 C18.8217698,1.45580676 20.2294352,2.4806329 20.4655632,3.98094804 Z" id="path-1"></path>
    </defs>
    <g id="ic_leku" stroke="none" stroke-width="1" fill="none" fill-rule="evenodd">
        <mask id="mask-2" fill="white">
            <use xlink:href="#path-1"></use>
        </mask>
        <use id="形状结合" fill-opacity="0.6" fill="#182431" xlink:href="#path-1"></use>
    </g>
</svg>