<?xml version="1.0" encoding="UTF-8"?>
<svg width="24px" height="24px" viewBox="0 0 24 24" version="1.1" xmlns="http://www.w3.org/2000/svg" xmlns:xlink="http://www.w3.org/1999/xlink">
    <title>ic_play_normal</title>
    <g id="ic_play_normal" stroke="none" stroke-width="1" fill="none" fill-rule="evenodd">
        <path d="M12,0 C18.627417,0 24,5.372583 24,12 C24,18.627417 18.627417,24 12,24 C5.372583,24 0,18.627417 0,12 C0,5.372583 5.372583,0 12,0 Z M8.90625,7.3125 L8.79625073,7.31877822 C8.32755017,7.37268376 7.96875,7.76711439 7.96875,8.24568522 L7.96875,15.7543148 C7.96875,16.2603146 8.38848305,16.6875 8.90625,16.6875 L9.01624927,16.6812218 C9.48494983,16.6273162 9.84375,16.2328856 9.84375,15.7543148 L9.84375,8.24568522 C9.84375,7.73968537 9.42401695,7.3125 8.90625,7.3125 Z M15.09375,7.3125 L14.9837507,7.31877822 C14.5150502,7.37268376 14.15625,7.76711439 14.15625,8.24568522 L14.15625,15.7543148 C14.15625,16.2603146 14.575983,16.6875 15.09375,16.6875 L15.2037493,16.6812218 C15.6724498,16.6273162 16.03125,16.2328856 16.03125,15.7543148 L16.03125,8.24568522 C16.03125,7.73968537 15.611517,7.3125 15.09375,7.3125 Z" id="形状结合" fill="#99182431"></path>
    </g>
</svg>