<?xml version="1.0" encoding="UTF-8"?>
<svg width="24px" height="24px" viewBox="0 0 24 24" version="1.1" xmlns="http://www.w3.org/2000/svg" xmlns:xlink="http://www.w3.org/1999/xlink">
    <title>ic_Pause_normal</title>
    <g id="ic_Pause_normal" stroke="none" stroke-width="1" fill="none" fill-rule="evenodd">
        <path d="M12,0 C18.627417,0 24,5.372583 24,12 C24,18.627417 18.627417,24 12,24 C5.372583,24 0,18.627417 0,12 C0,5.372583 5.372583,0 12,0 Z M9.77058824,7.19750631 C9.23454715,7.19750631 8.8,7.63205346 8.8,8.16809454 L8.8,15.1319055 C8.8,15.3164958 8.85263827,15.4972587 8.95174032,15.6529905 C9.23952764,16.1052277 9.83943606,16.2385407 10.2916733,15.9507534 L15.763239,12.4688479 C15.883088,12.3925804 15.9847343,12.2909341 16.0610019,12.171085 C16.3487892,11.7188478 16.2154762,11.1189394 15.763239,10.8311521 L10.2916733,7.34924663 C10.1359415,7.25014458 9.95517861,7.19750631 9.77058824,7.19750631 Z" id="播放暂停" fill="#99182431"></path>
    </g>
</svg>