<?xml version="1.0" encoding="UTF-8"?>
<svg width="24px" height="24px" viewBox="0 0 24 24" version="1.1" xmlns="http://www.w3.org/2000/svg" xmlns:xlink="http://www.w3.org/1999/xlink">
    <title>ic_Rankings</title>
    <defs>
        <path d="M12,1 C18.0751322,1 23,5.92486775 23,12 C23,18.0751322 18.0751322,23 12,23 C5.92486775,23 1,18.0751322 1,12 C1,5.92486775 5.92486775,1 12,1 Z M12.4425657,5.61281539 C11.9473121,5.36839309 11.3476862,5.57173209 11.1032639,6.06698575 L9.76519427,8.778211 C9.69236327,8.92578273 9.55158047,9.02806742 9.38872539,9.05173165 L6.39671069,9.48649683 C6.17907366,9.51812134 5.97793125,9.62060852 5.82442265,9.77809216 C5.43892144,10.1735757 5.44701374,10.806689 5.84249732,11.1921902 L8.00753949,13.3025847 C8.12538254,13.4174533 8.17915678,13.5829534 8.15133781,13.7451505 L7.64024068,16.7250754 C7.60306384,16.941833 7.63837852,17.1648011 7.74071759,17.3594615 C7.99771839,17.8483061 8.60234555,18.0362527 9.09119013,17.7792518 L11.7673294,16.3723222 C11.9129914,16.2957431 12.0870086,16.2957431 12.2326706,16.3723222 L14.9088099,17.7792518 C15.1034703,17.8815909 15.3264384,17.9169056 15.5431961,17.8797287 C16.0875325,17.7863677 16.4531203,17.2694118 16.3597593,16.7250754 L15.8486622,13.7451505 C15.8208432,13.5829534 15.8746175,13.4174533 15.9924605,13.3025847 L18.1575027,11.1921902 C18.3149863,11.0386816 18.4174735,10.8375392 18.449098,10.6199022 C18.5285156,10.0733573 18.1498342,9.56591445 17.6032893,9.48649683 L14.6112746,9.05173165 C14.4484195,9.02806742 14.3076367,8.92578273 14.2348057,8.778211 L12.8967361,6.06698575 C12.7994058,5.86977315 12.6397783,5.71014562 12.4425657,5.61281539 Z" id="path-1"></path>
    </defs>
    <g id="ic_Rankings" stroke="none" stroke-width="1" fill="none" fill-rule="evenodd">
        <mask id="mask-2" fill="white">
            <use xlink:href="#path-1"></use>
        </mask>
        <use id="合并形状" fill-opacity="0.6" fill="#182431" xlink:href="#path-1"></use>
    </g>
</svg>