<?xml version="1.0" encoding="UTF-8"?>
<svg width="40px" height="40px" viewBox="0 0 40 40" version="1.1" xmlns="http://www.w3.org/2000/svg" xmlns:xlink="http://www.w3.org/1999/xlink">
    <title>编组备份 15</title>
    <g id="页面-1" stroke="none" stroke-width="1" fill="none" fill-rule="evenodd">
        <g id="编组备份-15" fill-rule="nonzero">
            <path d="M0.714285714,20 C0.714285714,30.6515 9.3485,39.2857143 20,39.2857143 C30.6515,39.2857143 39.2857143,30.6515 39.2857143,20 C39.2857143,9.3485 30.6515,0.714285714 20,0.714285714 C9.3485,0.714285714 0.714285714,9.3485 0.714285714,20 Z" id="Shape" fill-opacity="0.5" fill="#000000"></path>
            <path d="M13.7000384,30.3621546 C12.205363,30.3621546 10.9891971,29.1697137 10.9509652,27.6842565 L10.9509652,20.5574397 C10.958302,20.5522252 10.9654907,20.5467901 10.9725641,20.5411342 L11.005106,20.5127508 L12.4499846,19.1401546 L12.4500384,27.6121546 C12.4500384,28.2843433 12.980615,28.8326091 13.6458159,28.8609997 L13.7000384,28.8621546 L16.2,28.862 L16.2000384,24.6121546 C16.2000384,22.6078954 17.7723994,20.9708809 19.7508798,20.8673526 L19.9500384,20.8621546 C22.0211062,20.8621546 23.7000384,22.5410868 23.7000384,24.6121546 L23.7000384,24.6121546 L23.7,28.862 L26.2000384,28.8621546 C26.8722271,28.8621546 27.4204929,28.3315779 27.4488835,27.666377 L27.4500384,27.6121546 L27.4499846,19.1401546 L28.8556637,20.4746543 L28.8882056,20.5030377 C28.9078871,20.5187754 28.9284628,20.5328031 28.9497377,20.5451257 L28.9500384,27.6121546 C28.9500384,29.10683 27.7575975,30.3229959 26.2721403,30.3612277 L26.2000384,30.3621546 L13.7000384,30.3621546 Z M19.9500384,22.3621546 C18.7073977,22.3621546 17.7000384,23.3695139 17.7000384,24.6121546 L17.7000384,24.6121546 L17.7000384,28.8621546 L22.2000384,28.8621546 L22.2000384,24.6121546 C22.2000384,23.4212906 21.2748768,22.4465097 20.1040872,22.3673454 L20.1040872,22.3673454 L19.9500384,22.3621546 Z M17.5146122,10.8983352 C18.9650394,9.65777707 21.1336864,9.70208272 22.5328121,11.0312521 L22.5328121,11.0312521 L30.4665637,18.5683162 L30.5356317,18.6433744 C30.7668313,18.9315139 30.7552664,19.3533486 30.4937512,19.6286278 C30.2084618,19.9289324 29.7337441,19.9411047 29.4334395,19.6558153 L29.4334395,19.6558153 L21.4996879,12.1187513 L21.3836945,12.015821 C20.5137185,11.2953091 19.2309806,11.3296192 18.4003153,12.1187513 L18.4003153,12.1187513 L10.4665636,19.6558153 L10.3880644,19.7209459 C10.0884549,19.937075 9.66776722,19.903907 9.40625197,19.6286278 C9.1209626,19.3283232 9.13313485,18.8536055 9.43343944,18.5683162 L9.43343944,18.5683162 L17.3671911,11.0312521 L17.5146122,10.8983352 Z" id="path-1" fill="#FFFFFF"></path>
            <path d="M0.714285714,20 C0.714285714,30.6515 9.3485,39.2857143 20,39.2857143 C30.6515,39.2857143 39.2857143,30.6515 39.2857143,20 C39.2857143,9.3485 30.6515,0.714285714 20,0.714285714 C9.3485,0.714285714 0.714285714,9.3485 0.714285714,20 Z M0,20 C0,8.95401071 8.95401071,0 20,0 C31.0459893,0 40,8.95401071 40,20 C40,31.0459893 31.0459893,40 20,40 C8.95401071,40 0,31.0459893 0,20 Z" id="Shape" fill-opacity="0.3" fill="#FFFFFF"></path>
        </g>
    </g>
</svg>