<?xml version="1.0" encoding="UTF-8"?>
<svg width="24px" height="24px" viewBox="0 0 24 24" version="1.1" xmlns="http://www.w3.org/2000/svg" xmlns:xlink="http://www.w3.org/1999/xlink">
    <title>矩形 2@1x</title>
    <defs>
        <linearGradient x1="50%" y1="0%" x2="50%" y2="100%" id="linearGradient-1">
            <stop stop-color="#5CA4FF" offset="0%"></stop>
            <stop stop-color="#2F6BFF" offset="100%"></stop>
        </linearGradient>
    </defs>
    <g id="页面-1" stroke="none" stroke-width="1" fill="none" fill-rule="evenodd">
        <g id="编组-38" transform="translate(-68.000000, -38.000000)">
            <g id="矩形-2" transform="translate(68.000000, 38.000000)">
                <rect id="矩形" x="0" y="0" width="24" height="24"></rect>
                <g id="编组-2" transform="translate(2.000000, 0.000000)">
                    <path d="M10.9472142,20.6480621 L13.345253,24 L13.345253,24 L7.34525299,23.9627813 L9.98887311,20.6246672 C10.1946012,20.3648932 10.5719654,20.3210803 10.8317394,20.5268084 C10.8757092,20.5616303 10.9145792,20.6024455 10.9472142,20.6480621 Z" id="三角形" fill="#FFFFFF" transform="translate(10.345253, 22.000000) scale(1, -1) translate(-10.345253, -22.000000) "></path>
                    <ellipse id="椭圆形" fill="#FFFFFF" cx="10.5" cy="10.3445292" rx="10.5" ry="10.3445292"></ellipse>
                    <ellipse id="椭圆形" fill="url(#linearGradient-1)" cx="10.5" cy="10.359336" rx="9.5" ry="9.35933596"></ellipse>
                    <g id="编组-33备份" transform="translate(3.000000, 6.000000)" fill="#FFFFFF">
                        <rect id="矩形" x="0" y="3.375" width="14" height="2.25" rx="1.07692308"></rect>
                        <rect id="矩形" x="3.76923077" y="0" width="1.61538462" height="9" rx="0.807692308"></rect>
                        <rect id="矩形备份-23" x="8.61538462" y="0" width="1.61538462" height="9" rx="0.807692308"></rect>
                        <rect id="矩形备份-21" x="2.15384615" y="1.125" width="1.61538462" height="6.75" rx="0.807692308"></rect>
                        <rect id="矩形备份-24" x="10.2307692" y="1.125" width="1.61538462" height="6.75" rx="0.807692308"></rect>
                    </g>
                </g>
            </g>
        </g>
    </g>
</svg>