<?xml version="1.0" encoding="UTF-8"?>
<svg width="24px" height="24px" viewBox="0 0 24 24" version="1.1" xmlns="http://www.w3.org/2000/svg" xmlns:xlink="http://www.w3.org/1999/xlink">
    <title>矩形 2@1x</title>
    <defs>
        <linearGradient x1="24.7120104%" y1="13.454538%" x2="117.790624%" y2="140.147098%" id="linearGradient-1">
            <stop stop-color="#F4A800" offset="0%"></stop>
            <stop stop-color="#FAD300" offset="100%"></stop>
        </linearGradient>
    </defs>
    <g id="页面-1" stroke="none" stroke-width="1" fill="none" fill-rule="evenodd">
        <g id="编组-38" transform="translate(-67.000000, 0.000000)">
            <g id="矩形-2" transform="translate(67.000000, 0.000000)">
                <rect id="矩形" x="0" y="0" width="24" height="24"></rect>
                <g id="编组-2" transform="translate(2.000000, 0.000000)">
                    <path d="M10.9472142,20.6480621 L13.345253,24 L13.345253,24 L7.34525299,23.9627813 L9.98887311,20.6246672 C10.1946012,20.3648932 10.5719654,20.3210803 10.8317394,20.5268084 C10.8757092,20.5616303 10.9145792,20.6024455 10.9472142,20.6480621 Z" id="三角形" fill="#FFFFFF" transform="translate(10.345253, 22.000000) scale(1, -1) translate(-10.345253, -22.000000) "></path>
                    <ellipse id="椭圆形" fill="#FFFFFF" cx="10.5" cy="10.3445292" rx="10.5" ry="10.3445292"></ellipse>
                    <ellipse id="椭圆形" fill="url(#linearGradient-1)" cx="10.5" cy="10.359336" rx="9.5" ry="9.35933596"></ellipse>
                    <g id="编组" transform="translate(6.000000, 5.000000)" fill="#FFFFFF" fill-rule="nonzero">
                        <path d="M4.79399521,0 C5.23547907,0 5.59641209,0.348509396 5.62207801,0.788130638 L6.72811489,0.788544134 C7.51472691,0.788544134 8.1676952,1.4026545 8.22409685,2.19550065 L8.57433425,7.11883997 C8.60727681,7.58191876 8.32596127,7.99450268 7.91329947,8.14312135 C8.10648745,8.50086047 8.34430176,8.94096173 8.62472201,9.45990989 C8.73450591,9.66307694 8.66051953,9.91771061 8.4594688,10.0286501 C8.27182143,10.1321937 8.03980796,10.0739678 7.92044844,9.90056184 L7.89665289,9.86165741 C7.82943545,9.73726421 7.76468402,9.61743461 7.7023986,9.5021687 L0.975943778,9.50222976 C0.912220941,9.61846109 0.84612633,9.73901861 0.777659939,9.86390222 C0.666649186,10.0663874 0.414220404,10.1395947 0.213844477,10.0274154 C0.0268269454,9.9227148 -0.0487483471,9.69352656 0.032261992,9.49880554 L0.052034521,9.45766507 C0.332604515,8.94590154 0.57265177,8.50805204 0.772176286,8.14411658 C0.379624632,8.00925889 0.0985858182,7.63343952 0.0985858182,7.19128906 C0.0985858182,7.16711602 0.0994442467,7.1429508 0.101159447,7.11883997 L0.45139685,2.19550065 C0.507798484,1.4026545 1.1607668,0.788544134 1.94737878,0.788544134 L3.05356082,0.78816 L3.05470595,0.769522934 C3.08931279,0.338715711 3.44626203,0 3.8814985,0 L4.79399521,0 Z M6.99830155,8.1991605 L1.68990149,8.19996108 C1.61300427,8.34022267 1.52832763,8.49467403 1.43587158,8.66331514 L7.24933586,8.66372683 C7.15682681,8.49252873 7.07314871,8.33767329 6.99830155,8.1991605 Z M6.47013156,5.55304469 C6.11172705,5.55304469 5.81970223,5.85480715 5.81970223,6.22361515 C5.81970223,6.59245594 6.11171086,6.8942675 6.47013156,6.8942675 C6.82847118,6.8942675 7.12049605,6.59245594 7.12049605,6.22361515 C7.12049605,5.85480715 6.82847118,5.55304469 6.47013156,5.55304469 Z M2.20516772,5.55304469 C1.84676325,5.55304469 1.5548032,5.85480715 1.5548032,6.22361515 C1.56144602,6.59245594 1.84676325,6.8942675 2.20516772,6.8942675 C2.56350737,6.8942675 2.85553224,6.59245594 2.85553224,6.22361515 C2.85553224,5.85480715 2.56350737,5.55304469 2.20516772,5.55304469 Z M6.86731977,1.91963799 L1.80821718,1.91963799 C1.53210383,1.91963799 1.29739264,2.14582824 1.28397508,2.42484805 L1.28397508,2.42484805 L1.20356881,4.09690625 C1.19015125,4.37592606 1.41263908,4.60211631 1.70050931,4.60211631 L1.70050931,4.60211631 L6.97502763,4.60211631 C7.26289787,4.60211631 7.48538573,4.37592606 7.47196817,4.09690625 L7.47196817,4.09690625 L7.39156188,2.42484805 C7.37814431,2.14582824 7.14343313,1.91963799 6.86731977,1.91963799 L6.86731977,1.91963799 Z" id="形状结合"></path>
                    </g>
                </g>
            </g>
        </g>
    </g>
</svg>