<?xml version="1.0" encoding="UTF-8"?>
<svg width="24px" height="24px" viewBox="0 0 24 24" version="1.1" xmlns="http://www.w3.org/2000/svg" xmlns:xlink="http://www.w3.org/1999/xlink">
    <title>矩形 2@1x</title>
    <defs>
        <linearGradient x1="24.7120104%" y1="12.3477795%" x2="117.790624%" y2="142.877151%" id="linearGradient-1">
            <stop stop-color="#F4A800" offset="0%"></stop>
            <stop stop-color="#FAD300" offset="100%"></stop>
        </linearGradient>
    </defs>
    <g id="页面-1" stroke="none" stroke-width="1" fill="none" fill-rule="evenodd">
        <g id="矩形-2">
            <rect id="矩形" x="0" y="0" width="24" height="24"></rect>
            <g id="编组-2" transform="translate(2.000000, 0.000000)">
                <path d="M10.9472142,20.6480621 L13.345253,24 L13.345253,24 L7.34525299,23.9627813 L9.98887311,20.6246672 C10.1946012,20.3648932 10.5719654,20.3210803 10.8317394,20.5268084 C10.8757092,20.5616303 10.9145792,20.6024455 10.9472142,20.6480621 Z" id="三角形" fill="#FFFFFF" transform="translate(10.345253, 22.000000) scale(1, -1) translate(-10.345253, -22.000000) "></path>
                <ellipse id="椭圆形" fill="#FFFFFF" cx="10.5" cy="10.3445292" rx="10.5" ry="10.3445292"></ellipse>
                <g id="编组" transform="translate(1.000000, 1.000000)" fill-rule="nonzero">
                    <circle id="椭圆形" fill="url(#linearGradient-1)" cx="9.5" cy="9.5" r="9.5"></circle>
                    <g transform="translate(3.901731, 4.101298)" fill="#FFFFFF" id="路径">
                        <path d="M5.52898523,0.284559304 C5.74213825,0.284559304 5.91822113,0.44424584 5.94404959,0.6504345 L5.94731089,0.70288496 L6.05774564,10.9606844 L6.05774564,10.9606844 C6.05774564,11.3458229 5.74553526,11.6578938 5.36053622,11.6578938 C4.97539772,11.6578938 4.6633268,11.3458229 4.6633268,10.9606844 L4.7570196,5.2392843 L4.08997024,5.23950285 C3.85891504,5.23950285 3.67164458,5.05209298 3.67164458,4.82117719 L3.71624071,2.37618759 C3.71624071,1.53953627 4.40341032,0.284559304 5.25010143,0.284559304 L5.25010143,0.284559304 L5.24915931,0.391957963 C5.2494902,0.391659953 5.24982156,0.391362465 5.25015339,0.391065495 L5.25010143,0.284559304 L5.52898523,0.284559304 L5.52898523,0.284559304 Z" fill-opacity="0.6" transform="translate(4.864695, 5.971227) rotate(-45.000000) translate(-4.864695, -5.971227) "></path>
                        <path d="M5.98488402,-0.502324517 C6.90902355,-0.502324517 7.73888569,0.731855402 7.73888569,2.19381408 C7.73888569,3.36169122 7.20930753,4.32163595 6.52514052,4.66057634 L6.7040961,10.7632709 L6.7040961,10.7632709 C6.7040961,11.1484094 6.39188573,11.4604804 6.00688668,11.4604804 C5.62174818,11.4604804 5.30967722,11.1484094 5.30967722,10.7632709 L5.46781726,4.67376538 C4.76465752,4.34839996 4.20451796,3.38441436 4.20451796,2.20194777 C4.20451796,0.739989093 5.06074449,-0.502324517 5.98488402,-0.502324517 Z" transform="translate(5.971702, 5.479078) rotate(45.000000) translate(-5.971702, -5.479078) "></path>
                    </g>
                </g>
            </g>
        </g>
    </g>
</svg>