<?xml version="1.0" encoding="UTF-8"?>
<svg width="24px" height="24px" viewBox="0 0 24 24" version="1.1" xmlns="http://www.w3.org/2000/svg" xmlns:xlink="http://www.w3.org/1999/xlink">
    <title>矩形 2@1x</title>
    <defs>
        <linearGradient x1="50%" y1="0%" x2="50%" y2="100%" id="linearGradient-1">
            <stop stop-color="#E84026" offset="0%"></stop>
            <stop stop-color="#F5744E" offset="100%"></stop>
        </linearGradient>
    </defs>
    <g id="页面-1" stroke="none" stroke-width="1" fill="none" fill-rule="evenodd">
        <g id="编组-38" transform="translate(-143.000000, -38.000000)">
            <g id="矩形-2" transform="translate(143.000000, 38.000000)">
                <rect id="矩形" x="0" y="0" width="24" height="24"></rect>
                <g id="编组-2" transform="translate(2.000000, 0.000000)">
                    <path d="M10.9472142,20.6480621 L13.345253,24 L13.345253,24 L7.34525299,23.9627813 L9.98887311,20.6246672 C10.1946012,20.3648932 10.5719654,20.3210803 10.8317394,20.5268084 C10.8757092,20.5616303 10.9145792,20.6024455 10.9472142,20.6480621 Z" id="三角形" fill="#FFFFFF" transform="translate(10.345253, 22.000000) scale(1, -1) translate(-10.345253, -22.000000) "></path>
                    <ellipse id="椭圆形" fill="#FFFFFF" cx="10.5" cy="10.3445292" rx="10.5" ry="10.3445292"></ellipse>
                    <ellipse id="椭圆形" fill="url(#linearGradient-1)" cx="10.5" cy="10.359336" rx="9.5" ry="9.35933596"></ellipse>
                    <g id="编组" transform="translate(4.000000, 3.000000)">
                        <rect id="矩形" transform="translate(7.000000, 7.000000) scale(-1, 1) rotate(-180.000000) translate(-7.000000, -7.000000) " x="0" y="0" width="14" height="14"></rect>
                        <g transform="translate(1.355703, 1.020833)" fill="#FFFFFF" fill-rule="nonzero" id="形状">
                            <path d="M4.49749513,7.45147725 L4.62233597,7.54103099 C4.74299546,7.62980272 4.93867483,7.77955208 5.1932684,7.97749242 L3.3292657,9.59433778 C3.14007181,9.75305246 2.88453626,9.80736137 2.64736404,9.73943874 L2.64736404,9.73943874 L0.416350339,9.10175677 C0.109634823,9.01191789 -0.0666117693,8.69099122 0.0236233235,8.38404986 C0.109796012,8.09066802 0.405816013,7.91205934 0.705290016,7.97247961 L0.705290016,7.97247961 L2.61067568,8.35584668 L4.01775722,6.70077532 C4.06419575,6.98815594 4.22264901,7.24844686 4.49749513,7.45147725 Z M7.83992309,3.57261881 L8.81601365,5.0189892 L9.83736983,5.0189892 C10.1264381,5.0189892 10.3705578,5.22699593 10.4203398,5.5069909 L10.4203398,5.5069909 L10.4249231,5.53725964 L10.4276319,5.56617967 L10.4286263,5.58216454 L10.4295223,5.61100231 C10.4295223,5.90432226 10.2165693,6.15333717 9.9288551,6.20053636 L9.9288551,6.20053636 L9.90079904,6.20426514 L9.85742453,6.20788367 L8.4790718,6.26700941 L8.45207303,6.26753534 C8.21096655,6.26753534 7.98456893,6.15045054 7.84524257,5.95331858 L7.84524257,5.95331858 L7.19800116,5.03666456 C7.217662,5.00250241 7.23633176,4.9702362 7.25400973,4.9398671 L7.36955115,4.74418641 L7.4005902,4.69070745 C7.63429004,4.2832434 7.77439568,3.92633627 7.81819608,3.61219818 L7.83992309,3.57261881 Z" fill-opacity="0.6"></path>
                            <path d="M6.42583635,2.10401684 C6.70247565,2.11053879 6.96560664,2.18852933 7.18139366,2.33369036 L7.18139366,2.33369036 L7.2057256,2.35086574 L7.23257626,2.36901263 C7.98180778,2.88380458 8.02091183,3.60915445 7.4005902,4.69070745 L7.4005902,4.69070745 L7.36955115,4.74418641 L7.25400973,4.9398671 C7.13524499,5.14389377 6.97171636,5.43354589 6.7636476,5.80846773 L6.7636476,5.80846773 L6.43541953,6.40306275 L8.09564464,8.00049787 L9.2783521,11.688016 C9.36695933,11.9646297 9.24392429,12.2637443 8.98879098,12.3986985 L8.98879098,12.3986985 L8.96141083,12.4120513 L8.94539156,12.4192234 L8.91877867,12.4301619 C8.6527404,12.5299948 8.35440816,12.4308855 8.20039037,12.1941774 L8.20039037,12.1941774 L8.18515183,12.1690534 L8.17639116,12.1535219 L8.16290607,12.1277624 L6.74524513,9.20062862 L6.19483682,8.76408983 C6.01454231,8.62150905 5.83645438,8.48107429 5.66587075,8.34706536 L5.66587075,8.34706536 L5.43727225,8.16783386 C5.06253054,7.87465577 4.77910933,7.65637244 4.62233597,7.54103099 L4.62233597,7.54103099 L4.49749513,7.45147725 C4.13372821,7.18276061 3.97385015,6.81373881 4.00771044,6.41436232 C4.02991572,6.15245482 4.12048562,5.93245771 4.25904387,5.69979261 L4.25904387,5.69979261 L4.27671307,5.66975015 C4.3331789,5.56962509 4.5252363,5.19714991 4.74851607,4.75887267 L4.74851607,4.75887267 L5.18419472,3.89844547 L4.12635933,4.07929321 L2.965744,5.52343283 C2.85928129,5.65595902 2.70564537,5.73896611 2.53952898,5.75729042 L2.53952898,5.75729042 L2.51411208,5.75938978 L2.49521194,5.76042948 L2.46969806,5.76113071 C2.35245719,5.76113071 2.23685078,5.72874499 2.14693397,5.67305546 L2.14693397,5.67305546 L2.11718611,5.65458186 C1.86047447,5.48308571 1.77251426,5.14761115 1.91010393,4.87300318 L1.91010393,4.87300318 L1.92395758,4.84739089 L1.93322578,4.83146977 L1.94809134,4.80762291 L3.16167093,2.9883023 C3.31319759,2.78085779 3.61495078,2.67290045 4.38474777,2.48434222 L4.38474777,2.48434222 L4.72557043,2.40252355 C5.12322321,2.30892949 5.61214695,2.20411716 5.86142793,2.15545078 L5.86142793,2.15545078 L5.99165418,2.1315566 L6.00897008,2.1291933 C6.12829797,2.11491963 6.26423616,2.10428702 6.37409661,2.10357453 L6.37409661,2.10357453 L6.42583635,2.10401684 Z M8.00885678,0 C8.69223825,0 9.24692053,0.554434568 9.24692053,1.23855926 C9.24692053,1.92256008 8.69223825,2.47736626 8.00885678,2.47736626 C7.32436043,2.47736626 6.76955426,1.92256008 6.76955426,1.23855926 C6.76955426,0.554434568 7.32436043,0 8.00885678,0 Z"></path>
                        </g>
                    </g>
                </g>
            </g>
        </g>
    </g>
</svg>