<?xml version="1.0" encoding="UTF-8"?>
<svg width="24px" height="24px" viewBox="0 0 24 24" version="1.1" xmlns="http://www.w3.org/2000/svg" xmlns:xlink="http://www.w3.org/1999/xlink">
    <title>矩形 2@1x</title>
    <g id="页面-1" stroke="none" stroke-width="1" fill="none" fill-rule="evenodd">
        <g id="编组-38" transform="translate(-361.000000, 0.000000)">
            <g id="矩形-2" transform="translate(361.000000, 0.000000)">
                <rect id="矩形" x="0" y="0" width="24" height="24"></rect>
                <g id="编组-2" transform="translate(2.000000, 0.000000)">
                    <path d="M10.9472142,20.6480621 L13.345253,24 L13.345253,24 L7.34525299,23.9627813 L9.98887311,20.6246672 C10.1946012,20.3648932 10.5719654,20.3210803 10.8317394,20.5268084 C10.8757092,20.5616303 10.9145792,20.6024455 10.9472142,20.6480621 Z" id="三角形" fill="#FFFFFF" transform="translate(10.345253, 22.000000) scale(1, -1) translate(-10.345253, -22.000000) "></path>
                    <ellipse id="椭圆形" fill="#FFFFFF" cx="10.5" cy="10.3445292" rx="10.5" ry="10.3445292"></ellipse>
                    <ellipse id="椭圆形" fill="#00BF36" cx="10.5" cy="10.359336" rx="9.5" ry="9.35933596"></ellipse>
                    <g id="编组-9" transform="translate(4.000000, 5.000000)" fill="#FFFFFF">
                        <rect id="矩形" fill-opacity="0.8" x="0" y="3.73333333" width="11.1681598" height="4.26666667" rx="0.607791011"></rect>
                        <path d="M9.4137931,3.73333333 L12.392209,3.73333333 C12.7278827,3.73333333 13,4.00545064 13,4.34112434 L13,7.39220899 C13,7.7278827 12.7278827,8 12.392209,8 L9.4137931,8 L9.4137931,8 L9.4137931,3.73333333 Z" id="矩形"></path>
                        <path d="M10.6817591,0.250544833 C10.7224425,0.425081749 10.6167968,0.608345505 10.4455326,0.649965837 C10.3733523,0.666748224 10.2099623,0.741933362 10.1692789,0.841285139 C10.1285955,0.93325267 10.1856835,1.06616924 10.2427716,1.15813677 C10.4055054,1.44947915 10.6089226,1.8905205 10.4789981,2.29866835 C10.396975,2.54839039 10.2178366,2.7397097 9.93305243,2.87329757 C9.89376217,2.89693964 9.84867951,2.90858632 9.80312788,2.90686235 L9.8024717,2.90619106 C9.67684148,2.90610352 9.56266995,2.83146626 9.50981335,2.71487176 C9.43703268,2.54706809 9.50953284,2.35057805 9.67254714,2.27383041 C9.78672326,2.22348323 9.85168554,2.16575178 9.86809017,2.09929349 C9.89236899,2.03216391 9.89236899,1.86568256 9.68107755,1.49109948 C9.4527253,1.07489608 9.50193914,0.766100007 9.57543182,0.583507546 C9.75391403,0.150521754 10.2342412,0.025660734 10.2913292,0.00887834383 C10.4619373,-0.0327420001 10.6410757,0.0760079292 10.6817591,0.250544833 Z M12.4724869,0.250544833 C12.5131704,0.425081749 12.4075247,0.608345505 12.2362605,0.649965837 C12.163424,0.666748224 12.000034,0.741933362 11.9600068,0.841285139 C11.9193233,0.93325267 11.9764114,1.06616924 12.0328432,1.15813677 C12.1962332,1.44947915 12.3996504,1.8905205 12.2690697,2.29866835 C12.1877028,2.54839039 12.0085644,2.7397097 11.7244365,2.87329757 C11.6847665,2.89719004 11.6391928,2.90884584 11.5931995,2.90686235 L11.5938557,2.90619106 C11.4679882,2.90636503 11.3534976,2.83168666 11.3005412,2.71487176 C11.2277605,2.54706809 11.3002607,2.35057805 11.463275,2.27383041 C11.5774511,2.22348323 11.6424134,2.16575178 11.658818,2.09929349 C11.6830968,2.03216391 11.6830968,1.86568256 11.4718054,1.49109948 C11.2434531,1.07489608 11.292667,0.766100007 11.3655035,0.583507546 C11.5446419,0.150521754 12.024969,0.025660734 12.0820571,0.00887834383 C12.2526651,-0.0327420001 12.4318035,0.0760079292 12.4724869,0.250544833 Z" id="形状结合" fill-rule="nonzero"></path>
                    </g>
                </g>
            </g>
        </g>
    </g>
</svg>