<?xml version="1.0" encoding="UTF-8"?>
<svg width="24px" height="24px" viewBox="0 0 24 24" version="1.1" xmlns="http://www.w3.org/2000/svg" xmlns:xlink="http://www.w3.org/1999/xlink">
    <title>矩形 2@1x</title>
    <g id="页面-1" stroke="none" stroke-width="1" fill="none" fill-rule="evenodd">
        <g id="编组-38" transform="translate(0.000000, -38.000000)">
            <g id="矩形-2" transform="translate(0.000000, 38.000000)">
                <rect id="矩形" x="0" y="0" width="24" height="24"></rect>
                <g id="编组-2" transform="translate(2.000000, 0.000000)">
                    <path d="M10.9472142,20.6480621 L13.345253,24 L13.345253,24 L7.34525299,23.9627813 L9.98887311,20.6246672 C10.1946012,20.3648932 10.5719654,20.3210803 10.8317394,20.5268084 C10.8757092,20.5616303 10.9145792,20.6024455 10.9472142,20.6480621 Z" id="三角形" fill="#FFFFFF" transform="translate(10.345253, 22.000000) scale(1, -1) translate(-10.345253, -22.000000) "></path>
                    <ellipse id="椭圆形" fill="#FFFFFF" cx="10.5" cy="10.3445292" rx="10.5" ry="10.3445292"></ellipse>
                    <ellipse id="椭圆形" fill="#00BF36" cx="10.5" cy="10.359336" rx="9.5" ry="9.35933596"></ellipse>
                    <g id="编组" transform="translate(5.000000, 5.000000)" fill="#FFFFFF" fill-rule="nonzero">
                        <g>
                            <rect id="矩形" fill-opacity="0.6" x="1.22490767" y="3.24102896" width="8.57545424" height="6.75897104"></rect>
                            <path d="M8.63220824,1.71413137e-06 C9.14826756,-0.000824746274 9.61359617,0.297268816 9.80969828,0.754315594 L10.9024768,3.30518258 C11.0026909,3.5318327 11.0263861,3.7828114 10.970246,4.02299411 C10.8279046,4.61959434 10.3470149,5.08872009 9.72668321,5.23613586 C9.10635151,5.38355163 8.45216915,5.18416462 8.03499207,4.72052849 C7.71337115,5.06970192 7.25056444,5.26973488 6.76431935,5.26973488 C6.27807425,5.26973488 5.81526754,5.06970192 5.49364663,4.72052849 C5.17202575,5.06970192 4.709219,5.26973488 4.22297393,5.26973488 C3.73672885,5.26973488 3.2739221,5.06970192 2.95230122,4.72052849 C2.63112625,5.07056787 2.16825745,5.2714773 1.68162851,5.27206728 C0.894898191,5.27342995 0.210700977,4.7560708 0.0297539943,4.02299411 C-0.0263860738,3.7828114 -0.00269095696,3.5318327 0.0975232054,3.30518258 L1.17759501,0.754315594 C1.37369711,0.297268816 1.83902569,-0.000824746274 2.35508505,1.71413137e-06 L8.63220824,1.71413137e-06 Z M7.24043402,1.65934394 L3.7650257,1.65934394 C3.52509883,1.65934394 3.33059966,1.84507215 3.33059966,2.0741795 C3.33059966,2.30328685 3.52509883,2.48901506 3.7650257,2.48901506 L3.7650257,2.48901506 L7.24043402,2.48901506 C7.48036092,2.48901506 7.67486008,2.30328685 7.67486008,2.0741795 C7.67486008,1.84507215 7.48036092,1.65934394 7.24043402,1.65934394 L7.24043402,1.65934394 Z" id="形状"></path>
                        </g>
                    </g>
                </g>
            </g>
        </g>
    </g>
</svg>