<?xml version="1.0" encoding="UTF-8"?>
<svg width="24px" height="24px" viewBox="0 0 24 24" version="1.1" xmlns="http://www.w3.org/2000/svg" xmlns:xlink="http://www.w3.org/1999/xlink">
    <title>矩形 2@1x</title>
    <defs>
        <linearGradient x1="24.7120104%" y1="13.454538%" x2="117.790624%" y2="140.147098%" id="linearGradient-1">
            <stop stop-color="#F4A800" offset="0%"></stop>
            <stop stop-color="#FAD300" offset="100%"></stop>
        </linearGradient>
    </defs>
    <g id="页面-1" stroke="none" stroke-width="1" fill="none" fill-rule="evenodd">
        <g id="编组-38" transform="translate(-283.000000, 0.000000)">
            <g id="矩形-2" transform="translate(283.000000, 0.000000)">
                <rect id="矩形" x="0" y="0" width="24" height="24"></rect>
                <g id="编组-2" transform="translate(2.000000, 0.000000)">
                    <path d="M10.9472142,20.6480621 L13.345253,24 L13.345253,24 L7.34525299,23.9627813 L9.98887311,20.6246672 C10.1946012,20.3648932 10.5719654,20.3210803 10.8317394,20.5268084 C10.8757092,20.5616303 10.9145792,20.6024455 10.9472142,20.6480621 Z" id="三角形" fill="#FFFFFF" transform="translate(10.345253, 22.000000) scale(1, -1) translate(-10.345253, -22.000000) "></path>
                    <ellipse id="椭圆形" fill="#FFFFFF" cx="10.5" cy="10.3445292" rx="10.5" ry="10.3445292"></ellipse>
                    <ellipse id="椭圆形" fill="url(#linearGradient-1)" cx="10.5" cy="10.359336" rx="9.5" ry="9.35933596"></ellipse>
                    <g id="编组" transform="translate(5.000000, 5.000000)" fill="#FFFFFF" fill-rule="nonzero">
                        <path d="M3.64162288,0.334740918 C3.68534842,0.509777412 3.57180308,0.693565724 3.3877327,0.735305187 C3.31015515,0.75213561 3.13454777,0.827535951 3.09082225,0.927172103 C3.04709671,1.01940287 3.10845351,1.15269989 3.1698103,1.24493066 C3.34471242,1.53710695 3.56334008,1.97941069 3.42370048,2.38872679 C3.33554418,2.63916361 3.14301079,2.83103053 2.83693206,2.96500077 C2.79470389,2.98871051 2.7462502,3.00039053 2.69729247,2.99866163 L2.69658722,2.99798842 C2.56156307,2.99790063 2.43885442,2.92304973 2.3820455,2.8061215 C2.30382269,2.63783752 2.38174401,2.44078507 2.55694762,2.36381776 C2.6796612,2.31332646 2.749481,2.25542978 2.76711228,2.18878126 C2.79320654,2.12145953 2.79320654,1.95450166 2.56611588,1.57884641 C2.32068872,1.16145171 2.3735825,0.851771768 2.45257055,0.668656672 C2.64439868,0.234431542 3.16064205,0.109213131 3.22199884,0.092382705 C3.40536398,0.0506432308 3.59789736,0.159704436 3.64162288,0.334740918 Z M5.56625149,0.334740918 C5.60997702,0.509777412 5.49643169,0.693565724 5.31236131,0.735305187 C5.23407851,0.75213561 5.05847113,0.827535951 5.01545085,0.927172103 C4.97172532,1.01940287 5.03308211,1.15269989 5.09373365,1.24493066 C5.26934102,1.53710695 5.48796868,1.97941069 5.34762384,2.38872679 C5.26017278,2.63916361 5.06763938,2.83103053 4.76226592,2.96500077 C4.7196297,2.98896163 4.67064824,3.00065079 4.62121583,2.99866163 L4.62192107,2.99798842 C4.48664181,2.99816289 4.3635903,2.92327076 4.3066741,2.8061215 C4.2284513,2.63783752 4.30637262,2.44078507 4.48157622,2.36381776 C4.60428981,2.31332646 4.67410961,2.25542978 4.69174087,2.18878126 C4.71783513,2.12145953 4.71783513,1.95450166 4.49074447,1.57884641 C4.24531731,1.16145171 4.29821109,0.851771768 4.3764939,0.668656672 C4.56902728,0.234431542 5.08527066,0.109213131 5.14662745,0.092382705 C5.32999258,0.0506432308 5.52252596,0.159704436 5.56625149,0.334740918 Z M7.49088008,0.251261969 C7.53460563,0.426298463 7.42035504,0.610086775 7.23698988,0.651826249 C7.15870712,0.668656672 6.98309975,0.743383797 6.94007944,0.843693171 C6.89635389,0.935923935 6.95700549,1.06922096 7.01836227,1.16145172 C7.1932644,1.45362802 7.41189201,1.89593176 7.2722524,2.30524785 C7.18480137,2.55568467 6.99226795,2.7475516 6.6861893,2.88152182 C6.64396111,2.90523157 6.59550742,2.91691159 6.54654969,2.91518269 L6.54654969,2.91450947 C6.41127042,2.91468393 6.28821891,2.83979181 6.2313027,2.72264255 C6.1530799,2.55435857 6.23100122,2.35730612 6.40620483,2.28033881 C6.52891841,2.22984751 6.5987382,2.17195082 6.6163695,2.10530233 C6.64246375,2.0379806 6.64246375,1.87102272 6.41466783,1.49536748 C6.1699459,1.07797277 6.22283969,0.76829283 6.30182776,0.585177739 C6.49365589,0.150952606 7.00989924,0.0257341953 7.07055078,0.00890375646 C7.25462118,-0.0328357179 7.44715453,0.076225487 7.49088008,0.251261969 Z" id="形状结合"></path>
                        <path d="M8.81871667,2.89362261 C9.35987696,2.89362261 9.79857408,3.31239362 9.79857408,3.82897384 L9.798,4.69062261 L11.0741342,4.69082139 C11.5907145,4.69082139 12.0094855,5.12951851 12.0094855,5.6706788 L12.0094855,6.92302809 C12.0094855,7.82467184 11.4222188,8.60996347 10.5865474,8.82577752 L9.07021094,9.21750921 C8.30675509,10.2931243 7.01611796,11 5.55252531,11 L4.24604877,11 C1.90102079,11 0,9.18532562 0,6.9468113 L0,3.82897384 C0,3.31239362 0.438697104,2.89362261 0.979857408,2.89362261 L8.81871667,2.89362261 Z M11.0741342,5.6706788 L9.82658634,5.67073955 L9.82658634,8.01325199 L10.3626652,7.8744028 C10.7526452,7.7736896 11.0344311,7.42493725 11.0702693,7.01234967 L11.0741342,6.92302809 L11.0741342,5.6706788 Z" id="形状结合"></path>
                    </g>
                </g>
            </g>
        </g>
    </g>
</svg>