<?xml version="1.0" encoding="UTF-8"?>
<svg width="24px" height="24px" viewBox="0 0 24 24" version="1.1" xmlns="http://www.w3.org/2000/svg" xmlns:xlink="http://www.w3.org/1999/xlink">
    <title>矩形 2@1x</title>
    <defs>
        <linearGradient x1="50%" y1="0%" x2="50%" y2="100%" id="linearGradient-1">
            <stop stop-color="#5CA4FF" offset="0%"></stop>
            <stop stop-color="#2F6BFF" offset="100%"></stop>
        </linearGradient>
    </defs>
    <g id="页面-1" stroke="none" stroke-width="1" fill="none" fill-rule="evenodd">
        <g id="编组-38" transform="translate(-213.000000, -38.000000)">
            <g id="矩形-2" transform="translate(213.000000, 38.000000)">
                <rect id="矩形" x="0" y="0" width="24" height="24"></rect>
                <g id="编组-2" transform="translate(2.000000, 0.000000)">
                    <path d="M10.9472142,20.6480621 L13.345253,24 L13.345253,24 L7.34525299,23.9627813 L9.98887311,20.6246672 C10.1946012,20.3648932 10.5719654,20.3210803 10.8317394,20.5268084 C10.8757092,20.5616303 10.9145792,20.6024455 10.9472142,20.6480621 Z" id="三角形" fill="#FFFFFF" transform="translate(10.345253, 22.000000) scale(1, -1) translate(-10.345253, -22.000000) "></path>
                    <ellipse id="椭圆形" fill="#FFFFFF" cx="10.5" cy="10.3445292" rx="10.5" ry="10.3445292"></ellipse>
                    <ellipse id="椭圆形" fill="url(#linearGradient-1)" cx="10.5" cy="10.359336" rx="9.5" ry="9.35933596"></ellipse>
                    <g id="编组" transform="translate(4.500000, 4.439205)" fill="#FFFFFF" fill-rule="nonzero">
                        <g id="路径">
                            <path d="M10.7368421,0.807562524 C11.4041335,0.807562524 11.9505733,1.34358965 11.9968285,2.02267485 L12,2.1161272 L12,9.02240758 C12,9.95456829 11.368398,10.752248 10.4978747,10.9426936 L10.3878434,10.9633025 L6.59834904,11.5557042 C6.51389502,11.814052 6.27790926,12 6,12 C5.72209077,12 5.48610501,11.814052 5.40165093,11.5557042 L1.61215661,10.9633025 C0.68533203,10.8184878 0,9.99340828 0,9.02240758 L0,2.1161272 C0,1.39342688 0.565535053,0.807562524 1.2631579,0.807562524 C1.3394228,0.807562524 1.41553101,0.814717676 1.49054999,0.828940306 L4.44635131,1.38932222 C5.3462821,1.55993752 6,2.37233846 6,3.32010255 L6.00311178,3.20705302 C6.05053572,2.34744628 6.63543222,1.61905883 7.44227814,1.41400366 L7.5536487,1.38932222 L10.50945,0.828940306 C10.584469,0.814717676 10.6605772,0.807562524 10.7368421,0.807562524 Z" fill-opacity="0.6"></path>
                            <path d="M2.75468839,0.0231443792 L4.9652147,0.459654767 C5.56090795,0.577285707 5.99185201,1.11685722 5.99185201,1.74507506 L5.99185201,9.68583874 C5.99185201,10.0471889 5.70908449,10.340121 5.36027306,10.340121 C5.32058957,10.340121 5.28099439,10.3362465 5.24201278,10.3285489 L2.28164722,9.74396848 C1.68595397,9.62633756 1.25500991,9.086766 1.25500991,8.45854818 L1.25500991,1.30856468 C1.25500991,0.585864362 1.82054496,0 2.5181678,0 C2.5975348,0 2.67672515,0.00774905744 2.75468839,0.0231443792 Z"></path>
                            <path d="M7.45864462,0.0231443792 L9.66917092,0.459654767 C10.2648642,0.577285707 10.6958082,1.11685722 10.6958082,1.74507506 L10.6958082,9.68583874 C10.6958082,10.0471889 10.4130407,10.340121 10.0642293,10.340121 C10.0245458,10.340121 9.98495062,10.3362465 9.94596898,10.3285489 L6.98560342,9.74396848 C6.38991022,9.62633756 5.95896612,9.086766 5.95896612,8.45854818 L5.95896612,1.30856468 C5.95896612,0.585864362 6.5245012,0 7.22212402,0 C7.301491,0 7.38068134,0.00774905744 7.45864462,0.0231443792 Z" transform="translate(8.327387, 5.170061) scale(-1, 1) translate(-8.327387, -5.170061) "></path>
                        </g>
                    </g>
                </g>
            </g>
        </g>
    </g>
</svg>