<?xml version="1.0" encoding="UTF-8"?>
<svg width="24px" height="24px" viewBox="0 0 24 24" version="1.1" xmlns="http://www.w3.org/2000/svg" xmlns:xlink="http://www.w3.org/1999/xlink">
    <title>矩形 2@1x</title>
    <defs>
        <linearGradient x1="50%" y1="0%" x2="50%" y2="100%" id="linearGradient-1">
            <stop stop-color="#5CA4FF" offset="0%"></stop>
            <stop stop-color="#2F6BFF" offset="100%"></stop>
        </linearGradient>
    </defs>
    <g id="页面-1" stroke="none" stroke-width="1" fill="none" fill-rule="evenodd">
        <g id="编组-38" transform="translate(-215.000000, 0.000000)">
            <g id="矩形-2" transform="translate(215.000000, 0.000000)">
                <rect id="矩形" x="0" y="0" width="24" height="24"></rect>
                <g id="编组-2" transform="translate(2.000000, 0.000000)">
                    <path d="M10.9472142,20.6480621 L13.345253,24 L13.345253,24 L7.34525299,23.9627813 L9.98887311,20.6246672 C10.1946012,20.3648932 10.5719654,20.3210803 10.8317394,20.5268084 C10.8757092,20.5616303 10.9145792,20.6024455 10.9472142,20.6480621 Z" id="三角形" fill="#FFFFFF" transform="translate(10.345253, 22.000000) scale(1, -1) translate(-10.345253, -22.000000) "></path>
                    <ellipse id="椭圆形" fill="#FFFFFF" cx="10.5" cy="10.3445292" rx="10.5" ry="10.3445292"></ellipse>
                    <ellipse id="椭圆形" fill="url(#linearGradient-1)" cx="10.5" cy="10.359336" rx="9.5" ry="9.35933596"></ellipse>
                    <g id="编组" transform="translate(4.000000, 5.000000)" fill="#FFFFFF" fill-rule="nonzero">
                        <path d="M9.19616281,0 C9.62828463,0 9.99343818,0.1147348 10.3220837,0.326991314 C10.6507293,0.533519543 10.68116,0.694151029 10.7724521,0.820356514 L10.7724521,0.820356514 L10.8637442,0.958032629 C10.9246056,1.07276743 10.985467,1.18750223 11.0402512,1.30223697 C11.1558819,1.5431772 11.5332196,2.66184137 11.5332196,2.6790544 L11.5332196,2.6790544 L11.9227414,3.64282937 C12.3974632,3.70018274 13,3.95259366 13,5.0884708 L13,5.0884708 L13,7.6007092 C13,8.12496697 12.6287445,8.38709583 11.8862335,8.38709583 L11.8862335,8.38709583 L11.8862335,9.2083272 C11.8862335,9.64432497 11.5088958,10 11.0463433,10 C10.5838204,10 10.2064679,9.64433897 10.2064679,9.2083272 L10.2064679,9.2083272 L10.2064679,8.38709583 L2.79354696,8.38709583 L2.79354696,9.2083272 C2.79354696,9.64432497 2.41620927,10 1.95365675,10 C1.49110417,10 1.11376653,9.64433897 1.11376653,9.2083272 L1.11376653,9.2083272 L1.11376653,8.38709583 C0.3712555,8.38709583 0,8.12496697 0,7.6007092 L0,7.6007092 L0,5.0884708 C0,3.95260766 0.602536758,3.70019674 1.0772586,3.64282937 L1.0772586,3.64282937 L1.46067347,2.6790544 C1.46099412,2.67814846 1.46234315,2.67419137 1.46462825,2.66747177 L1.48883401,2.59631171 C1.57940066,2.33046131 1.86236307,1.50513406 1.95974879,1.30223697 C2.01451815,1.18750223 2.0753795,1.07276743 2.1362409,0.958032629 L2.1362409,0.958032629 L2.23362511,0.803143486 C2.31882512,0.694151029 2.34925582,0.533519543 2.67790138,0.326991314 C3.00656182,0.1147348 3.37173025,0 3.80383719,0 L3.80383719,0 L9.19616281,0 Z M3.32265053,5.14285714 C2.82366893,5.14285714 2.41860465,5.52380954 2.41860465,6.00272377 C2.41860465,6.47619046 2.82366893,6.85714286 3.32265053,6.85714286 C3.82163213,6.85714286 4.23255814,6.47619046 4.23255814,6.00272377 C4.23255814,5.52925703 3.82749386,5.14285714 3.32265053,5.14285714 Z M9.67148774,5.14285714 C9.17250614,5.14285714 8.76744186,5.52380954 8.76744186,6.00272377 C8.76744186,6.47619046 9.17250614,6.85714286 9.67148774,6.85714286 C10.1704693,6.85714286 10.5813953,6.47619046 10.5813953,6.00272377 C10.5813953,5.52925703 10.1763167,5.14285714 9.67148774,5.14285714 Z M6.5,0.986716343 C5.40529147,0.986716343 4.31058287,0.996278857 3.93391325,0.997941886 L3.84645209,0.998187029 C3.5543144,1.02687069 3.27434604,1.2047152 3.13436186,1.33092069 C3.00656182,1.61774366 2.50140927,2.96589131 2.25796371,3.63135869 L2.25796371,3.63135869 L10.7420214,3.63135869 C10.4985907,2.96589131 9.99953022,1.6235 9.86563814,1.33092069 C9.72565396,1.19897286 9.44570047,1.02687069 9.15356278,0.998187029 L9.15356278,0.998187029 L9.00748323,0.997907314 C8.58516705,0.9966924 7.54256668,0.991709657 6.5,0.986716343 Z" id="形状"></path>
                        <path d="M4.47940462,3.63135869 L2.25796371,3.63135869 C2.50140927,2.96589131 3.00656182,1.61774366 3.13436186,1.33092069 C3.27434604,1.2047152 3.5543144,1.02687069 3.84645209,0.998187029 C4.10206698,0.998187029 5.30103346,0.986716343 6.5,0.986716343 C7.69895167,0.992458686 8.89794789,0.998187029 9.15356278,0.998187029 C9.44570047,1.02687069 9.72565396,1.19897286 9.86563814,1.33092069 C9.99953022,1.6235 10.4985907,2.96589131 10.7420214,3.63135869 L4.47940462,3.63135869 Z" id="路径" fill-opacity="0.6"></path>
                    </g>
                </g>
            </g>
        </g>
    </g>
</svg>