<svg height="40" viewBox="0 0 40 40" width="40" xmlns="http://www.w3.org/2000/svg"><g fill="none"><path d="m.71428571 20c0 10.6515 8.63421429 19.2857143 19.28571429 19.2857143s19.2857143-8.6342143 19.2857143-19.2857143-8.6342143-19.28571429-19.2857143-19.28571429-19.28571429 8.63421429-19.28571429 19.28571429z" fill="#fff" fill-opacity=".5"/><g fill="#000"><path d="m.71428571 20c0 10.6515 8.63421429 19.2857143 19.28571429 19.2857143s19.2857143-8.6342143 19.2857143-19.2857143-8.6342143-19.28571429-19.2857143-19.28571429-19.28571429 8.63421429-19.28571429 19.28571429zm-.71428571 0c0-11.04598929 8.95401071-20 20-20 11.0459893 0 20 8.95401071 20 20 0 11.0459893-8.9540107 20-20 20-11.04598929 0-20-8.9540107-20-20z" fill-opacity=".3"/><path d="m3.20724438 10.7499686 5.96953233 5.9697013.0337413.0359974c.2586833.2945946.2474362.7434853-.0337413 1.0246628s-.7300682.2924246-1.0246628.0337413l-.0359974-.0337413-7.03037213-7.0303615zm5.96953233-10.53029869c.2811775.28117749.2924246.73006823.0337413 1.02466278l-.0337413.0359974-6.9698301 6.96966991h16.68949999c.3994202 0 .7259152.31223.7487268.7059318l.0012732.0440682c0 .3994202-.31223.7259152-.7059318.7487268l-.0440682.0012732h-17.8964466c-.26521649 0-.5195704-.1053568-.70710678-.2928932-.37750682-.3775068-.39009038-.9817479-.03775068-1.3743703l.03775068-.0398433 7.82322329-7.82322329c.2928932-.29289321.767767-.29289321 1.0606602 0z" transform="matrix(0 1 1 0 11 10)"/></g></g></svg>