<?xml version="1.0" encoding="UTF-8"?>
<svg width="64px" height="64px" viewBox="0 0 64 64" version="1.1" xmlns="http://www.w3.org/2000/svg" xmlns:xlink="http://www.w3.org/1999/xlink">
    <title>ic_play_big</title>
    <g id="ic_play_big" stroke="none" stroke-width="1" fill="none" fill-rule="evenodd">
        <path d="M32,0 C49.673112,0 64,14.326888 64,32 C64,49.673112 49.673112,64 32,64 C14.326888,64 0,49.673112 0,32 C0,14.326888 14.326888,0 32,0 Z M23.75,19.5 L23.5845597,19.5053177 C22.2726646,19.5899619 21.25,20.6745241 21.25,22.000016 L21.25,41.999984 C21.25,43.3772345 22.3692881,44.5 23.75,44.5 L23.9154403,44.4946823 C25.2273354,44.4100381 26.25,43.3254759 26.25,41.999984 L26.25,22.000016 C26.25,20.6227655 25.1307119,19.5 23.75,19.5 Z M40.25,19.5 L40.0845597,19.5053177 C38.7726646,19.5899619 37.75,20.6745241 37.75,22.000016 L37.75,41.999984 C37.75,43.3772345 38.8692881,44.5 40.25,44.5 L40.4154403,44.4946823 C41.7273354,44.4100381 42.75,43.3254759 42.75,41.999984 L42.75,22.000016 C42.75,20.6227655 41.6307119,19.5 40.25,19.5 Z" id="形状结合" fill="#376668"></path>
    </g>
</svg>