<?xml version="1.0" encoding="UTF-8"?>
<svg width="24px" height="24px" viewBox="0 0 24 24" version="1.1" xmlns="http://www.w3.org/2000/svg" xmlns:xlink="http://www.w3.org/1999/xlink">
    <title>ic_more备份 2</title>
    <defs>
        <path d="M14,21 C14,22.1035513 13.1046041,22.9984438 11.9998754,22.9984438 C10.8953959,22.9984438 10,22.1035513 10,21 L14,21 Z M12,1 C12.9550883,1 13.7314752,1.76511154 13.7496734,2.71584735 C16.8446881,3.4960671 19.1358023,6.29830515 19.1358023,9.63566159 L19.1358023,16.172025 L21.4137679,19.1993706 C21.579801,19.4200233 21.5355229,19.7334941 21.3148702,19.8995272 C21.2282092,19.9647364 21.1226952,20 21.0142407,20 L2.98572637,20 C2.709584,20 2.48572637,19.7761424 2.48572637,19.5 C2.48572637,19.3915351 2.52099679,19.2860116 2.58621755,19.1993462 L4.86447909,16.1719916 L4.86447909,9.63566159 C4.86447909,6.29830515 7.15559322,3.4960671 10.2507606,2.71600833 L10.25,2.75 C10.25,1.78350169 11.0335017,1 12,1 Z M12.0001407,4 C8.88765073,4 6.36447909,6.52317164 6.36447909,9.63566159 L6.36447909,16.1719916 C6.36447909,16.4973863 6.25866783,16.8139569 6.06300557,17.073953 L4.98982171,18.5 L19.0102983,18.5 L17.9372208,17.0739133 C17.7415932,16.8139303 17.6358023,16.4973884 17.6358023,16.172025 L17.6358023,9.63566159 C17.6358023,6.52317164 15.1126306,4 12.0001407,4 Z" id="path-1"></path>
    </defs>
    <g id="ic_more备份-2" stroke="none" stroke-width="1" fill="none" fill-rule="evenodd">
        <mask id="mask-2" fill="white">
            <use xlink:href="#path-1"></use>
        </mask>
        <use id="合并形状" fill="#376668" xlink:href="#path-1"></use>
    </g>
</svg>