<?xml version="1.0" encoding="UTF-8"?>
<svg width="16px" height="16px" viewBox="0 0 16 16" version="1.1" xmlns="http://www.w3.org/2000/svg" xmlns:xlink="http://www.w3.org/1999/xlink">
    <title>ic_No5</title>
    <g id="ic_No5" stroke="none" stroke-width="1" fill="none" fill-rule="evenodd">
        <path d="M8,0 L16,0 L16,0 L16,8 C16,12.418278 12.418278,16 8,16 L0,16 L0,16 L0,8 C-5.41083001e-16,3.581722 3.581722,8.11624501e-16 8,0 Z" id="矩形" fill="#C2C9D4"></path>
        <path d="M8,7.64 C8.42666667,7.64 8.81166667,7.74 9.155,7.94 C9.49833333,8.14 9.76666667,8.42 9.96,8.78 C10.1533333,9.14 10.25,9.55 10.25,10.01 C10.25,10.4966667 10.1433333,10.925 9.93,11.295 C9.71666667,11.665 9.425,11.95 9.055,12.15 C8.685,12.35 8.27666667,12.45 7.83,12.45 C7.32333333,12.45 6.87666667,12.3266667 6.49,12.08 C6.10333333,11.8333333 5.83333333,11.47 5.68,10.99 L6.55,10.49 C6.65666667,10.8233333 6.81833333,11.0733333 7.035,11.24 C7.25166667,11.4066667 7.51333333,11.49 7.82,11.49 C8.22666667,11.49 8.54333333,11.355 8.77,11.085 C8.99666667,10.815 9.11,10.47 9.11,10.05 C9.11,9.64333333 8.99833333,9.3 8.775,9.02 C8.55166667,8.74 8.23,8.6 7.81,8.6 C7.28333333,8.6 6.86333333,8.84666667 6.55,9.34 L5.83,8.98 L6.33,5 L9.91,5 L9.91,5.93 L7.25,5.93 L6.99,7.89 C7.29,7.72333333 7.62666667,7.64 8,7.64 Z" id="路径" fill="#FFFFFF" fill-rule="nonzero"></path>
    </g>
</svg>