<?xml version="1.0" encoding="UTF-8"?>
<svg width="16px" height="16px" viewBox="0 0 16 16" version="1.1" xmlns="http://www.w3.org/2000/svg" xmlns:xlink="http://www.w3.org/1999/xlink">
    <title>ic_star3</title>
    <defs>
        <path d="M8.56061407,2.37407139 L9.88457944,5.96838174 L9.88457944,5.96838174 L13.477781,5.96838174 C13.7933722,5.96838174 14.0492095,6.22421903 14.0492095,6.53981032 C14.0492095,6.71919112 13.9649767,6.88816135 13.8217296,6.99613249 L10.8977838,9.20002996 L10.8977838,9.20002996 L11.9983922,12.686179 C12.0934046,12.9871283 11.9264597,13.3081187 11.6255104,13.4031311 C11.4563762,13.4565283 11.2720354,13.4283613 11.1265644,13.326893 L8.03616541,11.1712913 L8.03616541,11.1712913 L5.08247092,13.3707434 C4.82934868,13.5592294 4.47135442,13.5068314 4.28286837,13.2537092 C4.17567414,13.1097556 4.14234251,12.9238027 4.19286271,12.7515792 L5.23185006,9.20966795 L5.23185006,9.20966795 L2.23251754,6.99985872 C1.97843982,6.81266264 1.92422154,6.45493955 2.11141762,6.20086183 C2.21912126,6.0546777 2.38988993,5.96838174 2.57146602,5.96838174 L6.16597626,5.96838174 L6.16597626,5.96838174 L7.48811297,2.37430058 C7.59706954,2.07811428 7.92550273,1.9263346 8.22168903,2.03529117 C8.37884533,2.09310347 8.50273461,2.21693982 8.56061407,2.37407139 Z" id="path-1"></path>
    </defs>
    <g id="ic_star3" stroke="none" stroke-width="1" fill="none" fill-rule="evenodd">
        <mask id="mask-2" fill="white">
            <use xlink:href="#path-1"></use>
        </mask>
        <use id="Stroke-161-Copy-2" fill-opacity="0.103672694" fill="#182431" fill-rule="nonzero" xlink:href="#path-1"></use>
        <path d="M7.99993616,2.00053046 L8,11.1975305 L5.08247092,13.3707434 C4.82934868,13.5592294 4.47135442,13.5068314 4.28286837,13.2537092 C4.17567414,13.1097556 4.14234251,12.9238027 4.19286271,12.7515792 L5.23185006,9.20966795 L2.23251754,6.99985872 C1.97843982,6.81266264 1.92422154,6.45493955 2.11141762,6.20086183 C2.21912126,6.0546777 2.38988993,5.96838174 2.57146602,5.96838174 L6.16597626,5.96838174 L7.48811297,2.37430058 C7.57013646,2.15132887 7.77654204,2.01019548 7.99993616,2.00053046 Z" id="路径" fill="#FFBF00" fill-rule="nonzero" mask="url(#mask-2)"></path>
    </g>
</svg>