<?xml version="1.0" encoding="UTF-8"?>
<svg width="16px" height="16px" viewBox="0 0 16 16" version="1.1" xmlns="http://www.w3.org/2000/svg" xmlns:xlink="http://www.w3.org/1999/xlink">
    <title>ic_No2</title>
    <g id="ic_No2" stroke="none" stroke-width="1" fill="none" fill-rule="evenodd">
        <path d="M8,0 L16,0 L16,0 L16,8 C16,12.418278 12.418278,16 8,16 L0,16 L0,16 L0,8 C-5.41083001e-16,3.581722 3.581722,8.11624501e-16 8,0 Z" id="矩形" fill="#A8C4E6"></path>
        <path d="M7.1,11.39 L10.29,11.39 L10.29,12.34 L5.5,12.34 L5.5,11.65 L7.81,9.06 C8.23,8.59333333 8.52166667,8.225 8.685,7.955 C8.84833333,7.685 8.93,7.39333333 8.93,7.08 C8.93,6.69333333 8.82666667,6.395 8.62,6.185 C8.41333333,5.975 8.14666667,5.87 7.82,5.87 C7.48666667,5.87 7.19166667,5.98333333 6.935,6.21 C6.67833333,6.43666667 6.49333333,6.74666667 6.38,7.14 L5.52,6.65 C5.67333333,6.09 5.97166667,5.65666667 6.415,5.35 C6.85833333,5.04333333 7.35333333,4.89 7.9,4.89 C8.31333333,4.89 8.685,4.975 9.015,5.145 C9.345,5.315 9.60333333,5.56166667 9.79,5.885 C9.97666667,6.20833333 10.07,6.59 10.07,7.03 C10.07,7.46333333 9.965,7.87 9.755,8.25 C9.545,8.63 9.17333333,9.11 8.64,9.69 L7.1,11.39 Z" id="路径" fill="#FFFFFF" fill-rule="nonzero"></path>
    </g>
</svg>