<?xml version="1.0" encoding="UTF-8"?>
<svg width="16px" height="16px" viewBox="0 0 16 16" version="1.1" xmlns="http://www.w3.org/2000/svg" xmlns:xlink="http://www.w3.org/1999/xlink">
    <title>ic_No3</title>
    <g id="ic_No3" stroke="none" stroke-width="1" fill="none" fill-rule="evenodd">
        <path d="M8,0 L16,0 L16,0 L16,8 C16,12.418278 12.418278,16 8,16 L0,16 L0,16 L0,8 C-5.41083001e-16,3.581722 3.581722,8.11624501e-16 8,0 Z" id="矩形" fill="#AF896C"></path>
        <path d="M8.98,8.46 C9.40666667,8.60666667 9.72833333,8.83333333 9.945,9.14 C10.1616667,9.44666667 10.27,9.82666667 10.27,10.28 C10.27,10.7333333 10.1616667,11.1233333 9.945,11.45 C9.72833333,11.7766667 9.43666667,12.025 9.07,12.195 C8.70333333,12.365 8.3,12.45 7.86,12.45 C7.30666667,12.45 6.805,12.3116667 6.355,12.035 C5.905,11.7583333 5.59666667,11.3533333 5.43,10.82 L6.29,10.33 C6.41666667,10.71 6.62333333,10.9983333 6.91,11.195 C7.19666667,11.3916667 7.51,11.49 7.85,11.49 C8.21666667,11.49 8.52166667,11.3783333 8.765,11.155 C9.00833333,10.9316667 9.13,10.6266667 9.13,10.24 C9.13,9.42 8.55,9.01 7.39,9.01 L7.1,9.01 L7.1,8.07 L7.47,8.07 C7.92333333,8.07 8.27,7.96 8.51,7.74 C8.75,7.52 8.87,7.24 8.87,6.9 C8.87,6.58 8.76833333,6.32666667 8.565,6.14 C8.36166667,5.95333333 8.1,5.86 7.78,5.86 C7.44,5.86 7.15166667,5.96166667 6.915,6.165 C6.67833333,6.36833333 6.5,6.66333333 6.38,7.05 L5.53,6.56 C5.69666667,6.01333333 5.985,5.59833333 6.395,5.315 C6.805,5.03166667 7.29,4.89 7.85,4.89 C8.27666667,4.89 8.65333333,4.97166667 8.98,5.135 C9.30666667,5.29833333 9.56,5.52833333 9.74,5.825 C9.92,6.12166667 10.01,6.46333333 10.01,6.85 C10.01,7.21666667 9.925,7.54 9.755,7.82 C9.585,8.1 9.32666667,8.31333333 8.98,8.46 Z" id="路径" fill="#FFFFFF" fill-rule="nonzero"></path>
    </g>
</svg>