<?xml version="1.0" encoding="UTF-8"?>
<svg width="24px" height="24px" viewBox="0 0 24 24" version="1.1" xmlns="http://www.w3.org/2000/svg" xmlns:xlink="http://www.w3.org/1999/xlink">
    <title>ic_eye_open</title>
    <defs>
        <path d="M11.9855652,5 C16.3241739,5 20.6294483,7.43580293 22.8461207,11.4681793 C23.0110287,11.7681655 23.0110272,12.1316601 22.8461169,12.4316451 C20.6306141,16.4618187 16.3409683,19 12,19 C7.6616265,19 3.34195001,16.4588234 1.1237988,12.4261126 C0.958720986,12.1259928 0.958734525,11.7622639 1.12383468,11.4621564 C3.34091662,7.43210006 7.6450303,5 11.9855652,5 Z M12.1090841,6.50074831 L11.9855652,6.5 C8.23510787,6.5 4.59313857,8.56569489 2.6270143,11.855814 L2.57475,11.94425 L2.62906687,12.0363214 C4.20829156,14.682087 6.85453152,16.5732705 9.73508149,17.238259 C7.96961792,16.3923274 6.75,14.5885922 6.75,12.5 C6.75,11.9635357 6.83046337,11.4458645 6.9799799,10.9583969 C7.05366048,10.7181766 7.27572261,10.7770121 7.3241015,10.9659401 C7.58677335,11.9917192 8.51733369,12.75 9.625,12.75 C10.9140612,12.75 11.9632598,11.7230265 11.9990559,10.4426197 L12,10.375 L12,10.125 C12,9.09101624 11.3392463,8.21135977 10.4169507,7.88524243 C10.2077236,7.81126118 10.1886209,7.56495342 10.4168532,7.49287563 C10.5266282,7.45820774 10.6379617,7.42704833 10.7507223,7.39952944 C11.151119,7.3018138 11.5695086,7.25 12,7.25 C14.8994949,7.25 17.25,9.60050506 17.25,12.5 C17.25,14.5881939 16.0308472,16.3916395 14.2654924,17.2373858 C17.1354905,16.5737801 19.7632982,14.688333 21.3406926,12.0424401 L21.395,11.95 L21.3427165,11.8611806 C19.3982331,8.6048523 15.8133859,6.54561308 12.1090841,6.50074831 Z" id="path-1"></path>
    </defs>
    <g id="ic_eye_open" stroke="none" stroke-width="1" fill="none" fill-rule="evenodd">
        <mask id="mask-2" fill="white">
            <use xlink:href="#path-1"></use>
        </mask>
        <use id="形状结合" fill-opacity="0.9" fill="#000000" fill-rule="nonzero" xlink:href="#path-1"></use>
    </g>
</svg>