<?xml version="1.0" encoding="UTF-8"?>
<svg width="120px" height="120px" viewBox="0 0 120 120" version="1.1" xmlns="http://www.w3.org/2000/svg" xmlns:xlink="http://www.w3.org/1999/xlink">
    <title>png_net_fail</title>
    <defs>
        <path d="M42.4620061,0 C62.8474237,0 79.8776473,14.3652935 83.9818976,33.5251014 C81.2674389,35.9070455 78.2052348,38.3445742 74.8574592,40.7924756 L73.987838,41.4239455 C73.4039234,41.8450395 72.8117277,42.2663223 72.2115699,42.6875586 L71.3054016,43.3193486 L69.9242792,44.2665162 C69.614497,44.4768921 69.302824,44.6871828 68.9893,44.8973588 L68.0432152,45.5275135 C67.2502503,46.0523067 66.4459662,46.5761994 65.6309862,47.0987315 L64.6479159,47.7250877 L63.6548167,48.3499612 C62.4122485,49.1269426 61.1469185,49.9000661 59.8609046,50.6677982 L59.8606915,52.9046394 C69.5353914,47.1963498 77.9308959,41.2648733 84.3910998,35.7176464 C84.7418846,37.9138312 84.9240122,40.1666496 84.9240122,42.4620061 C84.9240122,65.9131245 65.9131245,84.9240122 42.4620061,84.9240122 C31.2103651,84.9240122 20.9808636,80.5477129 13.3827979,73.4044109 C19.1065231,71.8491613 25.521754,69.6115918 32.3292301,66.7625092 L34.0340185,66.0397206 C38.1857026,64.2569982 42.4715623,62.2531113 46.8257871,60.0435024 L46.8596006,60.0259483 L46.8596843,57.8672414 C45.6800111,58.4722815 44.5024632,59.0635422 43.3285843,59.6404749 L42.2323998,60.1755811 C40.0423549,61.2373806 37.8668151,62.2485036 35.7158676,63.205364 L34.64249,63.6792556 L33.5734913,64.1440039 C32.6845614,64.5274567 31.8004848,64.9012814 30.9219912,65.2652185 L29.8705253,65.6971803 L28.8246993,66.1195505 L27.7847934,66.5322293 L27.267148,66.7349034 L26.2366474,67.1328585 C25.5518228,67.3948595 24.8714119,67.6502336 24.1957883,67.898848 L23.18599,68.2666831 C19.1869922,69.7084328 15.3648036,70.9075407 11.7986004,71.8358575 C4.49045256,64.2080901 0,53.8594488 0,42.4620061 C0,19.0108877 19.0108877,0 42.4620061,0 Z" id="path-1"></path>
    </defs>
    <g id="png_net_fail" stroke="none" stroke-width="1" fill="none" fill-rule="evenodd">
        <g id="编组" transform="translate(3.119874, 16.820152)">
            <g id="椭圆形-+-椭圆形备份-13-+-椭圆形备份-16-+-椭圆形备份-14-+-椭圆形备份-15-蒙版" transform="translate(12.020399, 0.000000)">
                <mask id="mask-2" fill="white">
                    <use xlink:href="#path-1"></use>
                </mask>
                <use id="形状结合" fill="#A1A7B3" opacity="0.300000012" xlink:href="#path-1"></use>
                <circle id="椭圆形" fill="#A1A7B3" opacity="0.200000003" mask="url(#mask-2)" cx="35.7742401" cy="74.8734407" r="4.45851064"></circle>
                <circle id="椭圆形备份-13" fill="#A1A7B3" opacity="0.200000003" mask="url(#mask-2)" cx="65.8161094" cy="31.8465046" r="6.36930091"></circle>
                <circle id="椭圆形备份-16" fill="#A1A7B3" opacity="0.200000003" mask="url(#mask-2)" cx="27.8383485" cy="34.3942249" r="4.60005066"></circle>
                <circle id="椭圆形备份-14" fill="#A1A7B3" opacity="0.200000003" mask="url(#mask-2)" cx="45.2928065" cy="4.24620061" r="16.2771023"></circle>
                <circle id="椭圆形备份-15" fill="#A1A7B3" opacity="0.200000003" mask="url(#mask-2)" cx="8.13855117" cy="59.8006586" r="10.9693516"></circle>
                <circle id="椭圆形备份-19" fill="#A1A7B3" opacity="0.200000003" mask="url(#mask-2)" cx="78.5701918" cy="61.3902075" r="10.9693516"></circle>
            </g>
            <path d="M12.6895718,52.4451709 C12.8563125,53.2286676 13.0401303,53.9223211 13.2279926,54.5472051 C12.9593677,54.7887573 12.6960901,55.0296976 12.4366143,55.269926 L11.7176031,55.9432232 L11.0235038,56.6085319 L10.5746427,57.0474803 L10.1369013,57.4826494 L9.71029885,57.9139474 L9.29485434,58.3412828 L8.89058692,58.764564 L8.49751571,59.1836994 L8.11565983,59.5985975 L7.74503839,60.0091665 L7.38567051,60.4153149 L7.03757531,60.8169511 L6.53661061,61.4107447 L6.21678074,61.8006998 L5.90829046,62.185822 L5.61115889,62.5660199 C5.36828735,62.8807742 5.13726771,63.1903035 4.91814975,63.4943693 L4.66092419,63.8566106 C4.32558235,64.3360615 4.02075979,64.8012817 3.74666043,65.251294 L3.5468497,65.5859365 C1.99449961,68.2400204 1.55001988,70.3378285 2.25745609,71.6683225 C2.9648923,72.9988165 4.95260394,73.8034055 8.02100238,74.0005938 L8.41016632,74.0220729 C8.93651785,74.046478 9.49265745,74.0539164 10.0776611,74.044011 L10.5218114,74.0333241 C10.8964226,74.0216985 11.2822186,74.0032612 11.6789738,73.9779199 L12.160326,73.9441906 L12.6521123,73.9037982 L13.4091665,73.8306389 L13.9266594,73.7734339 L14.4542833,73.7094421 L14.9919516,73.6386279 L15.8170977,73.5195375 L16.9516393,73.3365422 L17.5334353,73.23459 L18.1247991,73.125621 L19.0295953,72.9489335 L19.7996772,72.7894868 L20.5842014,72.6188691 L21.544456,72.3992848 C25.7420681,71.4142948 30.3435031,70.0198886 35.2063894,68.2666831 L36.2161877,67.898848 C36.8918113,67.6502336 37.5722222,67.3948595 38.2570469,67.1328585 L39.2875474,66.7349034 L39.8051928,66.5322293 L40.8450987,66.1195505 L41.8909248,65.6971803 L42.9423906,65.2652185 C43.8208842,64.9012814 44.7049608,64.5274567 45.5938907,64.1440039 L46.6628894,63.6792556 L47.7362671,63.205364 C49.8872145,62.2485036 52.0627543,61.2373806 54.2527992,60.1755811 L55.3489838,59.6404749 C56.5228626,59.0635422 57.7004105,58.4722815 58.8800837,57.8672414 L58.88,60.0259483 L58.8461865,60.0435024 C54.4919617,62.2531113 50.2061021,64.2569982 46.0544179,66.0397206 L44.3496295,66.7625092 C22.0079564,76.1130043 3.89118591,78.8768445 0.543038294,72.5798946 C-0.816087787,70.0237502 0.423441716,66.2849617 3.73003844,61.8556852 L4.17301247,61.2740781 C4.24878066,61.1765044 4.32551481,61.0786146 4.40320944,60.9804135 L4.88085944,60.3875141 C5.1254037,60.0892379 5.37849407,59.7882524 5.63998309,59.4846941 L6.17411565,58.8741876 C6.26498955,58.7718782 6.3567857,58.6692931 6.44949866,58.5664373 L7.01673432,57.9460946 L7.60571102,57.3194978 C7.70567099,57.2145573 7.80652592,57.1093663 7.90827034,57.0039299 L8.5293671,56.3684071 L9.17154953,55.7272369 L9.8345555,55.0806622 C9.94677723,54.9724628 10.0598557,54.8640484 10.1737854,54.7554239 L10.8675351,54.1011973 C10.9848481,53.9917529 11.1030013,53.8821087 11.2219895,53.7722696 L11.9458932,53.1109371 L12.6895718,52.4451709 Z M109.837173,14.4671724 C113.638799,21.6169908 97.1089921,38.0196127 71.8810909,52.9046394 L71.881304,50.6677982 C73.1673179,49.9000661 74.4326479,49.1269426 75.6752161,48.3499612 L76.6683153,47.7250877 L77.6513856,47.0987315 C78.4663656,46.5761994 79.2706497,46.0523067 80.0636146,45.5275135 L81.0096994,44.8973588 C81.3232234,44.6871828 81.6348964,44.4768921 81.9446787,44.2665162 L83.325801,43.3193486 L84.2319693,42.6875586 C84.8321271,42.2663223 85.4243228,41.8450395 86.0082374,41.4239455 L86.8778586,40.7924756 C91.0506232,37.7413403 94.7797282,34.7063198 97.9435968,31.7771411 L98.6626081,31.1038439 L99.3567074,30.4385352 L99.8055685,29.9995867 L100.458005,29.348279 L101.085357,28.7057842 L101.489624,28.282503 L102.264551,27.4484696 L102.635173,27.0379006 L102.994541,26.6317522 L103.342636,26.2301159 L103.843601,25.6363223 L104.16343,25.2463673 L104.471921,24.861245 L104.769052,24.4810472 C105.011924,24.1662929 105.242943,23.8567635 105.462061,23.5526977 L105.719287,23.1904565 C106.054629,22.7110055 106.359451,22.2457853 106.633551,21.795773 L106.833361,21.4611305 C108.385712,18.8070466 108.830191,16.7092385 108.122755,15.3787445 C107.415319,14.0482505 105.427607,13.2436615 102.359209,13.0464732 L101.970045,13.0249941 C101.443693,13.0005891 100.887554,12.9931506 100.30255,13.003056 L99.8583998,13.0137429 C99.4837886,13.0253685 99.0979926,13.0438059 98.7012374,13.0691471 L98.2198852,13.1028764 L97.7280988,13.1432688 L96.9710446,13.2164282 L96.4535517,13.2736331 L95.9259279,13.337625 L95.3882596,13.4084391 L94.8406336,13.4861109 L94.2831364,13.5706758 L93.4285719,13.7105249 L92.8467759,13.8124771 C92.6512445,13.8476286 92.4541184,13.8839497 92.2554121,13.9214461 L91.3506159,14.0981335 L90.4247791,14.2908078 L89.7960098,14.4281979 L88.8357552,14.6477822 C88.4495421,14.738409 88.0599105,14.8325016 87.6669713,14.9300207 C87.217367,14.3623723 86.7447379,13.8186245 86.2436707,13.305447 L87.2159006,13.0589962 C87.3767169,13.0190843 87.5369174,12.979755 87.6964947,12.9410102 L88.6464223,12.7155682 C88.9605331,12.6427678 89.2720928,12.5723189 89.5810429,12.5042351 L90.5,12.3070933 L91.4029597,12.1242252 C91.5520984,12.0949412 91.7005556,12.0662554 91.8483237,12.0381695 L92.7266065,11.8768664 L93.5880032,11.730043 C93.7301426,11.7067836 93.8715638,11.684131 94.0122595,11.6620869 L94.8476689,11.5371376 C94.9854333,11.5175342 95.1224575,11.4985428 95.2587343,11.480165 L96.0673669,11.3772752 C96.3338822,11.3454422 96.5973493,11.3160775 96.8577095,11.2891947 L97.6294113,11.2160061 C97.7564554,11.2050535 97.8827081,11.1947249 98.0081622,11.1850219 L98.7512448,11.1343255 L99.4748091,11.0987268 L100.178504,11.0783084 C105.149617,10.9865688 108.562939,12.0706877 109.837173,14.4671724 Z" id="形状结合" fill="#A1A7B3" opacity="0.600000024"></path>
            <circle id="椭圆形备份-16" fill="#A1A7B3" opacity="0.200000003" cx="109.280911" cy="36.8004053" r="3.53850051"></circle>
            <circle id="椭圆形备份-17" fill="#A1A7B3" opacity="0.200000003" cx="85.5890418" cy="7.39224924" r="1.91079027"></circle>
            <circle id="椭圆形备份-18" fill="#A1A7B3" opacity="0.2" cx="4.37080468" cy="47.0620567" r="1.76925025"></circle>
            <path d="M68.6014976,82.5197724 C72.5015188,83.1103109 74.9560606,83.9686493 74.9560606,84.9240122 C74.9560606,86.70515 66.4244945,88.1490475 55.9002744,88.1490475 C45.3760544,88.1490475 36.8444883,86.70515 36.8444883,84.9240122 C36.8444883,84.1322094 38.5305279,83.4070532 41.3281416,82.8457674 C45.4693889,84.1952148 49.8907873,84.9240122 54.4824055,84.9240122 C59.4071404,84.9240122 64.136061,84.085632 68.5342287,82.5438106 Z" id="形状结合" fill="#A1A7B3" opacity="0.15"></path>
        </g>
        <path d="M4.9379469,22.5127086 C5.66384184,22.3182057 6.40997177,22.748984 6.60447474,23.4748789 L8.44363055,30.3387019 C8.63813351,31.0645968 8.2073552,31.8107267 7.48146025,32.0052297 C6.7555653,32.1997327 6.00943537,31.7689544 5.81493241,31.0430594 L3.9757766,24.1792365 C3.78127363,23.4533415 4.21205195,22.7072116 4.9379469,22.5127086 Z M15.2811321,21.5893263 C16.0326339,21.5893263 16.6418464,22.1985389 16.6418464,22.9500406 L16.6418464,30.055993 C16.6418464,30.8074947 16.0326339,31.4167073 15.2811321,31.4167073 C14.5296304,31.4167073 13.9204179,30.8074947 13.9204179,30.055993 L13.9204179,22.9500406 C13.9204179,22.1985389 14.5296304,21.5893263 15.2811321,21.5893263 Z M24.868365,22.5127086 C25.59426,22.7072116 26.0250383,23.4533415 25.8305353,24.1792365 L23.9913795,31.0430594 C23.7968765,31.7689544 23.0507466,32.1997327 22.3248517,32.0052297 C21.5989567,31.8107267 21.1681784,31.0645968 21.3626814,30.3387019 L23.2018372,23.4748789 C23.3963401,22.748984 24.1424701,22.3182057 24.868365,22.5127086 Z" id="形状结合" fill="#A1A7B3" opacity="0.2" transform="translate(14.903156, 26.820629) rotate(-51.000000) translate(-14.903156, -26.820629) "></path>
        <path d="M67.3021346,58.4736937 C67.808874,58.5525337 68.1671734,58.9989636 68.1477942,59.4992705 L68.1365134,59.6155395 L66.586,69.582 L71.1205987,67.7338392 L69.4937846,82.2567881 C69.4323039,82.8056402 68.9375315,83.2007328 68.3886794,83.1392521 C67.8790311,83.0821629 67.5019611,82.6514702 67.499919,82.1507922 L67.5062154,82.034147 L68.758,70.856 L64.0660032,72.7689574 L66.1602887,59.3080725 C66.2391288,58.8013331 66.6855586,58.4430336 67.1858655,58.4624129 L67.3021346,58.4736937 Z" id="路径-13" fill="#A1A7B3" opacity="0.600000024"></path>
    </g>
</svg>