<?xml version="1.0" encoding="UTF-8"?>
<svg width="72px" height="72px" viewBox="0 0 72 72" version="1.1" xmlns="http://www.w3.org/2000/svg" xmlns:xlink="http://www.w3.org/1999/xlink">
    <title>ic_success</title>
    <defs>
        <path d="M35,8 C50.463973,8 63,20.536027 63,36 C63,51.463973 50.463973,64 35,64 C19.536027,64 7,51.463973 7,36 C7,20.536027 19.536027,8 35,8 Z M50.7491965,27.6500689 C50.0036501,26.9045225 48.7948806,26.9045225 48.0493342,27.6500689 L33.7893563,41.9099091 L33.7228663,41.9719536 C33.0148296,42.6024348 31.9500381,42.6145595 31.2282801,42.0083276 L31.1173563,41.9059091 L23.223393,34.0137052 L23.1417827,33.9366781 C22.3920968,33.2691098 21.2424505,33.2947855 20.5235308,34.0137052 C20.1507576,34.3864784 19.964371,34.8750574 19.964371,35.3636364 L19.9712742,35.5263372 C20.0080913,35.9593587 20.1921768,36.3822135 20.5235308,36.7135675 L29.3047062,45.4947429 L29.4148195,45.6012033 C31.1613645,47.233596 33.9010184,47.1981092 35.6043848,45.4947429 L50.7491965,30.3499311 L50.8262236,30.2683208 C51.4937919,29.5186349 51.4681162,28.3689886 50.7491965,27.6500689 Z" id="path-1"></path>
    </defs>
    <g id="ic_success" stroke="none" stroke-width="1" fill="none" fill-rule="evenodd">
        <mask id="mask-2" fill="white">
            <use xlink:href="#path-1"></use>
        </mask>
        <use id="形状结合" fill="#007DFF" fill-rule="nonzero" xlink:href="#path-1"></use>
    </g>
</svg>