<?xml version="1.0" encoding="UTF-8"?>
<svg xmlns="http://www.w3.org/2000/svg" xmlns:xlink="http://www.w3.org/1999/xlink" width="24" height="24" viewBox="0 0 24 24" version="1.1">
    <title>Public/ic_public_pause</title>
    <defs>
        <path d="M7.5,3.5 C8.32842712,3.5 9,4.17157288 9,5 L9,19 C9,19.8284271 8.32842712,20.5 7.5,20.5 C6.67157288,20.5 6,19.8284271 6,19 L6,5 C6,4.17157288 6.67157288,3.5 7.5,3.5 Z M16.5,3.5 C17.3284271,3.5 18,4.17157288 18,5 L18,19 C18,19.8284271 17.3284271,20.5 16.5,20.5 C15.6715729,20.5 15,19.8284271 15,19 L15,5 C15,4.17157288 15.6715729,3.5 16.5,3.5 Z" id="_path-1"/>
    </defs>
    <g id="_Public/ic_public_pause" stroke="none" stroke-width="1" fill="none" fill-rule="evenodd">
        <mask id="_mask-2" fill="white">
            <use xlink:href="#_path-1"/>
        </mask>
        <use id="_Combined-Shape" fill="#FFFFFF" xlink:href="#_path-1"/>
    </g>
</svg>