<?xml version="1.0" encoding="UTF-8"?>
<svg xmlns="http://www.w3.org/2000/svg" xmlns:xlink="http://www.w3.org/1999/xlink" width="24" height="24" viewBox="0 0 24 24" version="1.1">
    <title>Public/ic_public_play_next</title>
    <defs>
        <path d="M4.73445554,6.65608891 C5.2177047,5.81907682 6.28798791,5.5322953 7.125,6.01554446 L7.125,6.01554446 L14.8653811,10.4844555 C15.1314147,10.6380501 15.3523309,10.8589664 15.5059255,11.125 C15.9891747,11.9620121 15.7023931,13.0322953 14.8653811,13.5155445 L14.8653811,13.5155445 L7.125,17.9844555 C6.85896638,18.1380501 6.55718916,18.2189111 6.25,18.2189111 C5.28350169,18.2189111 4.5,17.4354094 4.5,16.4689111 L4.5,16.4689111 L4.5,7.53108891 C4.5,7.22389975 4.58086096,6.92212253 4.73445554,6.65608891 Z M18.25,6.25 C18.8022847,6.25 19.25,6.69771525 19.25,7.25 L19.25,16.75 C19.25,17.3022847 18.8022847,17.75 18.25,17.75 C17.6977153,17.75 17.25,17.3022847 17.25,16.75 L17.25,7.25 C17.25,6.69771525 17.6977153,6.25 18.25,6.25 Z" id="_path-1"/>
    </defs>
    <g id="_Public/ic_public_play_next" stroke="none" stroke-width="1" fill="none" fill-rule="evenodd">
        <mask id="_mask-2" fill="white">
            <use xlink:href="#_path-1"/>
        </mask>
        <use id="_形状结合" fill="#FFFFFF" xlink:href="#_path-1"/>
    </g>
</svg>